<?xml version="1.0" encoding="UTF-8" standalone="no"?>
<!DOCTYPE svg PUBLIC "-//W3C//DTD SVG 1.0//EN" "http://www.w3.org/TR/2001/REC-SVG-20010904/DTD/svg10.dtd">
<svg xmlns="http://www.w3.org/2000/svg" version="1.0" viewBox="0.00 0.00 408.00 612.00">
<g stroke-width="2.00" fill="none" stroke-linecap="butt">
<path stroke="#005d7e" vector-effect="non-scaling-stroke" d="
  M 201.9745 44.4177
  A 18.88 18.27 -83.6 0 0 181.7139 61.1435
  A 18.88 18.27 -83.6 0 0 197.7655 81.9423
  A 18.88 18.27 -83.6 0 0 218.0261 65.2165
  A 18.88 18.27 -83.6 0 0 201.9745 44.4177"
/>
<path stroke="#005d7e" vector-effect="non-scaling-stroke" d="
  M 74.25 177.62
  Q 73.99 211.58 74.07 245.83
  Q 74.11 267.70 75.01 272.09
  C 78.62 289.71 92.47 305.95 110.10 310.88
  Q 120.56 313.81 132.51 313.81
  Q 171.55 313.80 266.50 313.80
  C 277.38 313.80 289.32 312.08 298.74 306.64
  C 315.73 296.79 325.77 278.69 325.71 259.00
  Q 325.57 217.99 325.92 179.45
  Q 325.93 177.81 325.06 172.19"
/>
<path stroke="#167185" vector-effect="non-scaling-stroke" d="
  M 325.06 172.19
  C 319.69 144.54 297.10 125.97 268.86 125.85
  Q 187.09 125.52 132.00 125.74
  C 110.56 125.82 91.61 135.99 81.45 154.82
  Q 75.84 165.22 74.25 177.62"
/>
<path stroke="#16afd4" vector-effect="non-scaling-stroke" d="
  M 325.06 172.19
  L 324.27 172.09
  A 0.80 0.79 86.8 0 1 323.60 171.49
  Q 322.30 165.99 319.67 161.61
  Q 306.58 139.79 282.68 134.30
  Q 275.86 132.73 265.73 132.92
  Q 254.90 133.12 137.56 132.96
  Q 122.48 132.94 116.08 134.49
  C 102.45 137.79 91.44 145.50 83.51 157.02
  Q 79.24 163.23 78.80 164.66
  Q 76.84 170.99 74.25 177.62"
/>
<path stroke="#005d7e" vector-effect="non-scaling-stroke" d="
  M 46.37 210.69
  Q 46.52 221.04 46.55 232.22
  Q 46.56 239.15 47.41 241.53
  C 49.49 247.42 54.26 251.67 60.48 252.06
  A 0.79 0.79 0.0 0 0 61.32 251.27
  L 61.39 195.71"
/>
<path stroke="#167185" vector-effect="non-scaling-stroke" d="
  M 61.39 195.71
  L 61.23 189.55
  A 0.49 0.49 0.0 0 0 60.70 189.07
  Q 56.35 189.34 53.10 192.11
  Q 44.98 199.05 46.37 210.69"
/>
<path stroke="#16afd4" vector-effect="non-scaling-stroke" d="
  M 61.39 195.71
  Q 55.64 196.59 52.52 200.51
  Q 50.06 203.61 46.37 210.69"
/>
<path stroke="#005d7e" vector-effect="non-scaling-stroke" d="
  M 338.33 196.21
  L 338.39 251.60
  A 0.71 0.71 0.0 0 0 339.24 252.30
  Q 348.24 250.55 351.77 243.23
  Q 353.29 240.08 353.47 231.00
  Q 353.72 218.90 353.85 207.32"
/>
<path stroke="#167185" vector-effect="non-scaling-stroke" d="
  M 353.85 207.32
  C 354.12 198.28 348.70 189.19 338.86 189.11
  A 0.53 0.52 0.0 0 0 338.33 189.63
  L 338.33 196.21"
/>
<path stroke="#16afd4" vector-effect="non-scaling-stroke" d="
  M 353.85 207.32
  Q 351.90 205.51 349.83 202.17
  C 347.97 199.18 342.22 195.05 338.33 196.21"
/>
<path stroke="#005d7e" vector-effect="non-scaling-stroke" d="
  M 108.11 453.22
  L 105.15 412.84
  A 1.59 1.58 -78.3 0 0 104.30 411.54
  Q 92.17 405.27 90.64 404.51
  C 86.18 402.32 83.85 399.61 85.69 394.90
  C 87.19 391.08 93.55 391.88 96.37 393.20
  Q 99.91 394.84 102.91 396.51
  A 0.53 0.53 0.0 0 0 103.70 396.00
  Q 102.76 384.42 102.42 376.28
  Q 101.89 363.39 102.42 359.88
  C 103.75 351.25 110.21 344.50 119.00 344.46
  Q 168.84 344.25 273.59 344.37
  C 279.81 344.37 285.20 344.21 289.47 347.82
  Q 292.83 350.66 294.98 355.33
  Q 296.45 358.50 296.48 364.47
  Q 296.57 380.41 295.26 395.71
  A 0.57 0.57 0.0 0 0 296.13 396.23
  C 299.53 394.06 303.39 391.91 307.47 392.08
  Q 312.80 392.31 313.06 397.19
  Q 313.29 401.32 310.30 402.98
  Q 303.98 406.51 294.86 410.89
  A 2.09 2.08 79.5 0 0 293.68 412.62
  L 290.60 454.58
  A 0.23 0.23 0.0 0 0 290.88 454.83
  Q 301.96 452.52 311.37 448.97
  C 353.35 433.15 340.01 385.71 324.37 356.82
  C 316.91 343.04 306.30 331.45 291.80 324.96
  A 5.02 4.99 49.6 0 0 288.47 324.68
  C 279.82 326.95 271.68 327.62 262.06 327.61
  Q 213.50 327.59 135.75 327.63
  Q 121.24 327.64 110.06 324.53
  A 2.59 2.53 45.7 0 0 108.82 324.50
  Q 106.87 324.92 104.38 326.14
  C 89.12 333.60 78.29 347.91 71.07 363.12
  C 60.38 385.62 50.54 418.46 70.85 438.83
  C 79.74 447.75 95.21 451.76 107.53 453.75
  A 0.50 0.50 0.0 0 0 108.11 453.22"
/>
<path stroke="#7a878d" vector-effect="non-scaling-stroke" d="
  M 283.84 365.12
  A 6.77 6.77 0.0 0 0 277.08 357.85
  L 121.60 357.85
  A 6.77 6.77 0.0 0 0 114.85 365.11
  L 121.23 452.33
  A 6.77 6.77 0.0 0 0 127.98 458.61
  L 270.68 458.61
  A 6.77 6.77 0.0 0 0 277.43 452.34
  L 283.84 365.12"
/>
<path stroke="#005d7e" vector-effect="non-scaling-stroke" d="
  M 209.85 547.33
  C 214.24 543.73 216.40 537.55 215.88 532.13
  C 214.98 522.74 208.93 515.62 201.43 510.55
  Q 187.20 500.94 171.65 493.57
  Q 149.79 483.20 127.72 473.25
  Q 113.03 466.62 96.03 463.47
  C 88.17 462.01 80.93 462.02 74.05 465.85
  C 60.65 473.34 55.24 489.83 60.66 504.09
  C 65.90 517.88 77.74 525.92 91.34 530.68
  Q 104.35 535.23 114.11 537.39
  Q 132.84 541.52 155.15 545.11
  C 159.56 545.82 165.08 547.20 169.58 548.59
  C 181.77 552.34 199.00 556.21 209.85 547.33"
/>
<path stroke="#005d7e" vector-effect="non-scaling-stroke" d="
  M 227.14 544.14
  Q 254.28 542.86 280.94 537.67
  Q 293.15 535.29 303.79 532.05
  C 315.13 528.60 325.56 523.41 332.91 513.71
  Q 342.87 500.57 339.01 484.96
  C 336.06 473.01 326.57 464.14 314.35 462.71
  Q 309.47 462.14 299.28 465.05
  Q 269.42 473.59 245.95 482.19
  Q 225.86 489.55 208.15 499.78
  A 0.70 0.70 0.0 0 0 208.11 500.98
  C 220.12 508.82 227.91 519.80 228.20 534.42
  C 228.26 537.36 227.63 539.87 226.60 543.45
  A 0.54 0.54 0.0 0 0 227.14 544.14"
/>
<path stroke="#014a6a" vector-effect="non-scaling-stroke" d="
  M 154.17 472.11
  A 0.25 0.25 0.0 0 0 154.07 472.59
  C 168.62 479.29 181.94 485.26 194.93 492.99
  A 1.77 1.76 -45.6 0 0 196.78 492.97
  Q 207.90 485.92 217.65 481.44
  Q 225.74 477.72 238.64 472.49
  A 0.20 0.20 0.0 0 0 238.57 472.11
  L 154.17 472.11"
/>
<path stroke="#005d7e" vector-effect="non-scaling-stroke" d="
  M 199.60 286.52
  Q 241.25 286.56 247.95 286.53
  Q 265.17 286.46 270.39 285.05
  C 288.20 280.24 301.18 263.18 301.34 244.71
  Q 301.62 211.90 301.39 202.01
  C 300.92 181.66 288.41 165.51 268.12 161.59
  Q 263.94 160.78 258.25 160.83
  Q 251.42 160.88 199.73 160.83
  Q 148.04 160.77 141.21 160.71
  Q 135.52 160.65 131.34 161.45
  C 111.04 165.33 98.50 181.46 97.99 201.81
  Q 97.74 211.70 97.95 244.51
  C 98.07 262.98 111.02 280.06 128.82 284.91
  Q 134.04 286.33 151.25 286.44
  Q 157.96 286.48 199.60 286.52"
/>
<path stroke="#037864" vector-effect="non-scaling-stroke" d="
  M 199.79 273.34
  Q 248.98 273.39 257.73 273.35
  Q 273.58 273.26 282.83 260.55
  C 285.79 256.47 288.18 249.93 288.19 245.00
  Q 288.25 214.81 288.32 211.52
  Q 288.62 198.57 286.89 193.66
  C 283.27 183.36 273.52 175.03 262.25 174.95
  Q 256.05 174.91 199.90 174.84
  Q 143.75 174.78 137.55 174.81
  C 126.28 174.86 116.51 183.17 112.87 193.46
  Q 111.12 198.37 111.39 211.32
  Q 111.46 214.61 111.45 244.80
  C 111.45 249.73 113.82 256.27 116.77 260.36
  Q 125.99 273.09 141.84 273.21
  Q 150.59 273.28 199.79 273.34"
/>
<path stroke="#037864" vector-effect="non-scaling-stroke" d="
  M 167.7606 211.4455
  A 10.91 10.91 0.0 0 0 156.6994 200.6889
  L 153.4197 200.7346
  A 10.91 10.91 0.0 0 0 142.6631 211.7959
  L 142.8594 225.8545
  A 10.91 10.91 0.0 0 0 153.9206 236.6111
  L 157.2003 236.5654
  A 10.91 10.91 0.0 0 0 167.9569 225.5041
  L 167.7606 211.4455"
/>
<path stroke="#037864" vector-effect="non-scaling-stroke" d="
  M 255.7694 211.1535
  A 10.43 10.43 0.0 0 0 245.3941 200.6690
  L 242.0342 200.6515
  A 10.43 10.43 0.0 0 0 231.5497 211.0267
  L 231.4706 226.1265
  A 10.43 10.43 0.0 0 0 241.8459 236.6110
  L 245.2058 236.6285
  A 10.43 10.43 0.0 0 0 255.6903 226.2533
  L 255.7694 211.1535"
/>
<path stroke="#037864" vector-effect="non-scaling-stroke" d="
  M 199.56 264.76
  Q 206.28 264.79 208.33 264.04
  Q 216.42 261.10 221.82 253.72
  Q 223.74 251.12 223.62 249.20
  C 223.37 244.80 219.11 242.67 215.15 244.13
  C 213.51 244.73 210.75 247.82 209.54 249.05
  C 207.05 251.58 203.55 252.49 199.61 252.47
  C 195.67 252.45 192.18 251.51 189.70 248.96
  C 188.51 247.73 185.77 244.61 184.14 244.00
  C 180.19 242.51 175.91 244.60 175.63 249.00
  Q 175.49 250.92 177.39 253.54
  Q 182.73 260.96 190.79 263.97
  Q 192.84 264.73 199.56 264.76"
/>
<path stroke="#7a878d" vector-effect="non-scaling-stroke" d="
  M 162.32 408.74
  C 162.33 412.73 165.00 414.76 168.22 416.34
  A 3.30 3.30 0.0 0 1 170.05 418.92
  C 171.12 428.15 172.29 437.58 182.12 440.81
  C 185.61 441.95 190.05 441.60 191.37 438.02
  C 193.37 432.61 190.02 430.54 185.91 428.47
  A 2.72 2.70 -82.5 0 1 184.46 426.57
  C 183.27 420.38 182.63 414.10 178.65 408.93
  C 178.58 408.84 178.59 408.88 178.59 408.71
  C 178.59 408.55 178.58 408.58 178.65 408.50
  C 182.61 403.31 183.23 397.03 184.40 390.84
  A 2.72 2.70 82.4 0 1 185.85 388.93
  C 189.95 386.85 193.30 384.77 191.28 379.36
  C 189.95 375.79 185.51 375.45 182.02 376.60
  C 172.20 379.86 171.06 389.30 170.02 398.53
  A 3.30 3.30 0.0 0 1 168.20 401.12
  C 164.99 402.71 162.32 404.74 162.32 408.74"
/>
<path stroke="#7a878d" vector-effect="non-scaling-stroke" d="
  M 219.69 409.13
  Q 217.12 413.84 216.83 414.87
  Q 215.62 419.22 214.17 426.61
  A 3.03 3.02 80.3 0 1 212.75 428.63
  C 211.62 429.30 209.78 429.94 208.80 431.23
  C 206.14 434.71 207.55 440.55 212.32 441.40
  Q 214.84 441.85 217.83 440.41
  Q 225.40 436.75 227.38 428.08
  Q 228.58 422.81 229.00 418.33
  A 2.56 2.55 82.5 0 1 230.65 416.17
  Q 236.53 413.97 236.62 408.34
  C 236.67 405.24 234.58 403.29 231.89 401.69
  C 229.98 400.56 229.22 399.65 228.92 397.56
  C 228.22 392.78 227.62 386.03 224.98 382.71
  C 222.29 379.31 215.83 374.51 211.21 376.38
  C 206.98 378.10 206.48 384.09 209.34 387.08
  A 0.77 0.57 2.9 0 0 209.51 387.22
  L 213.14 389.31
  A 2.96 2.94 9.6 0 1 214.55 391.28
  L 216.70 402.00
  A 2.68 2.66 26.3 0 0 216.93 402.67
  L 219.70 408.09
  A 1.12 1.11 -44.7 0 1 219.69 409.13"
/>
</g>
<path fill="#001e2f" d="
  M 328.08 454.15
  C 343.10 462.19 352.20 476.76 351.76 493.86
  C 351.30 511.63 340.54 526.89 325.33 535.34
  C 312.46 542.49 299.11 546.61 284.24 549.78
  Q 264.97 553.90 244.42 555.59
  Q 235.66 556.31 231.94 556.24
  Q 230.77 556.21 219.41 556.19
  A 3.34 3.34 0.0 0 0 217.34 556.91
  Q 209.98 562.74 200.35 563.81
  Q 187.55 565.22 175.26 561.98
  Q 161.04 558.24 150.41 556.61
  Q 129.83 553.45 116.82 550.65
  C 91.17 545.13 57.58 534.60 48.62 506.16
  Q 44.57 493.30 48.25 480.84
  Q 52.32 467.04 63.86 458.19
  Q 66.83 455.91 69.86 454.64
  A 0.99 0.99 0.0 0 0 70.00 452.89
  C 52.43 441.96 44.59 422.61 47.10 402.26
  Q 50.05 378.36 60.11 357.33
  C 67.47 341.96 78.56 327.38 92.90 317.97
  A 1.08 1.08 0.0 0 0 92.87 316.15
  Q 67.99 300.78 62.58 272.54
  C 62.12 270.14 62.31 267.70 61.52 265.54
  A 1.75 1.75 0.0 0 0 60.07 264.40
  Q 43.91 262.65 37.17 248.57
  C 35.38 244.83 34.19 240.16 34.26 235.76
  Q 34.36 229.42 34.23 206.71
  Q 34.19 200.55 35.56 196.58
  Q 39.88 184.09 52.24 178.43
  Q 55.12 177.11 58.90 176.90
  C 62.55 176.70 61.80 175.26 62.18 172.70
  C 66.18 145.99 83.07 125.33 108.46 116.47
  Q 112.97 114.90 120.58 113.80
  Q 125.44 113.10 132.97 113.08
  Q 146.04 113.06 190.97 113.14
  A 1.12 1.12 0.0 0 0 192.09 112.02
  L 192.09 94.72
  A 1.33 1.32 9.6 0 0 191.20 93.47
  C 180.01 89.55 171.61 80.14 169.66 68.20
  Q 168.97 63.96 169.81 58.76
  Q 171.95 45.68 183.46 37.49
  Q 190.55 32.45 198.74 32.33
  Q 218.08 32.04 226.94 48.51
  Q 233.07 59.91 228.77 72.82
  Q 223.82 87.69 209.18 93.14
  A 1.85 1.85 0.0 0 0 207.98 94.87
  L 207.98 112.11
  A 1.05 1.05 0.0 0 0 209.03 113.16
  Q 230.48 113.16 268.00 113.16
  C 279.44 113.16 291.08 115.19 301.30 120.55
  Q 322.06 131.43 332.24 152.83
  C 335.49 159.66 337.33 168.04 338.27 175.56
  A 1.50 1.50 0.0 0 0 339.74 176.88
  L 343.88 176.96
  A 1.62 1.61 53.3 0 1 344.35 177.03
  Q 361.98 182.66 365.79 201.02
  Q 366.48 204.39 366.50 212.01
  Q 366.52 224.86 366.19 235.23
  Q 365.96 242.09 362.43 248.94
  Q 355.19 263.00 339.61 264.45
  A 1.60 1.59 -89.1 0 0 338.18 265.84
  Q 333.98 299.34 305.83 316.67
  A 0.75 0.75 0.0 0 0 305.80 317.93
  Q 320.47 327.95 330.27 342.77
  Q 345.57 365.89 350.21 393.76
  Q 351.28 400.21 351.49 407.56
  Q 351.71 415.30 350.28 421.34
  Q 345.55 441.32 328.03 453.39
  A 0.45 0.45 0.0 0 0 328.08 454.15
  Z
  M 201.9745 44.4177
  A 18.88 18.27 -83.6 0 0 181.7139 61.1435
  A 18.88 18.27 -83.6 0 0 197.7655 81.9423
  A 18.88 18.27 -83.6 0 0 218.0261 65.2165
  A 18.88 18.27 -83.6 0 0 201.9745 44.4177
  Z
  M 74.25 177.62
  Q 73.99 211.58 74.07 245.83
  Q 74.11 267.70 75.01 272.09
  C 78.62 289.71 92.47 305.95 110.10 310.88
  Q 120.56 313.81 132.51 313.81
  Q 171.55 313.80 266.50 313.80
  C 277.38 313.80 289.32 312.08 298.74 306.64
  C 315.73 296.79 325.77 278.69 325.71 259.00
  Q 325.57 217.99 325.92 179.45
  Q 325.93 177.81 325.06 172.19
  C 319.69 144.54 297.10 125.97 268.86 125.85
  Q 187.09 125.52 132.00 125.74
  C 110.56 125.82 91.61 135.99 81.45 154.82
  Q 75.84 165.22 74.25 177.62
  Z
  M 46.37 210.69
  Q 46.52 221.04 46.55 232.22
  Q 46.56 239.15 47.41 241.53
  C 49.49 247.42 54.26 251.67 60.48 252.06
  A 0.79 0.79 0.0 0 0 61.32 251.27
  L 61.39 195.71
  L 61.23 189.55
  A 0.49 0.49 0.0 0 0 60.70 189.07
  Q 56.35 189.34 53.10 192.11
  Q 44.98 199.05 46.37 210.69
  Z
  M 338.33 196.21
  L 338.39 251.60
  A 0.71 0.71 0.0 0 0 339.24 252.30
  Q 348.24 250.55 351.77 243.23
  Q 353.29 240.08 353.47 231.00
  Q 353.72 218.90 353.85 207.32
  C 354.12 198.28 348.70 189.19 338.86 189.11
  A 0.53 0.52 0.0 0 0 338.33 189.63
  L 338.33 196.21
  Z
  M 108.11 453.22
  L 105.15 412.84
  A 1.59 1.58 -78.3 0 0 104.30 411.54
  Q 92.17 405.27 90.64 404.51
  C 86.18 402.32 83.85 399.61 85.69 394.90
  C 87.19 391.08 93.55 391.88 96.37 393.20
  Q 99.91 394.84 102.91 396.51
  A 0.53 0.53 0.0 0 0 103.70 396.00
  Q 102.76 384.42 102.42 376.28
  Q 101.89 363.39 102.42 359.88
  C 103.75 351.25 110.21 344.50 119.00 344.46
  Q 168.84 344.25 273.59 344.37
  C 279.81 344.37 285.20 344.21 289.47 347.82
  Q 292.83 350.66 294.98 355.33
  Q 296.45 358.50 296.48 364.47
  Q 296.57 380.41 295.26 395.71
  A 0.57 0.57 0.0 0 0 296.13 396.23
  C 299.53 394.06 303.39 391.91 307.47 392.08
  Q 312.80 392.31 313.06 397.19
  Q 313.29 401.32 310.30 402.98
  Q 303.98 406.51 294.86 410.89
  A 2.09 2.08 79.5 0 0 293.68 412.62
  L 290.60 454.58
  A 0.23 0.23 0.0 0 0 290.88 454.83
  Q 301.96 452.52 311.37 448.97
  C 353.35 433.15 340.01 385.71 324.37 356.82
  C 316.91 343.04 306.30 331.45 291.80 324.96
  A 5.02 4.99 49.6 0 0 288.47 324.68
  C 279.82 326.95 271.68 327.62 262.06 327.61
  Q 213.50 327.59 135.75 327.63
  Q 121.24 327.64 110.06 324.53
  A 2.59 2.53 45.7 0 0 108.82 324.50
  Q 106.87 324.92 104.38 326.14
  C 89.12 333.60 78.29 347.91 71.07 363.12
  C 60.38 385.62 50.54 418.46 70.85 438.83
  C 79.74 447.75 95.21 451.76 107.53 453.75
  A 0.50 0.50 0.0 0 0 108.11 453.22
  Z
  M 283.84 365.12
  A 6.77 6.77 0.0 0 0 277.08 357.85
  L 121.60 357.85
  A 6.77 6.77 0.0 0 0 114.85 365.11
  L 121.23 452.33
  A 6.77 6.77 0.0 0 0 127.98 458.61
  L 270.68 458.61
  A 6.77 6.77 0.0 0 0 277.43 452.34
  L 283.84 365.12
  Z
  M 209.85 547.33
  C 214.24 543.73 216.40 537.55 215.88 532.13
  C 214.98 522.74 208.93 515.62 201.43 510.55
  Q 187.20 500.94 171.65 493.57
  Q 149.79 483.20 127.72 473.25
  Q 113.03 466.62 96.03 463.47
  C 88.17 462.01 80.93 462.02 74.05 465.85
  C 60.65 473.34 55.24 489.83 60.66 504.09
  C 65.90 517.88 77.74 525.92 91.34 530.68
  Q 104.35 535.23 114.11 537.39
  Q 132.84 541.52 155.15 545.11
  C 159.56 545.82 165.08 547.20 169.58 548.59
  C 181.77 552.34 199.00 556.21 209.85 547.33
  Z
  M 227.14 544.14
  Q 254.28 542.86 280.94 537.67
  Q 293.15 535.29 303.79 532.05
  C 315.13 528.60 325.56 523.41 332.91 513.71
  Q 342.87 500.57 339.01 484.96
  C 336.06 473.01 326.57 464.14 314.35 462.71
  Q 309.47 462.14 299.28 465.05
  Q 269.42 473.59 245.95 482.19
  Q 225.86 489.55 208.15 499.78
  A 0.70 0.70 0.0 0 0 208.11 500.98
  C 220.12 508.82 227.91 519.80 228.20 534.42
  C 228.26 537.36 227.63 539.87 226.60 543.45
  A 0.54 0.54 0.0 0 0 227.14 544.14
  Z
  M 154.17 472.11
  A 0.25 0.25 0.0 0 0 154.07 472.59
  C 168.62 479.29 181.94 485.26 194.93 492.99
  A 1.77 1.76 -45.6 0 0 196.78 492.97
  Q 207.90 485.92 217.65 481.44
  Q 225.74 477.72 238.64 472.49
  A 0.20 0.20 0.0 0 0 238.57 472.11
  L 154.17 472.11
  Z"
/>
<ellipse fill="#009bcc" cx="0.00" cy="0.00" transform="translate(199.87,63.18) rotate(-83.6)" rx="18.88" ry="18.27"/>
<path fill="#2bc3db" d="
  M 325.06 172.19
  L 324.27 172.09
  A 0.80 0.79 86.8 0 1 323.60 171.49
  Q 322.30 165.99 319.67 161.61
  Q 306.58 139.79 282.68 134.30
  Q 275.86 132.73 265.73 132.92
  Q 254.90 133.12 137.56 132.96
  Q 122.48 132.94 116.08 134.49
  C 102.45 137.79 91.44 145.50 83.51 157.02
  Q 79.24 163.23 78.80 164.66
  Q 76.84 170.99 74.25 177.62
  Q 75.84 165.22 81.45 154.82
  C 91.61 135.99 110.56 125.82 132.00 125.74
  Q 187.09 125.52 268.86 125.85
  C 297.10 125.97 319.69 144.54 325.06 172.19
  Z"
/>
<path fill="#009bcc" d="
  M 325.06 172.19
  Q 325.93 177.81 325.92 179.45
  Q 325.57 217.99 325.71 259.00
  C 325.77 278.69 315.73 296.79 298.74 306.64
  C 289.32 312.08 277.38 313.80 266.50 313.80
  Q 171.55 313.80 132.51 313.81
  Q 120.56 313.81 110.10 310.88
  C 92.47 305.95 78.62 289.71 75.01 272.09
  Q 74.11 267.70 74.07 245.83
  Q 73.99 211.58 74.25 177.62
  Q 76.84 170.99 78.80 164.66
  Q 79.24 163.23 83.51 157.02
  C 91.44 145.50 102.45 137.79 116.08 134.49
  Q 122.48 132.94 137.56 132.96
  Q 254.90 133.12 265.73 132.92
  Q 275.86 132.73 282.68 134.30
  Q 306.58 139.79 319.67 161.61
  Q 322.30 165.99 323.60 171.49
  A 0.80 0.79 86.8 0 0 324.27 172.09
  L 325.06 172.19
  Z
  M 199.60 286.52
  Q 241.25 286.56 247.95 286.53
  Q 265.17 286.46 270.39 285.05
  C 288.20 280.24 301.18 263.18 301.34 244.71
  Q 301.62 211.90 301.39 202.01
  C 300.92 181.66 288.41 165.51 268.12 161.59
  Q 263.94 160.78 258.25 160.83
  Q 251.42 160.88 199.73 160.83
  Q 148.04 160.77 141.21 160.71
  Q 135.52 160.65 131.34 161.45
  C 111.04 165.33 98.50 181.46 97.99 201.81
  Q 97.74 211.70 97.95 244.51
  C 98.07 262.98 111.02 280.06 128.82 284.91
  Q 134.04 286.33 151.25 286.44
  Q 157.96 286.48 199.60 286.52
  Z"
/>
<path fill="#001e2f" d="
  M 199.73 160.83
  Q 251.42 160.88 258.25 160.83
  Q 263.94 160.78 268.12 161.59
  C 288.41 165.51 300.92 181.66 301.39 202.01
  Q 301.62 211.90 301.34 244.71
  C 301.18 263.18 288.20 280.24 270.39 285.05
  Q 265.17 286.46 247.95 286.53
  Q 241.25 286.56 199.60 286.52
  Q 157.96 286.48 151.25 286.44
  Q 134.04 286.33 128.82 284.91
  C 111.02 280.06 98.07 262.98 97.95 244.51
  Q 97.74 211.70 97.99 201.81
  C 98.50 181.46 111.04 165.33 131.34 161.45
  Q 135.52 160.65 141.21 160.71
  Q 148.04 160.77 199.73 160.83
  Z
  M 199.79 273.34
  Q 248.98 273.39 257.73 273.35
  Q 273.58 273.26 282.83 260.55
  C 285.79 256.47 288.18 249.93 288.19 245.00
  Q 288.25 214.81 288.32 211.52
  Q 288.62 198.57 286.89 193.66
  C 283.27 183.36 273.52 175.03 262.25 174.95
  Q 256.05 174.91 199.90 174.84
  Q 143.75 174.78 137.55 174.81
  C 126.28 174.86 116.51 183.17 112.87 193.46
  Q 111.12 198.37 111.39 211.32
  Q 111.46 214.61 111.45 244.80
  C 111.45 249.73 113.82 256.27 116.77 260.36
  Q 125.99 273.09 141.84 273.21
  Q 150.59 273.28 199.79 273.34
  Z"
/>
<path fill="#05d299" d="
  M 199.90 174.84
  Q 256.05 174.91 262.25 174.95
  C 273.52 175.03 283.27 183.36 286.89 193.66
  Q 288.62 198.57 288.32 211.52
  Q 288.25 214.81 288.19 245.00
  C 288.18 249.93 285.79 256.47 282.83 260.55
  Q 273.58 273.26 257.73 273.35
  Q 248.98 273.39 199.79 273.34
  Q 150.59 273.28 141.84 273.21
  Q 125.99 273.09 116.77 260.36
  C 113.82 256.27 111.45 249.73 111.45 244.80
  Q 111.46 214.61 111.39 211.32
  Q 111.12 198.37 112.87 193.46
  C 116.51 183.17 126.28 174.86 137.55 174.81
  Q 143.75 174.78 199.90 174.84
  Z
  M 167.7606 211.4455
  A 10.91 10.91 0.0 0 0 156.6994 200.6889
  L 153.4197 200.7346
  A 10.91 10.91 0.0 0 0 142.6631 211.7959
  L 142.8594 225.8545
  A 10.91 10.91 0.0 0 0 153.9206 236.6111
  L 157.2003 236.5654
  A 10.91 10.91 0.0 0 0 167.9569 225.5041
  L 167.7606 211.4455
  Z
  M 255.7694 211.1535
  A 10.43 10.43 0.0 0 0 245.3941 200.6690
  L 242.0342 200.6515
  A 10.43 10.43 0.0 0 0 231.5497 211.0267
  L 231.4706 226.1265
  A 10.43 10.43 0.0 0 0 241.8459 236.6110
  L 245.2058 236.6285
  A 10.43 10.43 0.0 0 0 255.6903 226.2533
  L 255.7694 211.1535
  Z
  M 199.56 264.76
  Q 206.28 264.79 208.33 264.04
  Q 216.42 261.10 221.82 253.72
  Q 223.74 251.12 223.62 249.20
  C 223.37 244.80 219.11 242.67 215.15 244.13
  C 213.51 244.73 210.75 247.82 209.54 249.05
  C 207.05 251.58 203.55 252.49 199.61 252.47
  C 195.67 252.45 192.18 251.51 189.70 248.96
  C 188.51 247.73 185.77 244.61 184.14 244.00
  C 180.19 242.51 175.91 244.60 175.63 249.00
  Q 175.49 250.92 177.39 253.54
  Q 182.73 260.96 190.79 263.97
  Q 192.84 264.73 199.56 264.76
  Z"
/>
<path fill="#2bc3db" d="
  M 61.39 195.71
  Q 55.64 196.59 52.52 200.51
  Q 50.06 203.61 46.37 210.69
  Q 44.98 199.05 53.10 192.11
  Q 56.35 189.34 60.70 189.07
  A 0.49 0.49 0.0 0 1 61.23 189.55
  L 61.39 195.71
  Z"
/>
<path fill="#2bc3db" d="
  M 353.85 207.32
  Q 351.90 205.51 349.83 202.17
  C 347.97 199.18 342.22 195.05 338.33 196.21
  L 338.33 189.63
  A 0.53 0.52 0.0 0 1 338.86 189.11
  C 348.70 189.19 354.12 198.28 353.85 207.32
  Z"
/>
<path fill="#009bcc" d="
  M 46.37 210.69
  Q 50.06 203.61 52.52 200.51
  Q 55.64 196.59 61.39 195.71
  L 61.32 251.27
  A 0.79 0.79 0.0 0 1 60.48 252.06
  C 54.26 251.67 49.49 247.42 47.41 241.53
  Q 46.56 239.15 46.55 232.22
  Q 46.52 221.04 46.37 210.69
  Z"
/>
<path fill="#009bcc" d="
  M 353.85 207.32
  Q 353.72 218.90 353.47 231.00
  Q 353.29 240.08 351.77 243.23
  Q 348.24 250.55 339.24 252.30
  A 0.71 0.71 0.0 0 1 338.39 251.60
  L 338.33 196.21
  C 342.22 195.05 347.97 199.18 349.83 202.17
  Q 351.90 205.51 353.85 207.32
  Z"
/>
<rect fill="#001e2f" x="-12.55" y="-17.94" transform="translate(155.31,218.65) rotate(-0.8)" width="25.10" height="35.88" rx="10.91"/>
<rect fill="#001e2f" x="-12.11" y="-17.98" transform="translate(243.62,218.64) rotate(0.3)" width="24.22" height="35.96" rx="10.43"/>
<path fill="#001e2f" d="
  M 199.61 252.47
  C 203.55 252.49 207.05 251.58 209.54 249.05
  C 210.75 247.82 213.51 244.73 215.15 244.13
  C 219.11 242.67 223.37 244.80 223.62 249.20
  Q 223.74 251.12 221.82 253.72
  Q 216.42 261.10 208.33 264.04
  Q 206.28 264.79 199.56 264.76
  Q 192.84 264.73 190.79 263.97
  Q 182.73 260.96 177.39 253.54
  Q 175.49 250.92 175.63 249.00
  C 175.91 244.60 180.19 242.51 184.14 244.00
  C 185.77 244.61 188.51 247.73 189.70 248.96
  C 192.18 251.51 195.67 252.45 199.61 252.47
  Z"
/>
<path fill="#009bcc" d="
  M 107.53 453.75
  C 95.21 451.76 79.74 447.75 70.85 438.83
  C 50.54 418.46 60.38 385.62 71.07 363.12
  C 78.29 347.91 89.12 333.60 104.38 326.14
  Q 106.87 324.92 108.82 324.50
  A 2.59 2.53 45.7 0 1 110.06 324.53
  Q 121.24 327.64 135.75 327.63
  Q 213.50 327.59 262.06 327.61
  C 271.68 327.62 279.82 326.95 288.47 324.68
  A 5.02 4.99 49.6 0 1 291.80 324.96
  C 306.30 331.45 316.91 343.04 324.37 356.82
  C 340.01 385.71 353.35 433.15 311.37 448.97
  Q 301.96 452.52 290.88 454.83
  A 0.23 0.23 0.0 0 1 290.60 454.58
  L 293.68 412.62
  A 2.09 2.08 79.5 0 1 294.86 410.89
  Q 303.98 406.51 310.30 402.98
  Q 313.29 401.32 313.06 397.19
  Q 312.80 392.31 307.47 392.08
  C 303.39 391.91 299.53 394.06 296.13 396.23
  A 0.57 0.57 0.0 0 1 295.26 395.71
  Q 296.57 380.41 296.48 364.47
  Q 296.45 358.50 294.98 355.33
  Q 292.83 350.66 289.47 347.82
  C 285.20 344.21 279.81 344.37 273.59 344.37
  Q 168.84 344.25 119.00 344.46
  C 110.21 344.50 103.75 351.25 102.42 359.88
  Q 101.89 363.39 102.42 376.28
  Q 102.76 384.42 103.70 396.00
  A 0.53 0.53 0.0 0 1 102.91 396.51
  Q 99.91 394.84 96.37 393.20
  C 93.55 391.88 87.19 391.08 85.69 394.90
  C 83.85 399.61 86.18 402.32 90.64 404.51
  Q 92.17 405.27 104.30 411.54
  A 1.59 1.58 -78.3 0 1 105.15 412.84
  L 108.11 453.22
  A 0.50 0.50 0.0 0 1 107.53 453.75
  Z"
/>
<path fill="#f3f0eb" d="
  M 283.84 365.12
  L 277.43 452.34
  A 6.77 6.77 0.0 0 1 270.68 458.61
  L 127.98 458.61
  A 6.77 6.77 0.0 0 1 121.23 452.33
  L 114.85 365.11
  A 6.77 6.77 0.0 0 1 121.60 357.85
  L 277.08 357.85
  A 6.77 6.77 0.0 0 1 283.84 365.12
  Z
  M 162.32 408.74
  C 162.33 412.73 165.00 414.76 168.22 416.34
  A 3.30 3.30 0.0 0 1 170.05 418.92
  C 171.12 428.15 172.29 437.58 182.12 440.81
  C 185.61 441.95 190.05 441.60 191.37 438.02
  C 193.37 432.61 190.02 430.54 185.91 428.47
  A 2.72 2.70 -82.5 0 1 184.46 426.57
  C 183.27 420.38 182.63 414.10 178.65 408.93
  C 178.58 408.84 178.59 408.88 178.59 408.71
  C 178.59 408.55 178.58 408.58 178.65 408.50
  C 182.61 403.31 183.23 397.03 184.40 390.84
  A 2.72 2.70 82.4 0 1 185.85 388.93
  C 189.95 386.85 193.30 384.77 191.28 379.36
  C 189.95 375.79 185.51 375.45 182.02 376.60
  C 172.20 379.86 171.06 389.30 170.02 398.53
  A 3.30 3.30 0.0 0 1 168.20 401.12
  C 164.99 402.71 162.32 404.74 162.32 408.74
  Z
  M 219.69 409.13
  Q 217.12 413.84 216.83 414.87
  Q 215.62 419.22 214.17 426.61
  A 3.03 3.02 80.3 0 1 212.75 428.63
  C 211.62 429.30 209.78 429.94 208.80 431.23
  C 206.14 434.71 207.55 440.55 212.32 441.40
  Q 214.84 441.85 217.83 440.41
  Q 225.40 436.75 227.38 428.08
  Q 228.58 422.81 229.00 418.33
  A 2.56 2.55 82.5 0 1 230.65 416.17
  Q 236.53 413.97 236.62 408.34
  C 236.67 405.24 234.58 403.29 231.89 401.69
  C 229.98 400.56 229.22 399.65 228.92 397.56
  C 228.22 392.78 227.62 386.03 224.98 382.71
  C 222.29 379.31 215.83 374.51 211.21 376.38
  C 206.98 378.10 206.48 384.09 209.34 387.08
  A 0.77 0.57 2.9 0 0 209.51 387.22
  L 213.14 389.31
  A 2.96 2.94 9.6 0 1 214.55 391.28
  L 216.70 402.00
  A 2.68 2.66 26.3 0 0 216.93 402.67
  L 219.70 408.09
  A 1.12 1.11 -44.7 0 1 219.69 409.13
  Z"
/>
<path fill="#001e2f" d="
  M 178.59 408.71
  C 178.59 408.88 178.58 408.84 178.65 408.93
  C 182.63 414.10 183.27 420.38 184.46 426.57
  A 2.72 2.70 -82.5 0 0 185.91 428.47
  C 190.02 430.54 193.37 432.61 191.37 438.02
  C 190.05 441.60 185.61 441.95 182.12 440.81
  C 172.29 437.58 171.12 428.15 170.05 418.92
  A 3.30 3.30 0.0 0 0 168.22 416.34
  C 165.00 414.76 162.33 412.73 162.32 408.74
  C 162.32 404.74 164.99 402.71 168.20 401.12
  A 3.30 3.30 0.0 0 0 170.02 398.53
  C 171.06 389.30 172.20 379.86 182.02 376.60
  C 185.51 375.45 189.95 375.79 191.28 379.36
  C 193.30 384.77 189.95 386.85 185.85 388.93
  A 2.72 2.70 82.4 0 0 184.40 390.84
  C 183.23 397.03 182.61 403.31 178.65 408.50
  C 178.58 408.58 178.59 408.55 178.59 408.71
  Z"
/>
<path fill="#001e2f" d="
  M 219.70 408.09
  L 216.93 402.67
  A 2.68 2.66 26.3 0 1 216.70 402.00
  L 214.55 391.28
  A 2.96 2.94 9.6 0 0 213.14 389.31
  L 209.51 387.22
  A 0.77 0.57 2.9 0 1 209.34 387.08
  C 206.48 384.09 206.98 378.10 211.21 376.38
  C 215.83 374.51 222.29 379.31 224.98 382.71
  C 227.62 386.03 228.22 392.78 228.92 397.56
  C 229.22 399.65 229.98 400.56 231.89 401.69
  C 234.58 403.29 236.67 405.24 236.62 408.34
  Q 236.53 413.97 230.65 416.17
  A 2.56 2.55 82.5 0 0 229.00 418.33
  Q 228.58 422.81 227.38 428.08
  Q 225.40 436.75 217.83 440.41
  Q 214.84 441.85 212.32 441.40
  C 207.55 440.55 206.14 434.71 208.80 431.23
  C 209.78 429.94 211.62 429.30 212.75 428.63
  A 3.03 3.02 80.3 0 0 214.17 426.61
  Q 215.62 419.22 216.83 414.87
  Q 217.12 413.84 219.69 409.13
  A 1.12 1.11 -44.7 0 0 219.70 408.09
  Z"
/>
<path fill="#009bcc" d="
  M 209.85 547.33
  C 199.00 556.21 181.77 552.34 169.58 548.59
  C 165.08 547.20 159.56 545.82 155.15 545.11
  Q 132.84 541.52 114.11 537.39
  Q 104.35 535.23 91.34 530.68
  C 77.74 525.92 65.90 517.88 60.66 504.09
  C 55.24 489.83 60.65 473.34 74.05 465.85
  C 80.93 462.02 88.17 462.01 96.03 463.47
  Q 113.03 466.62 127.72 473.25
  Q 149.79 483.20 171.65 493.57
  Q 187.20 500.94 201.43 510.55
  C 208.93 515.62 214.98 522.74 215.88 532.13
  C 216.40 537.55 214.24 543.73 209.85 547.33
  Z"
/>
<path fill="#009bcc" d="
  M 226.60 543.45
  C 227.63 539.87 228.26 537.36 228.20 534.42
  C 227.91 519.80 220.12 508.82 208.11 500.98
  A 0.70 0.70 0.0 0 1 208.15 499.78
  Q 225.86 489.55 245.95 482.19
  Q 269.42 473.59 299.28 465.05
  Q 309.47 462.14 314.35 462.71
  C 326.57 464.14 336.06 473.01 339.01 484.96
  Q 342.87 500.57 332.91 513.71
  C 325.56 523.41 315.13 528.60 303.79 532.05
  Q 293.15 535.29 280.94 537.67
  Q 254.28 542.86 227.14 544.14
  A 0.54 0.54 0.0 0 1 226.60 543.45
  Z"
/>
<path fill="#0176a5" d="
  M 154.17 472.11
  L 238.57 472.11
  A 0.20 0.20 0.0 0 1 238.64 472.49
  Q 225.74 477.72 217.65 481.44
  Q 207.90 485.92 196.78 492.97
  A 1.77 1.76 -45.6 0 1 194.93 492.99
  C 181.94 485.26 168.62 479.29 154.07 472.59
  A 0.25 0.25 0.0 0 1 154.17 472.11
  Z"
/>
</svg>
