<?xml version="1.0" encoding="UTF-8" standalone="no"?>
<!DOCTYPE svg PUBLIC "-//W3C//DTD SVG 1.0//EN" "http://www.w3.org/TR/2001/REC-SVG-20010904/DTD/svg10.dtd">
<svg xmlns="http://www.w3.org/2000/svg" version="1.0" viewBox="0.00 0.00 408.00 612.00">
<g stroke-width="2.00" fill="none" stroke-linecap="butt">
<path stroke="#034f73" vector-effect="non-scaling-stroke" d="
  M 196.4403 46.6721
  A 17.58 17.34 -49.1 0 0 171.8235 48.6068
  A 17.58 17.34 -49.1 0 0 173.4197 73.2479
  A 17.58 17.34 -49.1 0 0 198.0365 71.3132
  A 17.58 17.34 -49.1 0 0 196.4403 46.6721"
/>
<path stroke="#034f73" vector-effect="non-scaling-stroke" d="
  M 74.62 151.56
  Q 66.86 165.97 67.80 181.01
  Q 69.48 207.90 72.24 238.38
  A 1.92 1.92 0.0 0 0 73.18 239.86
  C 85.20 246.90 87.27 260.63 84.14 273.20
  Q 83.73 274.88 82.67 278.66
  A 1.97 1.96 41.1 0 0 82.76 279.95
  Q 83.17 280.90 84.17 282.32
  Q 93.62 295.66 105.81 304.92
  Q 119.70 315.47 137.25 314.25
  Q 193.14 310.40 259.03 305.43
  C 262.89 305.14 270.32 304.76 275.27 303.43
  C 301.25 296.50 320.39 271.07 318.84 244.00
  Q 316.63 205.36 313.43 161.55
  Q 313.12 157.34 311.31 151.80"
/>
<path stroke="#185a79" vector-effect="non-scaling-stroke" d="
  M 311.31 151.80
  C 305.05 131.18 288.58 116.14 267.26 112.47
  C 259.90 111.20 252.78 111.97 244.08 112.64
  Q 183.94 117.23 127.24 121.65
  Q 115.78 122.54 112.54 123.25
  Q 87.30 128.83 74.62 151.56"
/>
<path stroke="#1a95c7" vector-effect="non-scaling-stroke" d="
  M 311.31 151.80
  Q 303.80 144.65 297.57 136.62
  A 3.82 3.58 1.5 0 0 296.90 135.96
  Q 288.68 129.69 285.80 127.91
  C 278.13 123.16 268.57 119.77 259.25 119.57
  Q 258.66 119.56 245.26 120.57
  Q 209.04 123.29 173.35 125.92
  Q 152.03 127.49 126.78 129.76
  C 121.26 130.26 111.30 131.00 104.95 133.63
  Q 97.56 136.68 89.80 141.52
  C 84.45 144.87 80.97 150.30 74.62 151.56"
/>
<path stroke="#034f73" vector-effect="non-scaling-stroke" d="
  M 329.12 222.00
  Q 333.40 218.97 339.40 218.36
  A 1.01 1.00 -81.6 0 0 340.23 217.74
  Q 341.52 214.66 341.54 211.48
  Q 341.58 206.06 340.40 191.21
  Q 339.94 185.51 338.90 183.46
  C 336.48 178.71 331.56 175.36 326.19 175.67
  A 0.95 0.95 0.0 0 0 325.29 176.69
  L 328.45 221.68
  A 0.43 0.42 70.5 0 0 329.12 222.00"
/>
<path stroke="#034f73" vector-effect="non-scaling-stroke" d="
  M 60.88 234.03
  L 58.40 198.83
  A 0.74 0.74 0.0 0 0 57.42 198.18
  Q 48.20 201.39 46.67 210.10
  A 3.52 3.41 49.2 0 0 46.62 210.97
  L 47.68 227.38
  A 0.89 0.88 4.3 0 0 48.38 228.19
  Q 54.92 229.57 60.29 234.32
  A 0.36 0.35 18.7 0 0 60.88 234.03"
/>
<path stroke="#185a79" vector-effect="non-scaling-stroke" d="
  M 336.02 271.46
  Q 332.58 270.74 330.41 267.65
  A 0.70 0.70 0.0 0 0 329.21 267.74
  Q 318.79 288.35 302.57 304.62
  C 298.33 308.88 292.53 313.40 287.73 317.51
  A 1.26 1.25 52.8 0 0 287.51 319.15
  L 289.25 321.79"
/>
<path stroke="#034f73" vector-effect="non-scaling-stroke" d="
  M 289.25 321.79
  Q 297.47 334.34 300.77 348.75
  A 0.63 0.62 -21.1 0 0 301.69 349.15
  C 329.78 333.26 351.34 306.35 363.47 276.72
  A 5.03 5.01 -4.5 0 1 365.53 274.32
  C 379.50 265.91 387.80 247.84 381.95 231.76
  C 378.86 223.24 370.52 216.27 361.21 216.76
  Q 354.27 217.12 350.16 222.95
  A 0.54 0.54 0.0 0 0 350.19 223.61
  Q 358.03 233.00 357.02 245.23
  Q 356.62 250.02 352.45 250.86
  Q 349.23 251.51 347.32 248.60
  Q 346.45 247.28 346.69 243.29
  C 346.94 239.12 346.30 235.82 344.01 232.80
  Q 342.00 230.16 339.29 230.12
  C 334.83 230.06 332.30 235.82 331.82 239.50
  Q 330.43 250.21 335.73 258.31
  A 7.16 6.86 -87.2 0 0 336.98 259.75
  C 338.52 261.08 342.45 263.26 341.73 266.51
  Q 340.77 270.85 336.02 271.46"
/>
<path stroke="#1a95c7" vector-effect="non-scaling-stroke" d="
  M 289.25 321.79
  Q 292.95 319.90 297.27 316.51
  Q 308.48 307.75 316.45 297.23
  Q 323.83 287.51 330.57 277.33
  Q 332.44 274.51 336.02 271.46"
/>
<path stroke="#034f73" vector-effect="non-scaling-stroke" d="
  M 111.16 360.35
  Q 113.34 345.53 119.94 332.46
  A 1.64 1.62 -59.6 0 0 119.41 330.38
  Q 115.05 327.38 110.49 324.24
  Q 90.41 310.38 75.86 290.98
  A 1.00 1.00 0.0 0 0 74.56 290.71
  C 72.76 291.73 70.23 292.76 68.24 291.49
  C 65.93 290.02 63.52 286.32 65.90 283.90
  Q 76.71 272.89 73.40 257.01
  C 72.59 253.11 68.97 248.78 64.51 252.07
  C 59.11 256.07 59.20 262.67 60.11 268.88
  A 2.15 2.12 -44.6 0 1 60.10 269.62
  C 58.92 275.69 51.71 275.46 49.99 269.72
  C 47.81 262.47 50.97 254.94 55.61 248.99
  A 1.11 1.11 0.0 0 0 55.72 247.78
  Q 52.56 241.73 45.84 240.27
  Q 38.87 238.76 33.66 241.27
  Q 19.51 248.07 19.41 264.49
  C 19.35 273.44 23.87 284.29 31.81 290.11
  Q 35.26 292.64 36.93 293.75
  A 8.27 8.26 2.8 0 1 39.64 296.73
  C 41.75 300.72 43.86 304.85 46.53 308.72
  C 61.93 331.09 84.52 351.36 110.08 360.99
  A 0.81 0.80 14.3 0 0 111.16 360.35"
/>
<path stroke="#034f73" vector-effect="non-scaling-stroke" d="
  M 166.02 492.80
  C 163.48 495.52 160.44 499.32 156.61 497.05
  C 152.86 494.83 153.61 491.11 156.34 488.19
  C 161.32 482.86 164.61 476.40 168.89 469.93
  Q 171.83 465.50 176.30 466.46
  Q 203.06 472.23 229.97 467.13
  Q 232.97 466.56 234.03 466.98
  C 236.57 467.97 237.61 470.87 236.48 473.43
  C 235.41 475.83 234.18 477.98 233.40 480.66
  Q 230.40 490.95 228.49 495.50
  Q 226.28 500.74 224.53 502.29
  Q 217.64 508.39 215.62 515.60
  C 212.64 526.26 213.72 542.31 223.64 549.19
  Q 229.29 553.11 235.88 551.86
  C 242.95 550.51 247.77 543.33 249.39 536.42
  Q 250.72 530.71 251.15 529.79
  A 3.23 3.20 -6.1 0 1 252.13 528.59
  Q 258.77 523.58 262.72 516.91
  C 273.87 498.13 280.07 475.28 285.88 453.17
  Q 290.63 435.10 292.30 422.75
  Q 296.32 393.24 291.86 361.95
  Q 288.80 340.46 278.54 325.50
  Q 276.72 322.84 275.72 321.80
  C 272.65 318.60 271.85 317.78 267.56 318.08
  Q 192.24 323.38 138.44 326.97
  A 3.49 3.46 -69.0 0 0 136.21 327.97
  C 129.12 335.05 124.71 347.95 122.98 357.99
  Q 115.36 402.05 124.52 444.71
  Q 125.17 447.76 124.33 449.61
  C 119.71 459.84 115.45 469.64 115.37 481.49
  C 115.26 497.41 124.08 506.43 138.25 512.01
  A 1.52 1.51 16.1 0 1 139.19 513.71
  C 137.93 520.32 139.77 529.29 146.90 531.87
  C 153.68 534.33 160.02 530.85 164.43 525.46
  C 171.72 516.55 176.68 501.68 166.98 492.77
  A 0.69 0.68 42.9 0 0 166.02 492.80"
/>
<path stroke="#7f6528" vector-effect="non-scaling-stroke" d="
  M 326.17 52.06
  Q 324.50 56.70 324.29 57.35
  Q 319.03 73.29 302.67 76.97
  A 0.27 0.26 -45.2 0 0 302.67 77.49
  C 316.35 80.24 323.70 89.80 326.60 103.01
  A 0.17 0.17 0.0 0 0 326.93 102.99
  Q 329.80 82.46 349.53 77.47
  A 0.28 0.28 0.0 0 0 349.51 76.92
  C 336.92 74.64 329.33 64.55 326.56 52.09
  A 0.20 0.20 0.0 0 0 326.17 52.06"
/>
<path stroke="#7f6528" vector-effect="non-scaling-stroke" d="
  M 70.41 99.07
  Q 70.62 99.07 70.69 98.70
  Q 73.28 84.29 87.12 80.71
  A 0.29 0.28 -45.4 0 0 87.12 80.16
  C 77.74 77.98 71.92 69.94 70.73 60.67
  Q 70.72 60.56 70.50 60.56
  Q 70.28 60.56 70.27 60.67
  C 69.03 69.93 63.18 77.95 53.79 80.08
  A 0.29 0.28 45.7 0 0 53.79 80.63
  Q 67.61 84.28 70.14 98.70
  Q 70.20 99.07 70.41 99.07"
/>
<path stroke="#034f73" vector-effect="non-scaling-stroke" d="
  M 294.55 251.33
  Q 298.35 242.38 297.61 230.81
  Q 296.03 206.30 294.32 182.74
  Q 293.02 164.76 281.33 154.13
  C 273.37 146.88 263.28 143.07 252.75 143.83
  Q 229.66 145.48 130.44 153.15
  C 121.95 153.81 115.37 155.24 108.82 159.60
  Q 93.90 169.53 90.62 186.41
  Q 89.30 193.24 90.83 208.62
  Q 91.56 215.98 93.01 237.02
  Q 94.09 252.90 96.42 258.78
  C 103.39 276.40 119.99 287.19 138.62 285.87
  Q 227.83 279.56 244.91 278.38
  Q 261.73 277.22 264.53 276.53
  C 277.89 273.25 289.14 264.05 294.55 251.33"
/>
<path stroke="#03705e" vector-effect="non-scaling-stroke" d="
  M 122.27 170.33
  C 113.32 173.85 106.98 180.98 105.16 190.28
  Q 104.50 193.63 105.50 207.27
  Q 107.70 237.26 107.86 240.32
  Q 108.27 248.04 109.70 251.80
  C 113.13 260.77 120.36 267.45 129.46 269.92
  Q 133.71 271.07 143.61 270.35
  Q 235.59 263.68 252.49 262.74
  Q 259.51 262.35 263.42 261.16
  C 272.82 258.31 280.72 249.83 282.60 240.10
  Q 283.44 235.74 282.66 226.39
  Q 280.94 205.58 280.19 192.12
  Q 279.49 179.41 277.39 174.65
  Q 273.75 166.42 265.43 161.82
  C 261.28 159.53 256.89 159.05 252.18 159.37
  C 218.38 161.67 172.27 164.69 132.42 168.42
  Q 125.47 169.08 122.27 170.33"
/>
<path stroke="#03705e" vector-effect="non-scaling-stroke" d="
  M 241.57 198.97
  Q 243.55 198.89 245.51 200.20
  C 249.35 202.79 247.32 208.81 252.16 210.58
  C 255.11 211.65 258.94 209.62 258.98 206.37
  C 259.10 196.06 252.21 186.24 241.06 186.71
  C 229.91 187.17 223.86 197.53 224.83 207.79
  C 225.14 211.02 229.13 212.74 231.98 211.42
  C 236.66 209.25 234.13 203.42 237.75 200.53
  Q 239.59 199.06 241.57 198.97"
/>
<path stroke="#03705e" vector-effect="non-scaling-stroke" d="
  M 150.46 205.72
  Q 152.46 205.55 154.50 206.80
  C 158.49 209.26 156.68 215.44 161.65 217.03
  C 164.68 218.00 168.48 215.78 168.39 212.49
  C 168.08 202.06 160.71 192.40 149.44 193.32
  C 138.17 194.25 132.47 204.98 133.88 215.33
  C 134.32 218.59 138.43 220.16 141.27 218.71
  C 145.91 216.33 143.11 210.52 146.65 207.45
  Q 148.46 205.88 150.46 205.72"
/>
<path stroke="#03705e" vector-effect="non-scaling-stroke" d="
  M 199.13 236.88
  Q 192.78 237.28 187.63 234.17
  C 185.98 233.17 184.06 230.63 181.92 229.94
  C 178.29 228.77 173.40 229.62 172.10 233.50
  C 170.84 237.25 172.75 240.73 175.38 243.38
  C 181.87 249.96 190.77 253.17 200.10 252.59
  C 209.43 252.01 217.87 247.72 223.50 240.39
  C 225.77 237.44 227.24 233.75 225.52 230.18
  C 223.75 226.49 218.80 226.26 215.34 227.87
  C 213.30 228.81 211.71 231.57 210.19 232.77
  Q 205.47 236.49 199.13 236.88"
/>
<path stroke="#034f73" vector-effect="non-scaling-stroke" d="
  M 272.51 360.31
  A 22.45 22.45 0.0 0 0 250.06 337.86
  L 164.38 337.86
  A 22.45 22.45 0.0 0 0 141.93 360.31
  L 141.93 420.99
  A 22.45 22.45 0.0 0 0 164.38 443.44
  L 250.06 443.44
  A 22.45 22.45 0.0 0 0 272.51 420.99
  L 272.51 360.31"
/>
<path stroke="#7b848b" vector-effect="non-scaling-stroke" d="
  M 258.30 359.99
  A 7.78 7.78 0.0 0 0 250.52 352.21
  L 163.98 352.21
  A 7.78 7.78 0.0 0 0 156.20 359.99
  L 156.20 421.31
  A 7.78 7.78 0.0 0 0 163.98 429.09
  L 250.52 429.09
  A 7.78 7.78 0.0 0 0 258.30 421.31
  L 258.30 359.99"
/>
<path stroke="#7b848b" vector-effect="non-scaling-stroke" d="
  M 189.15 391.05
  Q 189.15 391.04 189.15 391.03
  A 0.18 0.02 -58.7 0 1 189.17 391.00
  Q 192.42 387.86 193.08 383.84
  Q 194.16 377.30 194.34 376.81
  A 2.04 2.02 -5.3 0 1 195.19 375.80
  Q 197.64 374.36 197.87 374.10
  C 202.37 369.03 198.20 362.19 191.74 363.59
  C 182.83 365.50 181.99 373.78 180.73 381.34
  A 3.99 3.99 0.0 0 1 178.32 384.39
  Q 173.29 386.50 173.29 391.07
  Q 173.30 395.65 178.34 397.74
  A 3.99 3.99 0.0 0 1 180.76 400.78
  C 182.04 408.34 182.90 416.62 191.82 418.50
  C 198.28 419.88 202.43 413.04 197.92 407.98
  Q 197.69 407.72 195.23 406.29
  A 2.04 2.02 5.1 0 1 194.38 405.28
  Q 194.20 404.79 193.10 398.25
  Q 192.43 394.23 189.17 391.11
  A 0.18 0.02 58.5 0 1 189.15 391.07
  Q 189.15 391.06 189.15 391.05"
/>
<path stroke="#7b848b" vector-effect="non-scaling-stroke" d="
  M 225.48 391.09
  Q 225.48 391.10 225.48 391.11
  A 0.18 0.02 -58.6 0 1 225.46 391.15
  Q 222.21 394.27 221.54 398.28
  Q 220.45 404.81 220.27 405.30
  A 2.04 2.02 -5.1 0 1 219.42 406.31
  Q 216.97 407.74 216.74 408.00
  C 212.24 413.05 216.39 419.88 222.84 418.50
  C 231.74 416.61 232.59 408.35 233.86 400.80
  A 3.99 3.99 0.0 0 1 236.27 397.76
  Q 241.30 395.67 241.31 391.10
  Q 241.31 386.54 236.28 384.44
  A 3.99 3.99 0.0 0 1 233.87 381.40
  C 232.61 373.85 231.77 365.59 222.87 363.69
  C 216.42 362.30 212.27 369.12 216.76 374.18
  Q 216.99 374.44 219.44 375.87
  A 2.04 2.02 5.2 0 1 220.29 376.88
  Q 220.47 377.37 221.55 383.91
  Q 222.21 387.92 225.46 391.04
  A 0.18 0.02 58.6 0 1 225.48 391.08
  Q 225.48 391.09 225.48 391.09"
/>
</g>
<path fill="#011424" d="
  M 179.95 32.87
  Q 189.86 31.85 197.17 35.45
  C 206.47 40.04 212.32 50.02 211.87 60.39
  C 211.41 70.96 205.71 79.38 196.31 83.99
  A 3.04 3.03 -15.1 0 0 194.62 86.92
  L 195.72 102.58
  A 1.28 1.28 0.0 0 0 197.02 103.76
  L 205.44 103.58
  A 3.26 1.69 -23.2 0 0 205.85 103.54
  C 209.73 102.86 213.08 102.92 216.28 102.58
  Q 228.37 101.32 256.48 99.87
  Q 277.90 98.76 294.88 110.60
  C 308.36 120.00 318.75 134.83 322.22 151.27
  Q 322.55 152.85 324.38 163.54
  A 0.78 0.78 0.0 0 0 324.95 164.17
  Q 325.94 164.43 328.32 164.94
  Q 345.84 168.70 350.08 185.83
  Q 350.68 188.26 350.64 189.79
  C 350.54 193.15 351.31 195.49 351.36 198.88
  C 351.41 201.94 351.61 203.78 351.61 205.26
  Q 351.61 206.86 352.58 207.28
  Q 353.11 207.51 354.83 207.03
  Q 359.55 205.72 360.75 205.73
  C 379.65 205.92 391.44 220.05 394.72 237.71
  Q 395.64 242.68 394.62 248.25
  Q 393.38 255.05 391.94 258.66
  Q 387.90 268.72 379.00 277.64
  Q 377.56 279.09 375.55 280.42
  C 371.30 283.24 371.42 286.45 369.44 290.47
  Q 363.35 302.83 359.49 308.26
  Q 353.91 316.11 351.01 320.00
  Q 338.12 337.32 318.96 350.95
  Q 311.51 356.26 304.40 359.58
  A 1.40 1.39 79.2 0 0 303.62 360.73
  Q 303.39 364.31 303.80 367.26
  C 304.56 372.75 304.32 377.83 304.77 383.25
  Q 305.23 388.71 305.09 392.77
  Q 304.70 403.76 304.12 410.77
  Q 303.27 421.14 303.08 422.69
  Q 301.50 435.33 298.47 446.78
  Q 296.60 453.82 295.59 458.17
  Q 294.00 464.95 286.57 490.32
  Q 281.89 506.34 273.23 520.49
  Q 268.55 528.15 262.83 533.57
  Q 260.85 535.45 260.54 537.47
  C 260.28 539.19 259.67 540.27 259.14 541.85
  Q 256.62 549.45 251.02 555.26
  Q 242.76 563.82 230.76 563.12
  C 218.10 562.39 209.85 553.70 205.83 541.87
  Q 201.60 529.39 204.46 515.96
  Q 207.27 502.75 217.07 493.46
  A 2.97 2.94 84.0 0 0 217.64 492.75
  Q 220.32 488.14 221.69 481.30
  A 1.21 1.20 -74.5 0 0 220.92 479.92
  Q 220.31 479.70 219.48 479.75
  Q 205.44 480.52 189.25 479.43
  Q 185.12 479.15 179.61 478.09
  C 176.05 477.41 174.24 479.91 174.60 483.28
  A 2.26 2.24 20.2 0 0 175.22 484.61
  Q 184.63 494.19 183.15 508.21
  C 181.56 523.23 172.98 536.71 158.59 542.25
  C 153.06 544.39 145.50 543.64 140.18 540.57
  Q 132.00 535.87 128.90 526.43
  C 128.33 524.71 128.08 522.24 127.52 520.09
  A 1.48 1.47 -80.2 0 0 126.93 519.25
  C 123.25 516.83 120.01 514.65 117.37 512.13
  Q 103.08 498.47 104.51 477.48
  Q 105.17 467.70 108.87 458.37
  Q 110.72 453.71 112.76 447.90
  A 7.81 7.79 -40.4 0 0 113.08 444.02
  C 109.86 425.18 107.67 405.11 108.74 387.00
  Q 109.41 375.82 109.40 373.42
  A 1.01 1.00 -76.1 0 0 108.89 372.56
  Q 107.13 371.55 105.50 371.23
  A 3.21 3.12 -20.4 0 1 105.07 371.10
  C 85.15 363.12 68.01 350.25 53.14 334.61
  Q 39.72 320.50 31.26 303.49
  A 4.16 4.10 2.7 0 0 29.71 301.81
  C 18.52 294.97 10.53 283.53 9.11 270.22
  C 7.69 256.82 11.07 243.84 21.49 235.64
  Q 28.03 230.49 36.51 229.26
  A 1.32 1.31 -4.3 0 0 37.63 227.96
  C 37.61 220.62 35.68 213.07 37.73 205.86
  Q 40.68 195.48 50.20 189.70
  C 51.89 188.68 54.27 187.94 56.24 186.84
  A 2.17 2.14 76.1 0 0 57.34 184.99
  C 57.43 177.52 56.69 170.98 58.34 164.01
  Q 60.42 155.29 64.68 146.91
  Q 70.07 136.34 79.39 127.41
  Q 92.16 115.16 109.47 111.73
  Q 120.20 109.60 137.64 108.56
  Q 140.54 108.38 144.84 107.87
  C 148.17 107.47 151.86 107.74 155.42 107.38
  C 156.61 107.26 158.32 106.88 159.88 106.87
  Q 169.78 106.82 179.52 105.27
  A 1.28 1.28 0.0 0 0 180.59 103.92
  L 179.46 87.89
  A 2.22 2.22 0.0 0 0 177.92 85.92
  Q 163.69 81.35 159.47 68.65
  Q 156.75 60.48 159.24 52.27
  Q 161.76 43.92 168.22 38.49
  Q 172.11 35.21 179.54 33.19
  A 0.20 0.17 4.1 0 0 179.62 33.13
  L 179.78 32.92
  A 0.22 0.06 -0.6 0 1 179.95 32.87
  Z
  M 196.4403 46.6721
  A 17.58 17.34 -49.1 0 0 171.8235 48.6068
  A 17.58 17.34 -49.1 0 0 173.4197 73.2479
  A 17.58 17.34 -49.1 0 0 198.0365 71.3132
  A 17.58 17.34 -49.1 0 0 196.4403 46.6721
  Z
  M 74.62 151.56
  Q 66.86 165.97 67.80 181.01
  Q 69.48 207.90 72.24 238.38
  A 1.92 1.92 0.0 0 0 73.18 239.86
  C 85.20 246.90 87.27 260.63 84.14 273.20
  Q 83.73 274.88 82.67 278.66
  A 1.97 1.96 41.1 0 0 82.76 279.95
  Q 83.17 280.90 84.17 282.32
  Q 93.62 295.66 105.81 304.92
  Q 119.70 315.47 137.25 314.25
  Q 193.14 310.40 259.03 305.43
  C 262.89 305.14 270.32 304.76 275.27 303.43
  C 301.25 296.50 320.39 271.07 318.84 244.00
  Q 316.63 205.36 313.43 161.55
  Q 313.12 157.34 311.31 151.80
  C 305.05 131.18 288.58 116.14 267.26 112.47
  C 259.90 111.20 252.78 111.97 244.08 112.64
  Q 183.94 117.23 127.24 121.65
  Q 115.78 122.54 112.54 123.25
  Q 87.30 128.83 74.62 151.56
  Z
  M 329.12 222.00
  Q 333.40 218.97 339.40 218.36
  A 1.01 1.00 -81.6 0 0 340.23 217.74
  Q 341.52 214.66 341.54 211.48
  Q 341.58 206.06 340.40 191.21
  Q 339.94 185.51 338.90 183.46
  C 336.48 178.71 331.56 175.36 326.19 175.67
  A 0.95 0.95 0.0 0 0 325.29 176.69
  L 328.45 221.68
  A 0.43 0.42 70.5 0 0 329.12 222.00
  Z
  M 60.88 234.03
  L 58.40 198.83
  A 0.74 0.74 0.0 0 0 57.42 198.18
  Q 48.20 201.39 46.67 210.10
  A 3.52 3.41 49.2 0 0 46.62 210.97
  L 47.68 227.38
  A 0.89 0.88 4.3 0 0 48.38 228.19
  Q 54.92 229.57 60.29 234.32
  A 0.36 0.35 18.7 0 0 60.88 234.03
  Z
  M 336.02 271.46
  Q 332.58 270.74 330.41 267.65
  A 0.70 0.70 0.0 0 0 329.21 267.74
  Q 318.79 288.35 302.57 304.62
  C 298.33 308.88 292.53 313.40 287.73 317.51
  A 1.26 1.25 52.8 0 0 287.51 319.15
  L 289.25 321.79
  Q 297.47 334.34 300.77 348.75
  A 0.63 0.62 -21.1 0 0 301.69 349.15
  C 329.78 333.26 351.34 306.35 363.47 276.72
  A 5.03 5.01 -4.5 0 1 365.53 274.32
  C 379.50 265.91 387.80 247.84 381.95 231.76
  C 378.86 223.24 370.52 216.27 361.21 216.76
  Q 354.27 217.12 350.16 222.95
  A 0.54 0.54 0.0 0 0 350.19 223.61
  Q 358.03 233.00 357.02 245.23
  Q 356.62 250.02 352.45 250.86
  Q 349.23 251.51 347.32 248.60
  Q 346.45 247.28 346.69 243.29
  C 346.94 239.12 346.30 235.82 344.01 232.80
  Q 342.00 230.16 339.29 230.12
  C 334.83 230.06 332.30 235.82 331.82 239.50
  Q 330.43 250.21 335.73 258.31
  A 7.16 6.86 -87.2 0 0 336.98 259.75
  C 338.52 261.08 342.45 263.26 341.73 266.51
  Q 340.77 270.85 336.02 271.46
  Z
  M 111.16 360.35
  Q 113.34 345.53 119.94 332.46
  A 1.64 1.62 -59.6 0 0 119.41 330.38
  Q 115.05 327.38 110.49 324.24
  Q 90.41 310.38 75.86 290.98
  A 1.00 1.00 0.0 0 0 74.56 290.71
  C 72.76 291.73 70.23 292.76 68.24 291.49
  C 65.93 290.02 63.52 286.32 65.90 283.90
  Q 76.71 272.89 73.40 257.01
  C 72.59 253.11 68.97 248.78 64.51 252.07
  C 59.11 256.07 59.20 262.67 60.11 268.88
  A 2.15 2.12 -44.6 0 1 60.10 269.62
  C 58.92 275.69 51.71 275.46 49.99 269.72
  C 47.81 262.47 50.97 254.94 55.61 248.99
  A 1.11 1.11 0.0 0 0 55.72 247.78
  Q 52.56 241.73 45.84 240.27
  Q 38.87 238.76 33.66 241.27
  Q 19.51 248.07 19.41 264.49
  C 19.35 273.44 23.87 284.29 31.81 290.11
  Q 35.26 292.64 36.93 293.75
  A 8.27 8.26 2.8 0 1 39.64 296.73
  C 41.75 300.72 43.86 304.85 46.53 308.72
  C 61.93 331.09 84.52 351.36 110.08 360.99
  A 0.81 0.80 14.3 0 0 111.16 360.35
  Z
  M 166.02 492.80
  C 163.48 495.52 160.44 499.32 156.61 497.05
  C 152.86 494.83 153.61 491.11 156.34 488.19
  C 161.32 482.86 164.61 476.40 168.89 469.93
  Q 171.83 465.50 176.30 466.46
  Q 203.06 472.23 229.97 467.13
  Q 232.97 466.56 234.03 466.98
  C 236.57 467.97 237.61 470.87 236.48 473.43
  C 235.41 475.83 234.18 477.98 233.40 480.66
  Q 230.40 490.95 228.49 495.50
  Q 226.28 500.74 224.53 502.29
  Q 217.64 508.39 215.62 515.60
  C 212.64 526.26 213.72 542.31 223.64 549.19
  Q 229.29 553.11 235.88 551.86
  C 242.95 550.51 247.77 543.33 249.39 536.42
  Q 250.72 530.71 251.15 529.79
  A 3.23 3.20 -6.1 0 1 252.13 528.59
  Q 258.77 523.58 262.72 516.91
  C 273.87 498.13 280.07 475.28 285.88 453.17
  Q 290.63 435.10 292.30 422.75
  Q 296.32 393.24 291.86 361.95
  Q 288.80 340.46 278.54 325.50
  Q 276.72 322.84 275.72 321.80
  C 272.65 318.60 271.85 317.78 267.56 318.08
  Q 192.24 323.38 138.44 326.97
  A 3.49 3.46 -69.0 0 0 136.21 327.97
  C 129.12 335.05 124.71 347.95 122.98 357.99
  Q 115.36 402.05 124.52 444.71
  Q 125.17 447.76 124.33 449.61
  C 119.71 459.84 115.45 469.64 115.37 481.49
  C 115.26 497.41 124.08 506.43 138.25 512.01
  A 1.52 1.51 16.1 0 1 139.19 513.71
  C 137.93 520.32 139.77 529.29 146.90 531.87
  C 153.68 534.33 160.02 530.85 164.43 525.46
  C 171.72 516.55 176.68 501.68 166.98 492.77
  A 0.69 0.68 42.9 0 0 166.02 492.80
  Z"
/>
<path fill="#011424" d="
  M 292.17 71.70
  Q 299.40 70.16 306.77 64.97
  Q 311.06 61.94 313.82 57.17
  C 316.78 52.06 318.63 45.60 319.89 39.39
  C 320.41 36.86 321.67 33.99 324.54 33.44
  Q 330.25 32.35 331.94 38.05
  Q 333.36 42.89 334.80 48.13
  C 335.68 51.33 337.23 53.93 338.79 57.02
  Q 343.17 65.72 353.97 69.30
  Q 359.86 71.26 362.81 71.91
  Q 364.08 72.19 366.57 74.75
  A 2.06 2.05 15.4 0 1 367.08 75.64
  C 368.75 81.34 361.29 82.87 357.10 84.10
  C 348.54 86.60 342.11 90.47 337.79 98.57
  C 334.73 104.31 333.35 110.78 331.56 116.98
  Q 330.95 119.12 328.82 120.32
  C 325.12 122.41 321.28 120.33 320.22 116.27
  Q 319.17 112.28 318.42 108.56
  C 316.73 100.16 311.90 92.12 304.22 87.50
  C 300.08 85.01 295.77 84.03 289.76 82.27
  Q 288.03 81.77 286.68 80.58
  C 284.40 78.58 285.21 74.88 287.47 73.50
  Q 289.52 72.26 292.17 71.70
  Z
  M 326.17 52.06
  Q 324.50 56.70 324.29 57.35
  Q 319.03 73.29 302.67 76.97
  A 0.27 0.26 -45.2 0 0 302.67 77.49
  C 316.35 80.24 323.70 89.80 326.60 103.01
  A 0.17 0.17 0.0 0 0 326.93 102.99
  Q 329.80 82.46 349.53 77.47
  A 0.28 0.28 0.0 0 0 349.51 76.92
  C 336.92 74.64 329.33 64.55 326.56 52.09
  A 0.20 0.20 0.0 0 0 326.17 52.06
  Z"
/>
<ellipse fill="#058ac1" cx="0.00" cy="0.00" transform="translate(184.93,59.96) rotate(-49.1)" rx="17.58" ry="17.34"/>
<path fill="#011424" d="
  M 44.96 85.36
  Q 43.89 85.11 41.39 83.99
  C 37.54 82.26 38.88 77.62 42.50 76.52
  Q 49.25 74.46 53.00 72.50
  Q 59.60 69.06 61.74 62.00
  Q 63.12 57.47 64.69 50.44
  C 65.57 46.48 68.73 41.56 73.33 45.18
  Q 73.44 45.26 74.65 47.37
  Q 75.34 48.57 75.59 49.77
  Q 76.25 52.84 78.22 59.56
  C 81.26 69.93 88.20 73.32 97.76 76.52
  Q 102.25 78.01 101.06 82.63
  A 1.28 1.26 82.1 0 1 100.46 83.43
  Q 97.92 84.90 94.58 85.84
  Q 81.51 89.51 77.28 102.25
  Q 76.05 105.98 74.60 111.55
  C 73.42 116.09 67.59 117.09 65.76 112.50
  C 64.28 108.79 63.96 103.85 62.73 100.43
  Q 58.45 88.47 44.96 85.36
  Z
  M 70.41 99.07
  Q 70.62 99.07 70.69 98.70
  Q 73.28 84.29 87.12 80.71
  A 0.29 0.28 -45.4 0 0 87.12 80.16
  C 77.74 77.98 71.92 69.94 70.73 60.67
  Q 70.72 60.56 70.50 60.56
  Q 70.28 60.56 70.27 60.67
  C 69.03 69.93 63.18 77.95 53.79 80.08
  A 0.29 0.28 45.7 0 0 53.79 80.63
  Q 67.61 84.28 70.14 98.70
  Q 70.20 99.07 70.41 99.07
  Z"
/>
<path fill="#fdb62c" d="
  M 326.56 52.09
  C 329.33 64.55 336.92 74.64 349.51 76.92
  A 0.28 0.28 0.0 0 1 349.53 77.47
  Q 329.80 82.46 326.93 102.99
  A 0.17 0.17 0.0 0 1 326.60 103.01
  C 323.70 89.80 316.35 80.24 302.67 77.49
  A 0.27 0.26 -45.2 0 1 302.67 76.97
  Q 319.03 73.29 324.29 57.35
  Q 324.50 56.70 326.17 52.06
  A 0.20 0.20 0.0 0 1 326.56 52.09
  Z"
/>
<path fill="#fdb62c" d="
  M 70.50 60.56
  Q 70.72 60.56 70.73 60.67
  C 71.92 69.94 77.74 77.98 87.12 80.16
  A 0.29 0.28 -45.4 0 1 87.12 80.71
  Q 73.28 84.29 70.69 98.70
  Q 70.62 99.07 70.41 99.07
  Q 70.20 99.07 70.14 98.70
  Q 67.61 84.28 53.79 80.63
  A 0.29 0.28 45.7 0 1 53.79 80.08
  C 63.18 77.95 69.03 69.93 70.27 60.67
  Q 70.28 60.56 70.50 60.56
  Z"
/>
<path fill="#2f9fcd" d="
  M 311.31 151.80
  Q 303.80 144.65 297.57 136.62
  A 3.82 3.58 1.5 0 0 296.90 135.96
  Q 288.68 129.69 285.80 127.91
  C 278.13 123.16 268.57 119.77 259.25 119.57
  Q 258.66 119.56 245.26 120.57
  Q 209.04 123.29 173.35 125.92
  Q 152.03 127.49 126.78 129.76
  C 121.26 130.26 111.30 131.00 104.95 133.63
  Q 97.56 136.68 89.80 141.52
  C 84.45 144.87 80.97 150.30 74.62 151.56
  Q 87.30 128.83 112.54 123.25
  Q 115.78 122.54 127.24 121.65
  Q 183.94 117.23 244.08 112.64
  C 252.78 111.97 259.90 111.20 267.26 112.47
  C 288.58 116.14 305.05 131.18 311.31 151.80
  Z"
/>
<path fill="#058ac1" d="
  M 311.31 151.80
  Q 313.12 157.34 313.43 161.55
  Q 316.63 205.36 318.84 244.00
  C 320.39 271.07 301.25 296.50 275.27 303.43
  C 270.32 304.76 262.89 305.14 259.03 305.43
  Q 193.14 310.40 137.25 314.25
  Q 119.70 315.47 105.81 304.92
  Q 93.62 295.66 84.17 282.32
  Q 83.17 280.90 82.76 279.95
  A 1.97 1.96 41.1 0 1 82.67 278.66
  Q 83.73 274.88 84.14 273.20
  C 87.27 260.63 85.20 246.90 73.18 239.86
  A 1.92 1.92 0.0 0 1 72.24 238.38
  Q 69.48 207.90 67.80 181.01
  Q 66.86 165.97 74.62 151.56
  C 80.97 150.30 84.45 144.87 89.80 141.52
  Q 97.56 136.68 104.95 133.63
  C 111.30 131.00 121.26 130.26 126.78 129.76
  Q 152.03 127.49 173.35 125.92
  Q 209.04 123.29 245.26 120.57
  Q 258.66 119.56 259.25 119.57
  C 268.57 119.77 278.13 123.16 285.80 127.91
  Q 288.68 129.69 296.90 135.96
  A 3.82 3.58 1.5 0 1 297.57 136.62
  Q 303.80 144.65 311.31 151.80
  Z
  M 294.55 251.33
  Q 298.35 242.38 297.61 230.81
  Q 296.03 206.30 294.32 182.74
  Q 293.02 164.76 281.33 154.13
  C 273.37 146.88 263.28 143.07 252.75 143.83
  Q 229.66 145.48 130.44 153.15
  C 121.95 153.81 115.37 155.24 108.82 159.60
  Q 93.90 169.53 90.62 186.41
  Q 89.30 193.24 90.83 208.62
  Q 91.56 215.98 93.01 237.02
  Q 94.09 252.90 96.42 258.78
  C 103.39 276.40 119.99 287.19 138.62 285.87
  Q 227.83 279.56 244.91 278.38
  Q 261.73 277.22 264.53 276.53
  C 277.89 273.25 289.14 264.05 294.55 251.33
  Z"
/>
<path fill="#fdb62c" d="
  M 360.88 136.89
  Q 361.87 136.88 362.70 137.63
  A 2.15 2.11 -78.6 0 1 363.32 138.58
  Q 365.42 144.91 371.36 147.48
  A 2.65 2.63 -10.5 0 1 372.11 147.99
  C 374.02 149.89 372.44 151.67 370.37 152.65
  Q 367.46 154.02 365.28 157.07
  A 3.57 3.37 -16.7 0 0 364.94 157.66
  L 362.92 162.41
  A 1.51 1.50 2.6 0 1 361.97 163.27
  Q 361.73 163.34 361.04 163.35
  Q 360.35 163.35 360.11 163.28
  A 1.51 1.50 -3.3 0 1 359.15 162.43
  L 357.07 157.71
  A 3.57 3.37 16.0 0 0 356.72 157.12
  Q 354.50 154.10 351.58 152.77
  C 349.50 151.81 347.89 150.05 349.78 148.13
  A 2.65 2.63 9.8 0 1 350.52 147.61
  Q 356.43 144.97 358.45 138.61
  A 2.15 2.11 77.9 0 1 359.06 137.66
  Q 359.88 136.90 360.88 136.89
  Z"
/>
<path fill="#011424" d="
  M 294.55 251.33
  C 289.14 264.05 277.89 273.25 264.53 276.53
  Q 261.73 277.22 244.91 278.38
  Q 227.83 279.56 138.62 285.87
  C 119.99 287.19 103.39 276.40 96.42 258.78
  Q 94.09 252.90 93.01 237.02
  Q 91.56 215.98 90.83 208.62
  Q 89.30 193.24 90.62 186.41
  Q 93.90 169.53 108.82 159.60
  C 115.37 155.24 121.95 153.81 130.44 153.15
  Q 229.66 145.48 252.75 143.83
  C 263.28 143.07 273.37 146.88 281.33 154.13
  Q 293.02 164.76 294.32 182.74
  Q 296.03 206.30 297.61 230.81
  Q 298.35 242.38 294.55 251.33
  Z
  M 122.27 170.33
  C 113.32 173.85 106.98 180.98 105.16 190.28
  Q 104.50 193.63 105.50 207.27
  Q 107.70 237.26 107.86 240.32
  Q 108.27 248.04 109.70 251.80
  C 113.13 260.77 120.36 267.45 129.46 269.92
  Q 133.71 271.07 143.61 270.35
  Q 235.59 263.68 252.49 262.74
  Q 259.51 262.35 263.42 261.16
  C 272.82 258.31 280.72 249.83 282.60 240.10
  Q 283.44 235.74 282.66 226.39
  Q 280.94 205.58 280.19 192.12
  Q 279.49 179.41 277.39 174.65
  Q 273.75 166.42 265.43 161.82
  C 261.28 159.53 256.89 159.05 252.18 159.37
  C 218.38 161.67 172.27 164.69 132.42 168.42
  Q 125.47 169.08 122.27 170.33
  Z"
/>
<path fill="#05cb98" d="
  M 105.16 190.28
  C 106.98 180.98 113.32 173.85 122.27 170.33
  Q 125.47 169.08 132.42 168.42
  C 172.27 164.69 218.38 161.67 252.18 159.37
  C 256.89 159.05 261.28 159.53 265.43 161.82
  Q 273.75 166.42 277.39 174.65
  Q 279.49 179.41 280.19 192.12
  Q 280.94 205.58 282.66 226.39
  Q 283.44 235.74 282.60 240.10
  C 280.72 249.83 272.82 258.31 263.42 261.16
  Q 259.51 262.35 252.49 262.74
  Q 235.59 263.68 143.61 270.35
  Q 133.71 271.07 129.46 269.92
  C 120.36 267.45 113.13 260.77 109.70 251.80
  Q 108.27 248.04 107.86 240.32
  Q 107.70 237.26 105.50 207.27
  Q 104.50 193.63 105.16 190.28
  Z
  M 241.57 198.97
  Q 243.55 198.89 245.51 200.20
  C 249.35 202.79 247.32 208.81 252.16 210.58
  C 255.11 211.65 258.94 209.62 258.98 206.37
  C 259.10 196.06 252.21 186.24 241.06 186.71
  C 229.91 187.17 223.86 197.53 224.83 207.79
  C 225.14 211.02 229.13 212.74 231.98 211.42
  C 236.66 209.25 234.13 203.42 237.75 200.53
  Q 239.59 199.06 241.57 198.97
  Z
  M 150.46 205.72
  Q 152.46 205.55 154.50 206.80
  C 158.49 209.26 156.68 215.44 161.65 217.03
  C 164.68 218.00 168.48 215.78 168.39 212.49
  C 168.08 202.06 160.71 192.40 149.44 193.32
  C 138.17 194.25 132.47 204.98 133.88 215.33
  C 134.32 218.59 138.43 220.16 141.27 218.71
  C 145.91 216.33 143.11 210.52 146.65 207.45
  Q 148.46 205.88 150.46 205.72
  Z
  M 199.13 236.88
  Q 192.78 237.28 187.63 234.17
  C 185.98 233.17 184.06 230.63 181.92 229.94
  C 178.29 228.77 173.40 229.62 172.10 233.50
  C 170.84 237.25 172.75 240.73 175.38 243.38
  C 181.87 249.96 190.77 253.17 200.10 252.59
  C 209.43 252.01 217.87 247.72 223.50 240.39
  C 225.77 237.44 227.24 233.75 225.52 230.18
  C 223.75 226.49 218.80 226.26 215.34 227.87
  C 213.30 228.81 211.71 231.57 210.19 232.77
  Q 205.47 236.49 199.13 236.88
  Z"
/>
<path fill="#fdb62c" d="
  M 28.10 165.59
  C 29.69 163.92 30.21 161.71 31.19 160.07
  A 1.50 1.50 0.0 0 1 33.91 160.40
  Q 35.58 165.83 40.09 167.80
  A 1.80 1.80 0.0 0 1 40.32 170.97
  C 38.93 171.84 37.55 172.62 36.53 173.69
  C 34.94 175.36 34.42 177.57 33.43 179.21
  A 1.50 1.50 0.0 0 1 30.72 178.88
  Q 29.05 173.45 24.54 171.48
  A 1.80 1.80 0.0 0 1 24.30 168.31
  C 25.69 167.44 27.08 166.66 28.10 165.59
  Z"
/>
<path fill="#058ac1" d="
  M 329.12 222.00
  A 0.43 0.42 70.5 0 1 328.45 221.68
  L 325.29 176.69
  A 0.95 0.95 0.0 0 1 326.19 175.67
  C 331.56 175.36 336.48 178.71 338.90 183.46
  Q 339.94 185.51 340.40 191.21
  Q 341.58 206.06 341.54 211.48
  Q 341.52 214.66 340.23 217.74
  A 1.01 1.00 -81.6 0 1 339.40 218.36
  Q 333.40 218.97 329.12 222.00
  Z"
/>
<path fill="#011424" d="
  M 241.57 198.97
  Q 239.59 199.06 237.75 200.53
  C 234.13 203.42 236.66 209.25 231.98 211.42
  C 229.13 212.74 225.14 211.02 224.83 207.79
  C 223.86 197.53 229.91 187.17 241.06 186.71
  C 252.21 186.24 259.10 196.06 258.98 206.37
  C 258.94 209.62 255.11 211.65 252.16 210.58
  C 247.32 208.81 249.35 202.79 245.51 200.20
  Q 243.55 198.89 241.57 198.97
  Z"
/>
<path fill="#011424" d="
  M 149.44 193.32
  C 160.71 192.40 168.08 202.06 168.39 212.49
  C 168.48 215.78 164.68 218.00 161.65 217.03
  C 156.68 215.44 158.49 209.26 154.50 206.80
  Q 152.46 205.55 150.46 205.72
  Q 148.46 205.88 146.65 207.45
  C 143.11 210.52 145.91 216.33 141.27 218.71
  C 138.43 220.16 134.32 218.59 133.88 215.33
  C 132.47 204.98 138.17 194.25 149.44 193.32
  Z"
/>
<path fill="#058ac1" d="
  M 60.88 234.03
  A 0.36 0.35 18.7 0 1 60.29 234.32
  Q 54.92 229.57 48.38 228.19
  A 0.89 0.88 4.3 0 1 47.68 227.38
  L 46.62 210.97
  A 3.52 3.41 49.2 0 1 46.67 210.10
  Q 48.20 201.39 57.42 198.18
  A 0.74 0.74 0.0 0 1 58.40 198.83
  L 60.88 234.03
  Z"
/>
<path fill="#058ac1" d="
  M 289.25 321.79
  Q 292.95 319.90 297.27 316.51
  Q 308.48 307.75 316.45 297.23
  Q 323.83 287.51 330.57 277.33
  Q 332.44 274.51 336.02 271.46
  Q 340.77 270.85 341.73 266.51
  C 342.45 263.26 338.52 261.08 336.98 259.75
  A 7.16 6.86 -87.2 0 1 335.73 258.31
  Q 330.43 250.21 331.82 239.50
  C 332.30 235.82 334.83 230.06 339.29 230.12
  Q 342.00 230.16 344.01 232.80
  C 346.30 235.82 346.94 239.12 346.69 243.29
  Q 346.45 247.28 347.32 248.60
  Q 349.23 251.51 352.45 250.86
  Q 356.62 250.02 357.02 245.23
  Q 358.03 233.00 350.19 223.61
  A 0.54 0.54 0.0 0 1 350.16 222.95
  Q 354.27 217.12 361.21 216.76
  C 370.52 216.27 378.86 223.24 381.95 231.76
  C 387.80 247.84 379.50 265.91 365.53 274.32
  A 5.03 5.01 -4.5 0 0 363.47 276.72
  C 351.34 306.35 329.78 333.26 301.69 349.15
  A 0.63 0.62 -21.1 0 1 300.77 348.75
  Q 297.47 334.34 289.25 321.79
  Z"
/>
<path fill="#011424" d="
  M 200.10 252.59
  C 190.77 253.17 181.87 249.96 175.38 243.38
  C 172.75 240.73 170.84 237.25 172.10 233.50
  C 173.40 229.62 178.29 228.77 181.92 229.94
  C 184.06 230.63 185.98 233.17 187.63 234.17
  Q 192.78 237.28 199.13 236.88
  Q 205.47 236.49 210.19 232.77
  C 211.71 231.57 213.30 228.81 215.34 227.87
  C 218.80 226.26 223.75 226.49 225.52 230.18
  C 227.24 233.75 225.77 237.44 223.50 240.39
  C 217.87 247.72 209.43 252.01 200.10 252.59
  Z"
/>
<path fill="#058ac1" d="
  M 111.16 360.35
  A 0.81 0.80 14.3 0 1 110.08 360.99
  C 84.52 351.36 61.93 331.09 46.53 308.72
  C 43.86 304.85 41.75 300.72 39.64 296.73
  A 8.27 8.26 2.8 0 0 36.93 293.75
  Q 35.26 292.64 31.81 290.11
  C 23.87 284.29 19.35 273.44 19.41 264.49
  Q 19.51 248.07 33.66 241.27
  Q 38.87 238.76 45.84 240.27
  Q 52.56 241.73 55.72 247.78
  A 1.11 1.11 0.0 0 1 55.61 248.99
  C 50.97 254.94 47.81 262.47 49.99 269.72
  C 51.71 275.46 58.92 275.69 60.10 269.62
  A 2.15 2.12 -44.6 0 0 60.11 268.88
  C 59.20 262.67 59.11 256.07 64.51 252.07
  C 68.97 248.78 72.59 253.11 73.40 257.01
  Q 76.71 272.89 65.90 283.90
  C 63.52 286.32 65.93 290.02 68.24 291.49
  C 70.23 292.76 72.76 291.73 74.56 290.71
  A 1.00 1.00 0.0 0 1 75.86 290.98
  Q 90.41 310.38 110.49 324.24
  Q 115.05 327.38 119.41 330.38
  A 1.64 1.62 -59.6 0 1 119.94 332.46
  Q 113.34 345.53 111.16 360.35
  Z"
/>
<path fill="#2f9fcd" d="
  M 336.02 271.46
  Q 332.44 274.51 330.57 277.33
  Q 323.83 287.51 316.45 297.23
  Q 308.48 307.75 297.27 316.51
  Q 292.95 319.90 289.25 321.79
  L 287.51 319.15
  A 1.26 1.25 52.8 0 1 287.73 317.51
  C 292.53 313.40 298.33 308.88 302.57 304.62
  Q 318.79 288.35 329.21 267.74
  A 0.70 0.70 0.0 0 1 330.41 267.65
  Q 332.58 270.74 336.02 271.46
  Z"
/>
<path fill="#058ac1" d="
  M 166.98 492.77
  C 176.68 501.68 171.72 516.55 164.43 525.46
  C 160.02 530.85 153.68 534.33 146.90 531.87
  C 139.77 529.29 137.93 520.32 139.19 513.71
  A 1.52 1.51 16.1 0 0 138.25 512.01
  C 124.08 506.43 115.26 497.41 115.37 481.49
  C 115.45 469.64 119.71 459.84 124.33 449.61
  Q 125.17 447.76 124.52 444.71
  Q 115.36 402.05 122.98 357.99
  C 124.71 347.95 129.12 335.05 136.21 327.97
  A 3.49 3.46 -69.0 0 1 138.44 326.97
  Q 192.24 323.38 267.56 318.08
  C 271.85 317.78 272.65 318.60 275.72 321.80
  Q 276.72 322.84 278.54 325.50
  Q 288.80 340.46 291.86 361.95
  Q 296.32 393.24 292.30 422.75
  Q 290.63 435.10 285.88 453.17
  C 280.07 475.28 273.87 498.13 262.72 516.91
  Q 258.77 523.58 252.13 528.59
  A 3.23 3.20 -6.1 0 0 251.15 529.79
  Q 250.72 530.71 249.39 536.42
  C 247.77 543.33 242.95 550.51 235.88 551.86
  Q 229.29 553.11 223.64 549.19
  C 213.72 542.31 212.64 526.26 215.62 515.60
  Q 217.64 508.39 224.53 502.29
  Q 226.28 500.74 228.49 495.50
  Q 230.40 490.95 233.40 480.66
  C 234.18 477.98 235.41 475.83 236.48 473.43
  C 237.61 470.87 236.57 467.97 234.03 466.98
  Q 232.97 466.56 229.97 467.13
  Q 203.06 472.23 176.30 466.46
  Q 171.83 465.50 168.89 469.93
  C 164.61 476.40 161.32 482.86 156.34 488.19
  C 153.61 491.11 152.86 494.83 156.61 497.05
  C 160.44 499.32 163.48 495.52 166.02 492.80
  A 0.69 0.68 42.9 0 1 166.98 492.77
  Z
  M 272.51 360.31
  A 22.45 22.45 0.0 0 0 250.06 337.86
  L 164.38 337.86
  A 22.45 22.45 0.0 0 0 141.93 360.31
  L 141.93 420.99
  A 22.45 22.45 0.0 0 0 164.38 443.44
  L 250.06 443.44
  A 22.45 22.45 0.0 0 0 272.51 420.99
  L 272.51 360.31
  Z"
/>
<path fill="#fdb62c" d="
  M 360.43 336.76
  Q 362.20 336.76 362.74 339.03
  C 365.04 348.72 367.77 355.77 377.92 359.44
  Q 378.68 359.72 384.61 361.50
  Q 385.62 361.80 385.62 363.49
  Q 385.62 365.17 384.62 365.48
  Q 378.68 367.26 377.92 367.54
  C 367.77 371.22 365.05 378.27 362.76 387.96
  Q 362.22 390.23 360.44 390.23
  Q 358.66 390.23 358.13 387.96
  C 355.83 378.27 353.10 371.22 342.95 367.55
  Q 342.19 367.27 336.25 365.49
  Q 335.25 365.19 335.25 363.50
  Q 335.25 361.81 336.25 361.51
  Q 342.19 359.73 342.95 359.45
  C 353.10 355.77 355.82 348.72 358.11 339.03
  Q 358.65 336.76 360.43 336.76
  Z"
/>
<path fill="#011424" d="
  M 272.51 360.31
  L 272.51 420.99
  A 22.45 22.45 0.0 0 1 250.06 443.44
  L 164.38 443.44
  A 22.45 22.45 0.0 0 1 141.93 420.99
  L 141.93 360.31
  A 22.45 22.45 0.0 0 1 164.38 337.86
  L 250.06 337.86
  A 22.45 22.45 0.0 0 1 272.51 360.31
  Z
  M 258.30 359.99
  A 7.78 7.78 0.0 0 0 250.52 352.21
  L 163.98 352.21
  A 7.78 7.78 0.0 0 0 156.20 359.99
  L 156.20 421.31
  A 7.78 7.78 0.0 0 0 163.98 429.09
  L 250.52 429.09
  A 7.78 7.78 0.0 0 0 258.30 421.31
  L 258.30 359.99
  Z"
/>
<path fill="#f5f4f2" d="
  M 258.30 421.31
  A 7.78 7.78 0.0 0 1 250.52 429.09
  L 163.98 429.09
  A 7.78 7.78 0.0 0 1 156.20 421.31
  L 156.20 359.99
  A 7.78 7.78 0.0 0 1 163.98 352.21
  L 250.52 352.21
  A 7.78 7.78 0.0 0 1 258.30 359.99
  L 258.30 421.31
  Z
  M 189.15 391.05
  Q 189.15 391.04 189.15 391.03
  A 0.18 0.02 -58.7 0 1 189.17 391.00
  Q 192.42 387.86 193.08 383.84
  Q 194.16 377.30 194.34 376.81
  A 2.04 2.02 -5.3 0 1 195.19 375.80
  Q 197.64 374.36 197.87 374.10
  C 202.37 369.03 198.20 362.19 191.74 363.59
  C 182.83 365.50 181.99 373.78 180.73 381.34
  A 3.99 3.99 0.0 0 1 178.32 384.39
  Q 173.29 386.50 173.29 391.07
  Q 173.30 395.65 178.34 397.74
  A 3.99 3.99 0.0 0 1 180.76 400.78
  C 182.04 408.34 182.90 416.62 191.82 418.50
  C 198.28 419.88 202.43 413.04 197.92 407.98
  Q 197.69 407.72 195.23 406.29
  A 2.04 2.02 5.1 0 1 194.38 405.28
  Q 194.20 404.79 193.10 398.25
  Q 192.43 394.23 189.17 391.11
  A 0.18 0.02 58.5 0 1 189.15 391.07
  Q 189.15 391.06 189.15 391.05
  Z
  M 225.48 391.09
  Q 225.48 391.10 225.48 391.11
  A 0.18 0.02 -58.6 0 1 225.46 391.15
  Q 222.21 394.27 221.54 398.28
  Q 220.45 404.81 220.27 405.30
  A 2.04 2.02 -5.1 0 1 219.42 406.31
  Q 216.97 407.74 216.74 408.00
  C 212.24 413.05 216.39 419.88 222.84 418.50
  C 231.74 416.61 232.59 408.35 233.86 400.80
  A 3.99 3.99 0.0 0 1 236.27 397.76
  Q 241.30 395.67 241.31 391.10
  Q 241.31 386.54 236.28 384.44
  A 3.99 3.99 0.0 0 1 233.87 381.40
  C 232.61 373.85 231.77 365.59 222.87 363.69
  C 216.42 362.30 212.27 369.12 216.76 374.18
  Q 216.99 374.44 219.44 375.87
  A 2.04 2.02 5.2 0 1 220.29 376.88
  Q 220.47 377.37 221.55 383.91
  Q 222.21 387.92 225.46 391.04
  A 0.18 0.02 58.6 0 1 225.48 391.08
  Q 225.48 391.09 225.48 391.09
  Z"
/>
<path fill="#fdb62c" d="
  M 48.90 359.38
  Q 50.83 359.37 51.34 361.60
  Q 52.47 366.49 52.87 368.09
  Q 57.24 385.69 76.18 388.83
  Q 79.03 389.30 79.03 391.64
  Q 79.03 393.97 76.19 394.45
  Q 57.26 397.65 52.94 415.27
  Q 52.55 416.87 51.44 421.76
  Q 50.93 423.99 49.01 423.99
  Q 47.08 424.00 46.57 421.77
  Q 45.44 416.88 45.04 415.28
  Q 40.67 397.68 21.73 394.54
  Q 18.88 394.07 18.88 391.73
  Q 18.88 389.40 21.72 388.92
  Q 40.65 385.72 44.97 368.10
  Q 45.36 366.50 46.47 361.61
  Q 46.98 359.38 48.90 359.38
  Z"
/>
<path fill="#011424" d="
  M 189.15 391.05
  Q 189.15 391.06 189.15 391.07
  A 0.18 0.02 58.5 0 0 189.17 391.11
  Q 192.43 394.23 193.10 398.25
  Q 194.20 404.79 194.38 405.28
  A 2.04 2.02 5.1 0 0 195.23 406.29
  Q 197.69 407.72 197.92 407.98
  C 202.43 413.04 198.28 419.88 191.82 418.50
  C 182.90 416.62 182.04 408.34 180.76 400.78
  A 3.99 3.99 0.0 0 0 178.34 397.74
  Q 173.30 395.65 173.29 391.07
  Q 173.29 386.50 178.32 384.39
  A 3.99 3.99 0.0 0 0 180.73 381.34
  C 181.99 373.78 182.83 365.50 191.74 363.59
  C 198.20 362.19 202.37 369.03 197.87 374.10
  Q 197.64 374.36 195.19 375.80
  A 2.04 2.02 -5.3 0 0 194.34 376.81
  Q 194.16 377.30 193.08 383.84
  Q 192.42 387.86 189.17 391.00
  A 0.18 0.02 -58.7 0 0 189.15 391.03
  Q 189.15 391.04 189.15 391.05
  Z"
/>
<path fill="#011424" d="
  M 241.31 391.10
  Q 241.30 395.67 236.27 397.76
  A 3.99 3.99 0.0 0 0 233.86 400.80
  C 232.59 408.35 231.74 416.61 222.84 418.50
  C 216.39 419.88 212.24 413.05 216.74 408.00
  Q 216.97 407.74 219.42 406.31
  A 2.04 2.02 -5.1 0 0 220.27 405.30
  Q 220.45 404.81 221.54 398.28
  Q 222.21 394.27 225.46 391.15
  A 0.18 0.02 -58.6 0 0 225.48 391.11
  Q 225.48 391.10 225.48 391.09
  Q 225.48 391.09 225.48 391.08
  A 0.18 0.02 58.6 0 0 225.46 391.04
  Q 222.21 387.92 221.55 383.91
  Q 220.47 377.37 220.29 376.88
  A 2.04 2.02 5.2 0 0 219.44 375.87
  Q 216.99 374.44 216.76 374.18
  C 212.27 369.12 216.42 362.30 222.87 363.69
  C 231.77 365.59 232.61 373.85 233.87 381.40
  A 3.99 3.99 0.0 0 0 236.28 384.44
  Q 241.31 386.54 241.31 391.10
  Z"
/>
</svg>
