<?xml version="1.0" encoding="UTF-8" standalone="no"?>
<!DOCTYPE svg PUBLIC "-//W3C//DTD SVG 1.0//EN" "http://www.w3.org/TR/2001/REC-SVG-20010904/DTD/svg10.dtd">
<svg xmlns="http://www.w3.org/2000/svg" version="1.0" viewBox="0.00 0.00 408.00 612.00">
<g stroke-width="2.00" fill="none" stroke-linecap="butt">
<path stroke="#005377" vector-effect="non-scaling-stroke" d="
  M 173.65 44.73
  A 22.56 22.53 -46.1 0 0 173.93 59.11
  A 22.54 22.54 0.0 0 0 194.51 74.02
  A 22.54 22.52 9.7 0 0 216.61 58.37
  A 22.59 22.57 39.5 0 0 214.90 40.62
  A 22.57 22.53 -5.6 0 0 201.95 30.01"
/>
<path stroke="#165f80" vector-effect="non-scaling-stroke" d="
  M 201.95 30.01
  A 22.50 22.47 -49.5 0 0 185.06 31.34
  A 22.49 22.49 0.0 0 0 173.65 44.73"
/>
<path stroke="#169bcd" vector-effect="non-scaling-stroke" d="
  M 201.95 30.01
  Q 202.36 30.50 203.06 30.83
  A 0.40 0.40 0.0 0 1 203.16 31.49
  Q 202.10 32.43 200.46 32.76
  C 197.01 33.46 192.49 33.63 188.30 35.61
  Q 181.84 38.66 176.99 44.37
  Q 175.20 46.46 173.65 44.73"
/>
<path stroke="#005377" vector-effect="non-scaling-stroke" d="
  M 54.38 167.24
  C 51.23 178.63 52.17 190.21 52.87 201.50
  Q 57.36 274.07 57.56 276.72
  Q 58.62 291.27 62.56 300.77
  Q 72.07 323.66 94.96 333.54
  Q 107.89 339.11 119.02 339.46
  Q 128.40 339.76 138.25 339.26
  Q 150.26 338.66 199.58 336.03
  A 1.12 1.10 -84.3 0 0 200.60 335.18
  Q 203.63 322.44 213.85 314.64
  A 0.77 0.77 0.0 0 0 213.78 313.36
  Q 208.19 310.00 206.20 304.23
  A 0.93 0.92 78.6 0 0 205.28 303.61
  Q 182.77 304.93 137.77 307.73
  Q 119.12 308.89 104.69 297.82
  Q 92.25 288.28 87.42 273.92
  Q 85.42 267.98 84.54 253.78
  Q 81.87 210.64 81.77 208.50
  C 80.65 186.14 93.76 166.32 114.79 159.30
  Q 120.80 157.29 140.01 155.84
  Q 214.48 150.23 254.52 147.19
  Q 271.33 145.92 277.43 147.13
  C 294.72 150.55 308.41 162.45 313.73 179.25
  Q 315.59 185.14 316.24 197.41
  Q 318.11 232.82 318.80 243.41
  Q 319.45 253.31 318.25 258.97
  Q 315.93 269.88 309.47 278.46
  C 302.19 288.15 290.44 295.87 278.37 297.56
  Q 271.16 298.58 266.99 298.97
  A 0.91 0.91 0.0 0 0 266.44 300.53
  Q 278.15 312.08 283.07 327.77
  A 0.90 0.88 -9.4 0 0 283.95 328.39
  C 318.31 327.21 344.60 301.79 346.57 267.47
  Q 346.90 261.65 346.63 256.25
  Q 345.72 237.83 341.66 168.00
  Q 341.19 159.98 339.03 152.53"
/>
<path stroke="#165f80" vector-effect="non-scaling-stroke" d="
  M 339.03 152.53
  C 331.39 129.29 312.27 114.43 288.31 110.81
  Q 281.88 109.84 268.20 110.87
  Q 128.45 121.38 124.91 121.62
  Q 106.50 122.87 98.36 125.34
  C 77.53 131.66 60.68 145.93 54.38 167.24"
/>
<path stroke="#169bcd" vector-effect="non-scaling-stroke" d="
  M 339.03 152.53
  C 332.16 145.66 324.93 137.07 318.02 131.98
  C 304.56 122.06 290.80 118.11 273.53 119.04
  Q 250.87 120.27 231.40 121.43
  C 220.80 122.07 204.72 123.93 192.92 124.75
  C 158.47 127.15 138.98 128.36 112.74 131.28
  Q 95.67 133.18 82.14 142.63
  C 74.18 148.20 70.85 150.34 66.68 154.18
  C 64.34 156.34 59.60 162.85 54.38 167.24"
/>
<path stroke="#057767" vector-effect="non-scaling-stroke" d="
  M 271.55 280.81
  C 288.73 279.98 302.24 265.48 301.74 248.41
  Q 301.36 235.28 299.33 200.30
  Q 298.57 187.12 296.96 182.97
  C 292.72 172.09 282.25 164.54 270.53 163.65
  Q 266.65 163.35 256.57 164.12
  Q 193.71 168.90 129.88 173.86
  C 115.75 174.95 104.07 183.24 100.18 197.00
  Q 98.75 202.07 99.60 216.13
  Q 101.68 250.13 101.69 250.63
  Q 102.08 264.70 104.28 270.12
  C 108.54 280.60 117.49 287.81 128.51 290.13
  Q 131.92 290.85 138.06 290.42
  Q 181.78 287.40 209.71 285.29
  A 2.60 2.58 21.2 0 0 211.27 284.61
  C 220.48 276.07 234.36 276.70 245.16 281.95
  A 5.59 5.57 56.0 0 0 248.03 282.51
  C 253.56 282.10 262.65 281.24 271.55 280.81"
/>
<path stroke="#005377" vector-effect="non-scaling-stroke" d="
  M 354.45 176.39
  L 358.58 248.62
  A 0.57 0.56 -10.2 0 0 359.31 249.12
  Q 376.70 243.85 376.58 225.80
  Q 376.57 223.76 375.41 201.03
  Q 375.07 194.36 373.81 190.63
  C 371.02 182.35 364.38 175.73 355.38 175.44
  A 0.90 0.90 0.0 0 0 354.45 176.39"
/>
<path stroke="#005377" vector-effect="non-scaling-stroke" d="
  M 22.47 236.02
  Q 22.91 243.24 23.37 248.10
  C 24.39 258.94 32.02 269.04 43.48 269.47
  A 0.99 0.98 -0.8 0 0 44.50 268.43
  Q 43.02 245.32 42.39 234.81
  Q 41.75 224.30 40.43 201.19
  A 0.99 0.98 -6.1 0 0 39.29 200.28
  C 27.97 202.08 21.61 213.03 21.91 223.92
  Q 22.04 228.79 22.47 236.02"
/>
<path stroke="#165f80" vector-effect="non-scaling-stroke" d="
  M 239.74 318.49
  Q 236.41 319.30 232.83 319.64
  Q 227.82 320.11 225.98 320.82
  Q 221.36 322.63 218.21 326.70
  Q 213.28 333.06 212.35 342.56"
/>
<path stroke="#005377" vector-effect="non-scaling-stroke" d="
  M 212.35 342.56
  Q 211.51 346.44 214.51 351.78
  Q 215.64 353.78 217.70 354.82
  C 220.95 356.46 221.92 351.95 222.86 349.93
  A 0.89 0.89 0.0 0 1 224.36 349.74
  Q 225.08 350.64 225.52 351.62
  C 228.88 359.18 232.08 366.97 238.83 369.43
  C 246.91 372.39 255.70 371.98 261.94 365.00
  C 270.38 355.55 275.46 345.33 270.77 332.50
  C 266.35 320.39 258.99 307.57 249.05 300.01
  Q 241.83 294.52 232.83 291.48
  C 226.34 289.28 219.53 291.74 219.42 299.01
  Q 219.35 304.12 224.19 305.86
  C 227.92 307.20 234.58 309.43 238.59 313.39
  Q 240.75 315.52 239.74 318.49"
/>
<path stroke="#169bcd" vector-effect="non-scaling-stroke" d="
  M 212.35 342.56
  Q 221.73 332.43 232.13 327.99
  C 234.75 326.87 237.12 325.72 238.65 323.99
  Q 240.85 321.50 239.74 318.49"
/>
<path stroke="#005377" vector-effect="non-scaling-stroke" d="
  M 295.28 358.34
  Q 305.38 368.98 316.03 379.21
  C 318.81 381.88 319.19 386.79 315.51 388.56
  C 312.97 389.78 309.52 387.35 307.69 385.82
  Q 296.11 376.14 285.20 363.80
  Q 284.34 362.83 281.65 360.25
  A 0.90 0.90 0.0 0 0 280.25 360.45
  Q 271.81 375.16 256.54 382.42
  A 0.65 0.65 0.0 0 0 256.32 383.43
  Q 264.92 393.57 274.85 402.48
  C 282.86 409.66 290.51 415.92 299.87 419.14
  C 309.89 422.59 321.73 420.27 327.57 411.08
  Q 331.43 405.01 331.89 395.74
  Q 332.70 379.67 321.82 366.43"
/>
<path stroke="#165f80" vector-effect="non-scaling-stroke" d="
  M 321.82 366.43
  Q 309.07 350.74 288.44 347.41
  A 0.59 0.59 0.0 0 0 287.82 348.27
  Q 290.72 353.60 295.28 358.34"
/>
<path stroke="#169bcd" vector-effect="non-scaling-stroke" d="
  M 321.82 366.43
  Q 309.18 360.17 295.28 358.34"
/>
<path stroke="#005377" vector-effect="non-scaling-stroke" d="
  M 214.75 368.89
  Q 213.81 368.02 211.99 366.67
  Q 204.30 360.96 201.44 351.48
  A 0.90 0.89 80.4 0 0 200.55 350.84
  L 117.14 354.69
  A 1.09 1.09 0.0 0 0 116.23 355.27
  Q 113.58 360.35 111.51 366.26
  C 104.67 385.77 102.97 406.79 102.53 428.50
  Q 101.84 463.61 109.26 497.23
  Q 113.94 518.40 116.61 528.70
  Q 118.68 536.67 120.65 539.73
  Q 128.71 552.29 144.31 552.30
  C 154.68 552.30 165.90 546.58 169.28 536.27
  Q 170.41 532.81 173.03 523.55
  C 175.54 514.72 183.83 511.75 192.50 511.70
  Q 217.80 511.56 219.74 511.64
  C 228.76 512.02 235.79 516.27 237.67 525.60
  Q 239.00 532.17 240.82 537.64
  C 243.99 547.18 254.31 552.25 263.99 552.24
  Q 279.49 552.22 287.71 540.55
  C 290.72 536.27 292.37 530.20 293.69 524.72
  Q 293.86 524.04 298.61 503.08
  C 302.05 487.90 305.46 471.67 306.45 456.27
  Q 307.20 444.65 307.22 434.36
  A 0.72 0.72 0.0 0 0 306.54 433.63
  Q 293.81 432.80 282.47 425.92
  A 0.80 0.80 0.0 0 0 281.26 426.61
  Q 281.42 443.18 281.38 465.22
  C 281.35 477.54 274.27 488.30 262.48 491.80
  Q 258.75 492.90 244.44 492.76
  Q 234.32 492.66 162.12 492.82
  C 158.11 492.83 152.96 493.04 149.77 491.82
  Q 131.29 484.74 131.32 465.74
  Q 131.42 411.51 131.30 400.22
  Q 131.20 389.94 132.74 385.80
  Q 135.78 377.63 143.65 372.91
  C 147.90 370.35 152.25 369.95 157.50 369.91
  Q 180.65 369.74 214.38 369.81
  A 0.53 0.53 0.0 0 0 214.75 368.89"
/>
<path stroke="#005377" vector-effect="non-scaling-stroke" d="
  M 72.88 378.27
  C 59.79 395.64 54.87 418.20 57.10 439.63
  C 58.20 450.11 61.98 459.79 73.76 461.33
  C 81.24 462.31 89.08 457.50 88.70 449.49
  Q 87.47 423.58 90.48 397.69
  Q 92.46 380.63 96.85 366.08"
/>
<path stroke="#165f80" vector-effect="non-scaling-stroke" d="
  M 96.85 366.08
  Q 98.10 362.49 99.38 358.93
  Q 99.53 358.51 99.41 358.25
  Q 99.21 357.82 98.77 358.01
  Q 83.27 364.89 72.88 378.27"
/>
<path stroke="#169bcd" vector-effect="non-scaling-stroke" d="
  M 96.85 366.08
  Q 90.52 367.72 84.97 370.82
  C 81.80 372.58 78.89 375.31 75.98 377.74
  Q 74.83 378.69 72.88 378.27"
/>
<path stroke="#7d8890" vector-effect="non-scaling-stroke" d="
  M 265.23 412.39
  C 256.77 404.89 249.25 395.90 242.05 386.51
  A 1.31 1.30 -18.8 0 0 241.02 386.01
  Q 208.46 386.12 156.76 386.19
  Q 150.62 386.20 148.21 390.60
  Q 147.01 392.77 147.04 400.58
  Q 147.22 458.27 147.26 465.50
  C 147.28 469.71 148.74 473.83 152.59 475.80
  Q 154.16 476.60 158.09 476.58
  Q 187.72 476.46 253.45 476.54
  Q 258.40 476.55 260.75 475.17
  Q 265.40 472.47 265.49 466.22
  Q 265.73 450.41 265.54 413.07
  A 0.90 0.90 0.0 0 0 265.23 412.39"
/>
<path stroke="#057767" vector-effect="non-scaling-stroke" d="
  M 264.50 200.26
  C 264.26 194.55 261.13 191.76 255.51 191.99
  C 249.19 192.25 241.21 191.72 237.91 197.50
  Q 236.44 200.07 237.18 206.65
  Q 237.51 209.60 238.07 218.54
  Q 238.34 222.97 239.61 224.84
  Q 241.76 227.99 245.67 229.02
  A 0.77 0.70 -36.2 0 0 245.94 229.05
  L 257.67 228.54
  A 0.87 0.85 34.5 0 0 257.96 228.49
  Q 266.38 225.55 265.68 216.43
  Q 264.58 202.11 264.50 200.26"
/>
<path stroke="#057767" vector-effect="non-scaling-stroke" d="
  M 167.9969 205.8512
  A 8.62 8.62 0.0 0 0 158.9234 197.7099
  L 150.1562 198.1847
  A 8.62 8.62 0.0 0 0 142.0150 207.2583
  L 143.1031 227.3488
  A 8.62 8.62 0.0 0 0 152.1766 235.4901
  L 160.9438 235.0153
  A 8.62 8.62 0.0 0 0 169.0850 225.9417
  L 167.9969 205.8512"
/>
<path stroke="#057767" vector-effect="non-scaling-stroke" d="
  M 224.95 245.91
  Q 215.93 247.06 209.26 254.76
  C 205.90 258.63 203.07 263.62 208.02 267.43
  Q 211.22 269.89 215.39 267.54
  A 2.08 2.04 0.7 0 0 216.13 266.84
  C 218.59 262.91 221.85 259.65 226.63 259.04
  C 231.41 258.43 235.38 260.76 238.76 263.94
  A 2.08 2.04 -15.3 0 0 239.65 264.44
  Q 244.27 265.66 246.75 262.48
  C 250.58 257.54 246.59 253.43 242.37 250.53
  Q 233.97 244.76 224.95 245.91"
/>
<path stroke="#7d8890" vector-effect="non-scaling-stroke" d="
  M 185.59 430.67
  C 189.62 427.29 190.19 420.77 191.19 415.81
  A 1.94 1.93 -9.6 0 1 192.11 414.52
  Q 194.05 413.35 195.21 412.51
  C 200.83 408.41 198.18 399.55 191.00 399.54
  C 184.28 399.53 177.68 405.78 176.97 412.25
  C 176.69 414.79 176.33 420.81 174.50 423.25
  A 1.94 1.88 -82.8 0 1 173.75 423.85
  Q 169.97 425.59 169.42 426.21
  Q 164.83 431.36 169.08 436.37
  A 2.83 2.75 81.1 0 0 170.09 437.13
  L 173.81 438.80
  A 1.09 0.97 74.7 0 1 174.12 439.00
  C 176.50 441.15 177.20 446.86 177.70 450.67
  C 178.62 457.75 182.22 462.65 189.38 464.37
  C 193.66 465.40 198.74 462.68 198.84 457.90
  Q 198.96 452.48 193.42 450.20
  A 1.83 1.82 3.4 0 1 192.35 449.00
  Q 191.73 446.84 190.34 439.45
  C 189.73 436.16 188.24 433.67 185.61 431.66
  A 0.63 0.63 0.0 0 1 185.59 430.67"
/>
<path stroke="#7d8890" vector-effect="non-scaling-stroke" d="
  M 227.24 431.18
  A 0.53 0.52 43.2 0 1 227.27 432.01
  C 221.87 436.48 222.01 441.24 220.82 447.58
  A 2.76 2.74 -11.2 0 1 219.61 449.37
  C 218.29 450.21 216.16 451.03 215.07 452.53
  Q 212.96 455.47 213.95 458.79
  C 215.18 462.89 218.69 465.04 223.16 463.85
  C 234.01 460.94 235.22 452.20 236.58 442.58
  Q 236.81 441.01 238.01 439.27
  A 1.43 1.41 -86.3 0 1 238.56 438.78
  L 242.30 436.86
  A 2.32 2.32 0.0 0 0 243.09 436.20
  Q 247.30 430.58 242.50 425.74
  Q 241.99 425.22 238.58 423.68
  A 2.04 2.03 -3.8 0 1 237.72 422.93
  C 235.68 419.70 235.38 414.61 234.39 410.60
  Q 232.67 403.66 225.50 401.16
  Q 221.95 399.93 219.18 400.63
  C 214.11 401.92 212.42 407.72 215.41 411.74
  C 216.49 413.21 217.77 413.75 219.45 414.58
  A 2.80 2.79 -81.8 0 1 220.97 416.62
  C 222.07 422.94 222.29 427.63 227.24 431.18"
/>
</g>
<path fill="#00172a" d="
  M 92.83 347.19
  A 0.61 0.60 30.6 0 0 92.59 346.26
  Q 80.35 341.14 69.44 331.54
  C 57.76 321.27 48.48 304.74 46.46 288.93
  C 46.13 286.28 46.46 283.58 45.50 281.22
  A 0.95 0.94 -5.1 0 0 44.80 280.64
  Q 39.04 279.46 37.26 279.00
  Q 29.05 276.88 22.80 270.67
  Q 15.18 263.10 13.73 254.25
  C 12.30 245.51 12.06 238.24 11.45 229.00
  Q 10.62 216.25 15.33 206.83
  Q 18.14 201.20 24.09 195.58
  Q 29.91 190.08 37.58 189.57
  A 2.08 2.08 0.0 0 0 39.52 187.60
  C 40.54 166.60 48.64 144.58 64.72 130.51
  Q 76.28 120.41 90.80 114.97
  Q 98.82 111.96 113.29 110.47
  Q 130.32 108.72 138.28 108.34
  Q 140.44 108.23 144.06 107.70
  C 146.68 107.32 150.29 107.80 153.30 107.36
  C 157.47 106.76 161.88 106.94 165.57 106.60
  Q 176.03 105.64 185.53 105.04
  A 1.86 1.86 0.0 0 0 187.28 103.18
  L 187.28 84.96
  A 2.87 2.87 0.0 0 0 185.29 82.23
  Q 172.40 78.08 166.76 67.18
  C 161.01 56.09 161.81 40.77 170.42 31.15
  Q 174.96 26.08 182.29 22.41
  Q 183.78 21.67 184.99 21.46
  C 186.30 21.24 187.07 20.32 188.57 20.21
  Q 196.77 19.64 198.78 19.92
  Q 221.92 23.15 226.74 46.02
  Q 227.64 50.31 226.73 55.51
  Q 223.60 73.32 208.37 80.50
  A 2.92 2.92 0.0 0 0 206.72 83.46
  L 208.82 101.80
  A 0.87 0.86 10.0 0 0 209.31 102.49
  Q 210.37 103.01 212.50 102.82
  Q 232.63 101.08 248.32 100.38
  Q 252.21 100.21 255.66 99.73
  C 258.33 99.36 261.78 99.67 265.45 99.37
  Q 280.35 98.19 294.49 100.55
  Q 306.77 102.61 317.30 108.69
  Q 343.55 123.87 350.91 153.32
  Q 351.43 155.43 351.55 156.81
  Q 351.59 157.25 352.46 162.09
  A 2.25 2.25 0.0 0 0 354.56 163.95
  Q 367.41 164.65 376.09 173.98
  C 380.74 178.98 384.04 185.48 385.00 192.36
  Q 385.58 196.56 385.89 198.08
  C 386.61 201.56 386.28 204.67 386.84 208.12
  Q 387.17 210.16 387.21 212.14
  C 387.37 221.59 388.10 228.54 386.06 235.33
  Q 379.98 255.50 359.39 260.80
  A 1.13 1.13 0.0 0 0 358.55 261.98
  Q 358.84 265.56 358.39 270.25
  Q 356.67 288.10 346.79 303.70
  C 340.62 313.44 332.66 322.14 322.80 328.28
  Q 313.81 333.87 306.21 337.22
  A 1.19 1.18 -45.6 0 0 306.23 339.40
  Q 309.66 340.82 312.87 342.88
  Q 332.37 355.36 340.15 376.30
  C 343.98 386.62 344.90 398.75 340.83 409.00
  C 336.91 418.85 330.70 426.86 320.66 430.80
  A 2.33 2.31 78.7 0 0 319.19 433.02
  Q 319.55 446.57 317.92 460.50
  Q 315.98 477.10 312.80 492.62
  Q 308.82 512.00 303.50 531.98
  Q 303.11 533.43 300.35 539.91
  C 292.07 559.32 271.89 567.96 251.93 562.07
  Q 240.49 558.70 232.88 548.26
  Q 229.91 544.19 228.04 537.90
  Q 226.00 531.09 225.24 526.82
  A 2.57 2.57 0.0 0 0 222.71 524.70
  L 187.14 524.70
  A 2.44 2.44 0.0 0 0 184.73 526.78
  Q 183.95 531.85 182.29 537.13
  Q 178.94 547.79 170.88 554.72
  C 162.89 561.60 152.12 564.49 141.63 563.99
  C 126.15 563.25 113.75 553.50 108.12 539.12
  Q 107.09 536.49 104.60 527.46
  Q 99.99 510.76 93.85 475.33
  Q 93.41 472.79 93.18 468.84
  A 1.59 1.58 68.8 0 0 90.60 467.70
  C 80.67 475.73 67.91 474.73 58.28 466.51
  Q 47.66 457.44 46.59 442.20
  Q 45.01 419.74 49.41 401.85
  Q 53.31 385.98 64.12 371.11
  Q 74.61 356.69 91.96 347.95
  Q 92.40 347.73 92.83 347.19
  Z
  M 173.65 44.73
  A 22.56 22.53 -46.1 0 0 173.93 59.11
  A 22.54 22.54 0.0 0 0 194.51 74.02
  A 22.54 22.52 9.7 0 0 216.61 58.37
  A 22.59 22.57 39.5 0 0 214.90 40.62
  A 22.57 22.53 -5.6 0 0 201.95 30.01
  A 22.50 22.47 -49.5 0 0 185.06 31.34
  A 22.49 22.49 0.0 0 0 173.65 44.73
  Z
  M 54.38 167.24
  C 51.23 178.63 52.17 190.21 52.87 201.50
  Q 57.36 274.07 57.56 276.72
  Q 58.62 291.27 62.56 300.77
  Q 72.07 323.66 94.96 333.54
  Q 107.89 339.11 119.02 339.46
  Q 128.40 339.76 138.25 339.26
  Q 150.26 338.66 199.58 336.03
  A 1.12 1.10 -84.3 0 0 200.60 335.18
  Q 203.63 322.44 213.85 314.64
  A 0.77 0.77 0.0 0 0 213.78 313.36
  Q 208.19 310.00 206.20 304.23
  A 0.93 0.92 78.6 0 0 205.28 303.61
  Q 182.77 304.93 137.77 307.73
  Q 119.12 308.89 104.69 297.82
  Q 92.25 288.28 87.42 273.92
  Q 85.42 267.98 84.54 253.78
  Q 81.87 210.64 81.77 208.50
  C 80.65 186.14 93.76 166.32 114.79 159.30
  Q 120.80 157.29 140.01 155.84
  Q 214.48 150.23 254.52 147.19
  Q 271.33 145.92 277.43 147.13
  C 294.72 150.55 308.41 162.45 313.73 179.25
  Q 315.59 185.14 316.24 197.41
  Q 318.11 232.82 318.80 243.41
  Q 319.45 253.31 318.25 258.97
  Q 315.93 269.88 309.47 278.46
  C 302.19 288.15 290.44 295.87 278.37 297.56
  Q 271.16 298.58 266.99 298.97
  A 0.91 0.91 0.0 0 0 266.44 300.53
  Q 278.15 312.08 283.07 327.77
  A 0.90 0.88 -9.4 0 0 283.95 328.39
  C 318.31 327.21 344.60 301.79 346.57 267.47
  Q 346.90 261.65 346.63 256.25
  Q 345.72 237.83 341.66 168.00
  Q 341.19 159.98 339.03 152.53
  C 331.39 129.29 312.27 114.43 288.31 110.81
  Q 281.88 109.84 268.20 110.87
  Q 128.45 121.38 124.91 121.62
  Q 106.50 122.87 98.36 125.34
  C 77.53 131.66 60.68 145.93 54.38 167.24
  Z
  M 271.55 280.81
  C 288.73 279.98 302.24 265.48 301.74 248.41
  Q 301.36 235.28 299.33 200.30
  Q 298.57 187.12 296.96 182.97
  C 292.72 172.09 282.25 164.54 270.53 163.65
  Q 266.65 163.35 256.57 164.12
  Q 193.71 168.90 129.88 173.86
  C 115.75 174.95 104.07 183.24 100.18 197.00
  Q 98.75 202.07 99.60 216.13
  Q 101.68 250.13 101.69 250.63
  Q 102.08 264.70 104.28 270.12
  C 108.54 280.60 117.49 287.81 128.51 290.13
  Q 131.92 290.85 138.06 290.42
  Q 181.78 287.40 209.71 285.29
  A 2.60 2.58 21.2 0 0 211.27 284.61
  C 220.48 276.07 234.36 276.70 245.16 281.95
  A 5.59 5.57 56.0 0 0 248.03 282.51
  C 253.56 282.10 262.65 281.24 271.55 280.81
  Z
  M 354.45 176.39
  L 358.58 248.62
  A 0.57 0.56 -10.2 0 0 359.31 249.12
  Q 376.70 243.85 376.58 225.80
  Q 376.57 223.76 375.41 201.03
  Q 375.07 194.36 373.81 190.63
  C 371.02 182.35 364.38 175.73 355.38 175.44
  A 0.90 0.90 0.0 0 0 354.45 176.39
  Z
  M 22.47 236.02
  Q 22.91 243.24 23.37 248.10
  C 24.39 258.94 32.02 269.04 43.48 269.47
  A 0.99 0.98 -0.8 0 0 44.50 268.43
  Q 43.02 245.32 42.39 234.81
  Q 41.75 224.30 40.43 201.19
  A 0.99 0.98 -6.1 0 0 39.29 200.28
  C 27.97 202.08 21.61 213.03 21.91 223.92
  Q 22.04 228.79 22.47 236.02
  Z
  M 239.74 318.49
  Q 236.41 319.30 232.83 319.64
  Q 227.82 320.11 225.98 320.82
  Q 221.36 322.63 218.21 326.70
  Q 213.28 333.06 212.35 342.56
  Q 211.51 346.44 214.51 351.78
  Q 215.64 353.78 217.70 354.82
  C 220.95 356.46 221.92 351.95 222.86 349.93
  A 0.89 0.89 0.0 0 1 224.36 349.74
  Q 225.08 350.64 225.52 351.62
  C 228.88 359.18 232.08 366.97 238.83 369.43
  C 246.91 372.39 255.70 371.98 261.94 365.00
  C 270.38 355.55 275.46 345.33 270.77 332.50
  C 266.35 320.39 258.99 307.57 249.05 300.01
  Q 241.83 294.52 232.83 291.48
  C 226.34 289.28 219.53 291.74 219.42 299.01
  Q 219.35 304.12 224.19 305.86
  C 227.92 307.20 234.58 309.43 238.59 313.39
  Q 240.75 315.52 239.74 318.49
  Z
  M 295.28 358.34
  Q 305.38 368.98 316.03 379.21
  C 318.81 381.88 319.19 386.79 315.51 388.56
  C 312.97 389.78 309.52 387.35 307.69 385.82
  Q 296.11 376.14 285.20 363.80
  Q 284.34 362.83 281.65 360.25
  A 0.90 0.90 0.0 0 0 280.25 360.45
  Q 271.81 375.16 256.54 382.42
  A 0.65 0.65 0.0 0 0 256.32 383.43
  Q 264.92 393.57 274.85 402.48
  C 282.86 409.66 290.51 415.92 299.87 419.14
  C 309.89 422.59 321.73 420.27 327.57 411.08
  Q 331.43 405.01 331.89 395.74
  Q 332.70 379.67 321.82 366.43
  Q 309.07 350.74 288.44 347.41
  A 0.59 0.59 0.0 0 0 287.82 348.27
  Q 290.72 353.60 295.28 358.34
  Z
  M 214.75 368.89
  Q 213.81 368.02 211.99 366.67
  Q 204.30 360.96 201.44 351.48
  A 0.90 0.89 80.4 0 0 200.55 350.84
  L 117.14 354.69
  A 1.09 1.09 0.0 0 0 116.23 355.27
  Q 113.58 360.35 111.51 366.26
  C 104.67 385.77 102.97 406.79 102.53 428.50
  Q 101.84 463.61 109.26 497.23
  Q 113.94 518.40 116.61 528.70
  Q 118.68 536.67 120.65 539.73
  Q 128.71 552.29 144.31 552.30
  C 154.68 552.30 165.90 546.58 169.28 536.27
  Q 170.41 532.81 173.03 523.55
  C 175.54 514.72 183.83 511.75 192.50 511.70
  Q 217.80 511.56 219.74 511.64
  C 228.76 512.02 235.79 516.27 237.67 525.60
  Q 239.00 532.17 240.82 537.64
  C 243.99 547.18 254.31 552.25 263.99 552.24
  Q 279.49 552.22 287.71 540.55
  C 290.72 536.27 292.37 530.20 293.69 524.72
  Q 293.86 524.04 298.61 503.08
  C 302.05 487.90 305.46 471.67 306.45 456.27
  Q 307.20 444.65 307.22 434.36
  A 0.72 0.72 0.0 0 0 306.54 433.63
  Q 293.81 432.80 282.47 425.92
  A 0.80 0.80 0.0 0 0 281.26 426.61
  Q 281.42 443.18 281.38 465.22
  C 281.35 477.54 274.27 488.30 262.48 491.80
  Q 258.75 492.90 244.44 492.76
  Q 234.32 492.66 162.12 492.82
  C 158.11 492.83 152.96 493.04 149.77 491.82
  Q 131.29 484.74 131.32 465.74
  Q 131.42 411.51 131.30 400.22
  Q 131.20 389.94 132.74 385.80
  Q 135.78 377.63 143.65 372.91
  C 147.90 370.35 152.25 369.95 157.50 369.91
  Q 180.65 369.74 214.38 369.81
  A 0.53 0.53 0.0 0 0 214.75 368.89
  Z
  M 72.88 378.27
  C 59.79 395.64 54.87 418.20 57.10 439.63
  C 58.20 450.11 61.98 459.79 73.76 461.33
  C 81.24 462.31 89.08 457.50 88.70 449.49
  Q 87.47 423.58 90.48 397.69
  Q 92.46 380.63 96.85 366.08
  Q 98.10 362.49 99.38 358.93
  Q 99.53 358.51 99.41 358.25
  Q 99.21 357.82 98.77 358.01
  Q 83.27 364.89 72.88 378.27
  Z
  M 265.23 412.39
  C 256.77 404.89 249.25 395.90 242.05 386.51
  A 1.31 1.30 -18.8 0 0 241.02 386.01
  Q 208.46 386.12 156.76 386.19
  Q 150.62 386.20 148.21 390.60
  Q 147.01 392.77 147.04 400.58
  Q 147.22 458.27 147.26 465.50
  C 147.28 469.71 148.74 473.83 152.59 475.80
  Q 154.16 476.60 158.09 476.58
  Q 187.72 476.46 253.45 476.54
  Q 258.40 476.55 260.75 475.17
  Q 265.40 472.47 265.49 466.22
  Q 265.73 450.41 265.54 413.07
  A 0.90 0.90 0.0 0 0 265.23 412.39
  Z"
/>
<path fill="#2ba7d6" d="
  M 201.95 30.01
  Q 202.36 30.50 203.06 30.83
  A 0.40 0.40 0.0 0 1 203.16 31.49
  Q 202.10 32.43 200.46 32.76
  C 197.01 33.46 192.49 33.63 188.30 35.61
  Q 181.84 38.66 176.99 44.37
  Q 175.20 46.46 173.65 44.73
  A 22.49 22.49 0.0 0 1 185.06 31.34
  A 22.50 22.47 -49.5 0 1 201.95 30.01
  Z"
/>
<path fill="#008fc3" d="
  M 201.95 30.01
  A 22.57 22.53 -5.6 0 1 214.90 40.62
  A 22.59 22.57 39.5 0 1 216.61 58.37
  A 22.54 22.52 9.7 0 1 194.51 74.02
  A 22.54 22.54 0.0 0 1 173.93 59.11
  A 22.56 22.53 -46.1 0 1 173.65 44.73
  Q 175.20 46.46 176.99 44.37
  Q 181.84 38.66 188.30 35.61
  C 192.49 33.63 197.01 33.46 200.46 32.76
  Q 202.10 32.43 203.16 31.49
  A 0.40 0.40 0.0 0 0 203.06 30.83
  Q 202.36 30.50 201.95 30.01
  Z"
/>
<path fill="#2ba7d6" d="
  M 339.03 152.53
  C 332.16 145.66 324.93 137.07 318.02 131.98
  C 304.56 122.06 290.80 118.11 273.53 119.04
  Q 250.87 120.27 231.40 121.43
  C 220.80 122.07 204.72 123.93 192.92 124.75
  C 158.47 127.15 138.98 128.36 112.74 131.28
  Q 95.67 133.18 82.14 142.63
  C 74.18 148.20 70.85 150.34 66.68 154.18
  C 64.34 156.34 59.60 162.85 54.38 167.24
  C 60.68 145.93 77.53 131.66 98.36 125.34
  Q 106.50 122.87 124.91 121.62
  Q 128.45 121.38 268.20 110.87
  Q 281.88 109.84 288.31 110.81
  C 312.27 114.43 331.39 129.29 339.03 152.53
  Z"
/>
<path fill="#008fc3" d="
  M 339.03 152.53
  Q 341.19 159.98 341.66 168.00
  Q 345.72 237.83 346.63 256.25
  Q 346.90 261.65 346.57 267.47
  C 344.60 301.79 318.31 327.21 283.95 328.39
  A 0.90 0.88 -9.4 0 1 283.07 327.77
  Q 278.15 312.08 266.44 300.53
  A 0.91 0.91 0.0 0 1 266.99 298.97
  Q 271.16 298.58 278.37 297.56
  C 290.44 295.87 302.19 288.15 309.47 278.46
  Q 315.93 269.88 318.25 258.97
  Q 319.45 253.31 318.80 243.41
  Q 318.11 232.82 316.24 197.41
  Q 315.59 185.14 313.73 179.25
  C 308.41 162.45 294.72 150.55 277.43 147.13
  Q 271.33 145.92 254.52 147.19
  Q 214.48 150.23 140.01 155.84
  Q 120.80 157.29 114.79 159.30
  C 93.76 166.32 80.65 186.14 81.77 208.50
  Q 81.87 210.64 84.54 253.78
  Q 85.42 267.98 87.42 273.92
  Q 92.25 288.28 104.69 297.82
  Q 119.12 308.89 137.77 307.73
  Q 182.77 304.93 205.28 303.61
  A 0.93 0.92 78.6 0 1 206.20 304.23
  Q 208.19 310.00 213.78 313.36
  A 0.77 0.77 0.0 0 1 213.85 314.64
  Q 203.63 322.44 200.60 335.18
  A 1.12 1.10 -84.3 0 1 199.58 336.03
  Q 150.26 338.66 138.25 339.26
  Q 128.40 339.76 119.02 339.46
  Q 107.89 339.11 94.96 333.54
  Q 72.07 323.66 62.56 300.77
  Q 58.62 291.27 57.56 276.72
  Q 57.36 274.07 52.87 201.50
  C 52.17 190.21 51.23 178.63 54.38 167.24
  C 59.60 162.85 64.34 156.34 66.68 154.18
  C 70.85 150.34 74.18 148.20 82.14 142.63
  Q 95.67 133.18 112.74 131.28
  C 138.98 128.36 158.47 127.15 192.92 124.75
  C 204.72 123.93 220.80 122.07 231.40 121.43
  Q 250.87 120.27 273.53 119.04
  C 290.80 118.11 304.56 122.06 318.02 131.98
  C 324.93 137.07 332.16 145.66 339.03 152.53
  Z"
/>
<path fill="#09d6a4" d="
  M 271.55 280.81
  C 262.65 281.24 253.56 282.10 248.03 282.51
  A 5.59 5.57 56.0 0 1 245.16 281.95
  C 234.36 276.70 220.48 276.07 211.27 284.61
  A 2.60 2.58 21.2 0 1 209.71 285.29
  Q 181.78 287.40 138.06 290.42
  Q 131.92 290.85 128.51 290.13
  C 117.49 287.81 108.54 280.60 104.28 270.12
  Q 102.08 264.70 101.69 250.63
  Q 101.68 250.13 99.60 216.13
  Q 98.75 202.07 100.18 197.00
  C 104.07 183.24 115.75 174.95 129.88 173.86
  Q 193.71 168.90 256.57 164.12
  Q 266.65 163.35 270.53 163.65
  C 282.25 164.54 292.72 172.09 296.96 182.97
  Q 298.57 187.12 299.33 200.30
  Q 301.36 235.28 301.74 248.41
  C 302.24 265.48 288.73 279.98 271.55 280.81
  Z
  M 264.50 200.26
  C 264.26 194.55 261.13 191.76 255.51 191.99
  C 249.19 192.25 241.21 191.72 237.91 197.50
  Q 236.44 200.07 237.18 206.65
  Q 237.51 209.60 238.07 218.54
  Q 238.34 222.97 239.61 224.84
  Q 241.76 227.99 245.67 229.02
  A 0.77 0.70 -36.2 0 0 245.94 229.05
  L 257.67 228.54
  A 0.87 0.85 34.5 0 0 257.96 228.49
  Q 266.38 225.55 265.68 216.43
  Q 264.58 202.11 264.50 200.26
  Z
  M 167.9969 205.8512
  A 8.62 8.62 0.0 0 0 158.9234 197.7099
  L 150.1562 198.1847
  A 8.62 8.62 0.0 0 0 142.0150 207.2583
  L 143.1031 227.3488
  A 8.62 8.62 0.0 0 0 152.1766 235.4901
  L 160.9438 235.0153
  A 8.62 8.62 0.0 0 0 169.0850 225.9417
  L 167.9969 205.8512
  Z
  M 224.95 245.91
  Q 215.93 247.06 209.26 254.76
  C 205.90 258.63 203.07 263.62 208.02 267.43
  Q 211.22 269.89 215.39 267.54
  A 2.08 2.04 0.7 0 0 216.13 266.84
  C 218.59 262.91 221.85 259.65 226.63 259.04
  C 231.41 258.43 235.38 260.76 238.76 263.94
  A 2.08 2.04 -15.3 0 0 239.65 264.44
  Q 244.27 265.66 246.75 262.48
  C 250.58 257.54 246.59 253.43 242.37 250.53
  Q 233.97 244.76 224.95 245.91
  Z"
/>
<path fill="#008fc3" d="
  M 355.38 175.44
  C 364.38 175.73 371.02 182.35 373.81 190.63
  Q 375.07 194.36 375.41 201.03
  Q 376.57 223.76 376.58 225.80
  Q 376.70 243.85 359.31 249.12
  A 0.57 0.56 -10.2 0 1 358.58 248.62
  L 354.45 176.39
  A 0.90 0.90 0.0 0 1 355.38 175.44
  Z"
/>
<path fill="#00172a" d="
  M 255.51 191.99
  C 261.13 191.76 264.26 194.55 264.50 200.26
  Q 264.58 202.11 265.68 216.43
  Q 266.38 225.55 257.96 228.49
  A 0.87 0.85 34.5 0 1 257.67 228.54
  L 245.94 229.05
  A 0.77 0.70 -36.2 0 1 245.67 229.02
  Q 241.76 227.99 239.61 224.84
  Q 238.34 222.97 238.07 218.54
  Q 237.51 209.60 237.18 206.65
  Q 236.44 200.07 237.91 197.50
  C 241.21 191.72 249.19 192.25 255.51 191.99
  Z"
/>
<rect fill="#00172a" x="-13.01" y="-18.68" transform="translate(155.55,216.60) rotate(-3.1)" width="26.02" height="37.36" rx="8.62"/>
<path fill="#008fc3" d="
  M 42.39 234.81
  Q 43.02 245.32 44.50 268.43
  A 0.99 0.98 -0.8 0 1 43.48 269.47
  C 32.02 269.04 24.39 258.94 23.37 248.10
  Q 22.91 243.24 22.47 236.02
  Q 22.04 228.79 21.91 223.92
  C 21.61 213.03 27.97 202.08 39.29 200.28
  A 0.99 0.98 -6.1 0 1 40.43 201.19
  Q 41.75 224.30 42.39 234.81
  Z"
/>
<path fill="#00172a" d="
  M 226.63 259.04
  C 221.85 259.65 218.59 262.91 216.13 266.84
  A 2.08 2.04 0.7 0 1 215.39 267.54
  Q 211.22 269.89 208.02 267.43
  C 203.07 263.62 205.90 258.63 209.26 254.76
  Q 215.93 247.06 224.95 245.91
  Q 233.97 244.76 242.37 250.53
  C 246.59 253.43 250.58 257.54 246.75 262.48
  Q 244.27 265.66 239.65 264.44
  A 2.08 2.04 -15.3 0 1 238.76 263.94
  C 235.38 260.76 231.41 258.43 226.63 259.04
  Z"
/>
<path fill="#008fc3" d="
  M 212.35 342.56
  Q 221.73 332.43 232.13 327.99
  C 234.75 326.87 237.12 325.72 238.65 323.99
  Q 240.85 321.50 239.74 318.49
  Q 240.75 315.52 238.59 313.39
  C 234.58 309.43 227.92 307.20 224.19 305.86
  Q 219.35 304.12 219.42 299.01
  C 219.53 291.74 226.34 289.28 232.83 291.48
  Q 241.83 294.52 249.05 300.01
  C 258.99 307.57 266.35 320.39 270.77 332.50
  C 275.46 345.33 270.38 355.55 261.94 365.00
  C 255.70 371.98 246.91 372.39 238.83 369.43
  C 232.08 366.97 228.88 359.18 225.52 351.62
  Q 225.08 350.64 224.36 349.74
  A 0.89 0.89 0.0 0 0 222.86 349.93
  C 221.92 351.95 220.95 356.46 217.70 354.82
  Q 215.64 353.78 214.51 351.78
  Q 211.51 346.44 212.35 342.56
  Z"
/>
<path fill="#2ba7d6" d="
  M 239.74 318.49
  Q 240.85 321.50 238.65 323.99
  C 237.12 325.72 234.75 326.87 232.13 327.99
  Q 221.73 332.43 212.35 342.56
  Q 213.28 333.06 218.21 326.70
  Q 221.36 322.63 225.98 320.82
  Q 227.82 320.11 232.83 319.64
  Q 236.41 319.30 239.74 318.49
  Z"
/>
<path fill="#2ba7d6" d="
  M 321.82 366.43
  Q 309.18 360.17 295.28 358.34
  Q 290.72 353.60 287.82 348.27
  A 0.59 0.59 0.0 0 1 288.44 347.41
  Q 309.07 350.74 321.82 366.43
  Z"
/>
<path fill="#008fc3" d="
  M 214.75 368.89
  A 0.53 0.53 0.0 0 1 214.38 369.81
  Q 180.65 369.74 157.50 369.91
  C 152.25 369.95 147.90 370.35 143.65 372.91
  Q 135.78 377.63 132.74 385.80
  Q 131.20 389.94 131.30 400.22
  Q 131.42 411.51 131.32 465.74
  Q 131.29 484.74 149.77 491.82
  C 152.96 493.04 158.11 492.83 162.12 492.82
  Q 234.32 492.66 244.44 492.76
  Q 258.75 492.90 262.48 491.80
  C 274.27 488.30 281.35 477.54 281.38 465.22
  Q 281.42 443.18 281.26 426.61
  A 0.80 0.80 0.0 0 1 282.47 425.92
  Q 293.81 432.80 306.54 433.63
  A 0.72 0.72 0.0 0 1 307.22 434.36
  Q 307.20 444.65 306.45 456.27
  C 305.46 471.67 302.05 487.90 298.61 503.08
  Q 293.86 524.04 293.69 524.72
  C 292.37 530.20 290.72 536.27 287.71 540.55
  Q 279.49 552.22 263.99 552.24
  C 254.31 552.25 243.99 547.18 240.82 537.64
  Q 239.00 532.17 237.67 525.60
  C 235.79 516.27 228.76 512.02 219.74 511.64
  Q 217.80 511.56 192.50 511.70
  C 183.83 511.75 175.54 514.72 173.03 523.55
  Q 170.41 532.81 169.28 536.27
  C 165.90 546.58 154.68 552.30 144.31 552.30
  Q 128.71 552.29 120.65 539.73
  Q 118.68 536.67 116.61 528.70
  Q 113.94 518.40 109.26 497.23
  Q 101.84 463.61 102.53 428.50
  C 102.97 406.79 104.67 385.77 111.51 366.26
  Q 113.58 360.35 116.23 355.27
  A 1.09 1.09 0.0 0 1 117.14 354.69
  L 200.55 350.84
  A 0.90 0.89 80.4 0 1 201.44 351.48
  Q 204.30 360.96 211.99 366.67
  Q 213.81 368.02 214.75 368.89
  Z"
/>
<path fill="#008fc3" d="
  M 321.82 366.43
  Q 332.70 379.67 331.89 395.74
  Q 331.43 405.01 327.57 411.08
  C 321.73 420.27 309.89 422.59 299.87 419.14
  C 290.51 415.92 282.86 409.66 274.85 402.48
  Q 264.92 393.57 256.32 383.43
  A 0.65 0.65 0.0 0 1 256.54 382.42
  Q 271.81 375.16 280.25 360.45
  A 0.90 0.90 0.0 0 1 281.65 360.25
  Q 284.34 362.83 285.20 363.80
  Q 296.11 376.14 307.69 385.82
  C 309.52 387.35 312.97 389.78 315.51 388.56
  C 319.19 386.79 318.81 381.88 316.03 379.21
  Q 305.38 368.98 295.28 358.34
  Q 309.18 360.17 321.82 366.43
  Z"
/>
<path fill="#2ba7d6" d="
  M 96.85 366.08
  Q 90.52 367.72 84.97 370.82
  C 81.80 372.58 78.89 375.31 75.98 377.74
  Q 74.83 378.69 72.88 378.27
  Q 83.27 364.89 98.77 358.01
  Q 99.21 357.82 99.41 358.25
  Q 99.53 358.51 99.38 358.93
  Q 98.10 362.49 96.85 366.08
  Z"
/>
<path fill="#008fc3" d="
  M 96.85 366.08
  Q 92.46 380.63 90.48 397.69
  Q 87.47 423.58 88.70 449.49
  C 89.08 457.50 81.24 462.31 73.76 461.33
  C 61.98 459.79 58.20 450.11 57.10 439.63
  C 54.87 418.20 59.79 395.64 72.88 378.27
  Q 74.83 378.69 75.98 377.74
  C 78.89 375.31 81.80 372.58 84.97 370.82
  Q 90.52 367.72 96.85 366.08
  Z"
/>
<path fill="#f9f8f5" d="
  M 265.23 412.39
  A 0.90 0.90 0.0 0 1 265.54 413.07
  Q 265.73 450.41 265.49 466.22
  Q 265.40 472.47 260.75 475.17
  Q 258.40 476.55 253.45 476.54
  Q 187.72 476.46 158.09 476.58
  Q 154.16 476.60 152.59 475.80
  C 148.74 473.83 147.28 469.71 147.26 465.50
  Q 147.22 458.27 147.04 400.58
  Q 147.01 392.77 148.21 390.60
  Q 150.62 386.20 156.76 386.19
  Q 208.46 386.12 241.02 386.01
  A 1.31 1.30 -18.8 0 1 242.05 386.51
  C 249.25 395.90 256.77 404.89 265.23 412.39
  Z
  M 185.59 430.67
  C 189.62 427.29 190.19 420.77 191.19 415.81
  A 1.94 1.93 -9.6 0 1 192.11 414.52
  Q 194.05 413.35 195.21 412.51
  C 200.83 408.41 198.18 399.55 191.00 399.54
  C 184.28 399.53 177.68 405.78 176.97 412.25
  C 176.69 414.79 176.33 420.81 174.50 423.25
  A 1.94 1.88 -82.8 0 1 173.75 423.85
  Q 169.97 425.59 169.42 426.21
  Q 164.83 431.36 169.08 436.37
  A 2.83 2.75 81.1 0 0 170.09 437.13
  L 173.81 438.80
  A 1.09 0.97 74.7 0 1 174.12 439.00
  C 176.50 441.15 177.20 446.86 177.70 450.67
  C 178.62 457.75 182.22 462.65 189.38 464.37
  C 193.66 465.40 198.74 462.68 198.84 457.90
  Q 198.96 452.48 193.42 450.20
  A 1.83 1.82 3.4 0 1 192.35 449.00
  Q 191.73 446.84 190.34 439.45
  C 189.73 436.16 188.24 433.67 185.61 431.66
  A 0.63 0.63 0.0 0 1 185.59 430.67
  Z
  M 227.24 431.18
  A 0.53 0.52 43.2 0 1 227.27 432.01
  C 221.87 436.48 222.01 441.24 220.82 447.58
  A 2.76 2.74 -11.2 0 1 219.61 449.37
  C 218.29 450.21 216.16 451.03 215.07 452.53
  Q 212.96 455.47 213.95 458.79
  C 215.18 462.89 218.69 465.04 223.16 463.85
  C 234.01 460.94 235.22 452.20 236.58 442.58
  Q 236.81 441.01 238.01 439.27
  A 1.43 1.41 -86.3 0 1 238.56 438.78
  L 242.30 436.86
  A 2.32 2.32 0.0 0 0 243.09 436.20
  Q 247.30 430.58 242.50 425.74
  Q 241.99 425.22 238.58 423.68
  A 2.04 2.03 -3.8 0 1 237.72 422.93
  C 235.68 419.70 235.38 414.61 234.39 410.60
  Q 232.67 403.66 225.50 401.16
  Q 221.95 399.93 219.18 400.63
  C 214.11 401.92 212.42 407.72 215.41 411.74
  C 216.49 413.21 217.77 413.75 219.45 414.58
  A 2.80 2.79 -81.8 0 1 220.97 416.62
  C 222.07 422.94 222.29 427.63 227.24 431.18
  Z"
/>
<path fill="#00172a" d="
  M 185.61 431.66
  C 188.24 433.67 189.73 436.16 190.34 439.45
  Q 191.73 446.84 192.35 449.00
  A 1.83 1.82 3.4 0 0 193.42 450.20
  Q 198.96 452.48 198.84 457.90
  C 198.74 462.68 193.66 465.40 189.38 464.37
  C 182.22 462.65 178.62 457.75 177.70 450.67
  C 177.20 446.86 176.50 441.15 174.12 439.00
  A 1.09 0.97 74.7 0 0 173.81 438.80
  L 170.09 437.13
  A 2.83 2.75 81.1 0 1 169.08 436.37
  Q 164.83 431.36 169.42 426.21
  Q 169.97 425.59 173.75 423.85
  A 1.94 1.88 -82.8 0 0 174.50 423.25
  C 176.33 420.81 176.69 414.79 176.97 412.25
  C 177.68 405.78 184.28 399.53 191.00 399.54
  C 198.18 399.55 200.83 408.41 195.21 412.51
  Q 194.05 413.35 192.11 414.52
  A 1.94 1.93 -9.6 0 0 191.19 415.81
  C 190.19 420.77 189.62 427.29 185.59 430.67
  A 0.63 0.63 0.0 0 0 185.61 431.66
  Z"
/>
<path fill="#00172a" d="
  M 227.24 431.18
  C 222.29 427.63 222.07 422.94 220.97 416.62
  A 2.80 2.79 -81.8 0 0 219.45 414.58
  C 217.77 413.75 216.49 413.21 215.41 411.74
  C 212.42 407.72 214.11 401.92 219.18 400.63
  Q 221.95 399.93 225.50 401.16
  Q 232.67 403.66 234.39 410.60
  C 235.38 414.61 235.68 419.70 237.72 422.93
  A 2.04 2.03 -3.8 0 0 238.58 423.68
  Q 241.99 425.22 242.50 425.74
  Q 247.30 430.58 243.09 436.20
  A 2.32 2.32 0.0 0 1 242.30 436.86
  L 238.56 438.78
  A 1.43 1.41 -86.3 0 0 238.01 439.27
  Q 236.81 441.01 236.58 442.58
  C 235.22 452.20 234.01 460.94 223.16 463.85
  C 218.69 465.04 215.18 462.89 213.95 458.79
  Q 212.96 455.47 215.07 452.53
  C 216.16 451.03 218.29 450.21 219.61 449.37
  A 2.76 2.74 -11.2 0 0 220.82 447.58
  C 222.01 441.24 221.87 436.48 227.27 432.01
  A 0.53 0.52 43.2 0 0 227.24 431.18
  Z"
/>
</svg>
