<?xml version="1.0" encoding="UTF-8" standalone="no"?>
<!DOCTYPE svg PUBLIC "-//W3C//DTD SVG 1.0//EN" "http://www.w3.org/TR/2001/REC-SVG-20010904/DTD/svg10.dtd">
<svg xmlns="http://www.w3.org/2000/svg" version="1.0" viewBox="0.00 0.00 408.00 612.00">
<g stroke-width="2.00" fill="none" stroke-linecap="butt">
<path stroke="#005879" vector-effect="non-scaling-stroke" d="
  M 184.51 57.81
  A 19.61 19.60 -85.8 0 0 199.71 75.45
  A 19.63 19.63 0.0 0 0 214.46 72.95
  A 19.59 19.59 0.0 0 0 223.61 57.82"
/>
<path stroke="#106b84" vector-effect="non-scaling-stroke" d="
  M 223.61 57.82
  A 19.67 19.61 -57.8 0 0 221.09 46.62
  A 19.59 19.59 0.0 0 0 198.35 37.57
  A 19.61 19.60 -10.6 0 0 184.51 57.81"
/>
<path stroke="#10a4cf" vector-effect="non-scaling-stroke" d="
  M 223.61 57.82
  Q 218.87 47.98 211.26 45.22
  Q 204.24 42.68 198.00 44.79
  Q 189.35 47.71 184.51 57.81"
/>
<path stroke="#005879" vector-effect="non-scaling-stroke" d="
  M 77.68 157.30
  Q 73.58 166.84 73.61 177.51
  Q 73.61 180.68 73.69 202.14
  A 0.27 0.27 0.0 0 0 74.20 202.26
  C 81.18 188.38 91.12 174.75 104.27 166.03
  Q 112.41 160.63 124.00 161.80
  A 1.36 1.32 27.4 0 0 125.00 161.50
  C 129.86 157.49 134.97 156.96 141.02 156.96
  Q 161.40 156.97 259.70 156.97
  Q 273.92 156.97 279.17 158.48
  C 297.93 163.88 310.02 180.03 309.86 199.50
  Q 309.81 206.03 309.95 238.98
  Q 310.02 254.51 308.35 260.35
  C 303.97 275.69 292.17 286.50 276.91 290.98
  Q 271.93 292.45 261.50 292.49
  Q 184.83 292.80 132.49 292.35
  A 1.71 1.70 -74.1 0 0 131.04 293.16
  L 117.07 315.79
  A 0.77 0.76 28.0 0 0 117.41 316.89
  Q 125.15 320.33 133.75 320.32
  Q 200.50 320.24 262.13 320.35
  Q 283.72 320.39 289.25 319.15
  C 317.19 312.88 334.96 289.73 334.92 261.16
  Q 334.88 228.49 334.98 178.00
  Q 334.99 170.14 331.54 161.06"
/>
<path stroke="#106b84" vector-effect="non-scaling-stroke" d="
  M 331.54 161.06
  Q 323.77 139.63 304.98 128.91
  C 296.72 124.20 285.37 120.79 276.00 120.77
  Q 147.02 120.58 146.61 120.58
  C 131.61 120.52 122.32 120.47 110.73 124.97
  Q 87.59 133.94 77.68 157.30"
/>
<path stroke="#10a4cf" vector-effect="non-scaling-stroke" d="
  M 331.54 161.06
  Q 324.77 150.59 317.64 144.58
  Q 304.98 133.90 287.69 130.01
  Q 280.23 128.33 264.18 128.35
  Q 180.81 128.47 140.85 128.39
  C 127.96 128.37 117.88 129.18 107.13 133.61
  Q 90.07 140.65 77.68 157.30"
/>
<path stroke="#027a62" vector-effect="non-scaling-stroke" d="
  M 139.90 278.67
  Q 214.50 278.46 255.52 278.73
  Q 268.39 278.81 273.27 277.32
  C 286.89 273.19 296.25 261.18 296.28 246.75
  Q 296.35 223.46 296.29 200.51
  C 296.27 188.17 289.41 176.67 277.82 172.54
  Q 273.57 171.02 262.51 171.02
  Q 224.77 171.04 157.87 171.06
  A 0.93 0.93 0.0 0 0 156.94 171.99
  L 156.94 173.96
  A 1.07 1.06 -83.5 0 0 157.76 175.00
  Q 170.03 177.85 172.85 190.16
  Q 175.00 199.54 172.75 209.25
  Q 171.09 216.43 170.54 217.53
  A 0.47 0.46 18.1 0 0 170.88 218.19
  Q 171.22 218.25 172.14 218.04
  C 175.95 217.18 178.78 219.96 179.19 223.53
  C 180.02 230.78 170.12 235.97 164.25 236.85
  A 2.27 2.25 8.0 0 0 162.53 238.13
  C 156.11 251.95 147.54 265.26 139.56 278.06
  A 0.40 0.40 0.0 0 0 139.90 278.67"
/>
<path stroke="#106b84" vector-effect="non-scaling-stroke" d="
  M 108.79 185.32
  L 116.26 173.71
  A 0.29 0.29 0.0 0 0 115.89 173.29
  C 106.31 177.80 99.44 185.56 93.21 194.80"
/>
<path stroke="#005879" vector-effect="non-scaling-stroke" d="
  M 93.21 194.80
  Q 92.23 195.77 91.47 196.98
  Q 72.00 227.90 62.27 264.02
  Q 57.51 281.69 56.96 299.73
  C 56.25 322.87 67.06 344.60 88.46 354.77
  Q 92.41 356.65 100.02 358.00
  C 102.66 358.47 106.54 357.63 108.94 358.67
  Q 112.73 360.31 112.00 363.90
  Q 108.13 382.86 107.88 405.46
  C 107.63 427.55 109.10 450.12 117.35 470.72
  A 6.84 6.72 -60.9 0 1 117.76 472.21
  Q 118.29 475.45 118.33 476.75
  C 118.92 495.21 119.40 512.30 123.34 529.44
  C 124.12 532.87 125.60 536.62 126.60 539.40
  A 3.62 3.61 54.7 0 1 126.01 542.90
  C 121.79 548.13 108.63 561.22 125.52 562.96
  Q 140.50 564.50 156.22 563.17
  C 161.01 562.77 168.08 561.65 170.89 557.51
  Q 171.94 555.97 172.47 551.33
  Q 174.86 530.53 178.58 502.64
  C 179.06 499.04 179.30 492.81 184.30 493.01
  Q 201.81 493.70 222.53 493.06
  C 229.43 492.84 229.11 496.39 229.83 502.19
  Q 232.81 526.44 235.32 548.52
  C 236.00 554.52 236.26 558.74 241.77 560.97
  Q 245.63 562.53 248.26 562.81
  Q 263.19 564.42 277.50 563.41
  Q 284.58 562.91 288.18 561.65
  C 296.67 558.68 285.65 546.81 283.19 544.05
  Q 281.06 541.64 281.92 539.08
  Q 286.81 524.54 288.32 509.50
  Q 289.80 494.70 290.16 477.87
  C 290.21 475.33 290.77 472.71 291.61 470.29
  C 301.56 441.95 302.39 410.99 299.36 380.86
  Q 299.02 377.52 298.52 374.21
  C 297.83 369.63 296.34 363.37 302.79 363.32
  C 306.68 363.29 307.95 365.15 308.84 368.95
  Q 312.19 383.17 312.90 401.52
  Q 313.82 425.35 310.86 443.61
  Q 309.73 450.60 307.15 463.83
  Q 306.34 467.94 307.30 469.69
  Q 310.06 474.74 314.58 471.30
  C 317.82 468.83 319.46 466.82 322.74 467.09
  Q 326.84 467.42 326.77 471.79
  Q 326.68 476.97 322.67 480.24
  C 319.14 483.13 317.41 484.85 319.05 489.00
  C 320.68 493.12 324.97 494.22 328.90 492.64
  C 341.31 487.67 345.17 467.79 345.48 456.00
  Q 346.18 429.40 341.42 402.79
  Q 338.09 384.18 331.20 367.33
  C 324.71 351.46 312.91 337.95 296.55 332.27
  A 6.49 6.43 -38.8 0 0 293.57 331.96
  C 286.38 332.91 281.01 333.48 273.78 333.49
  Q 202.41 333.57 133.26 333.48
  Q 123.14 333.47 114.72 329.81
  C 108.01 326.90 100.42 320.18 104.52 312.26
  Q 109.82 302.00 116.81 291.31
  Q 127.69 274.66 140.39 253.39
  Q 150.57 236.32 157.97 215.71
  Q 161.70 205.29 161.58 194.53
  Q 161.51 188.59 156.45 185.48
  A 1.20 1.19 -58.1 0 0 154.82 185.86
  Q 148.01 196.53 140.19 207.19
  Q 137.73 210.54 134.94 216.20
  Q 133.69 218.75 130.98 219.07
  C 125.11 219.75 123.90 213.32 125.80 209.28
  Q 128.21 204.15 132.14 198.63
  Q 139.73 187.99 143.38 181.89
  Q 144.78 179.55 145.21 176.73
  A 3.04 3.04 0.0 0 0 143.73 173.63
  Q 135.74 169.06 129.60 176.42
  C 121.80 185.78 116.18 196.02 110.56 207.08
  A 2.19 1.99 82.0 0 1 110.24 207.55
  Q 107.00 211.20 103.21 208.57
  C 99.59 206.07 100.25 202.47 102.06 198.63
  Q 105.05 192.27 108.79 185.32"
/>
<path stroke="#10a4cf" vector-effect="non-scaling-stroke" d="
  M 93.21 194.80
  Q 93.20 194.99 93.22 195.09
  A 0.43 0.43 0.0 0 0 93.95 195.31
  Q 100.29 189.03 108.79 185.32"
/>
<path stroke="#005879" vector-effect="non-scaling-stroke" d="
  M 45.84 209.75
  Q 45.69 221.76 45.71 234.50
  Q 45.73 244.46 52.92 251.29
  A 0.75 0.74 -58.3 0 0 54.13 251.00
  L 59.43 236.70
  A 12.40 12.37 55.2 0 0 60.20 232.40
  L 60.22 195.69"
/>
<path stroke="#106b84" vector-effect="non-scaling-stroke" d="
  M 60.22 195.69
  L 60.14 190.58
  A 1.00 0.99 -12.5 0 0 58.73 189.69
  Q 45.00 195.80 45.84 209.75"
/>
<path stroke="#10a4cf" vector-effect="non-scaling-stroke" d="
  M 60.22 195.69
  Q 51.16 200.17 45.84 209.75"
/>
<path stroke="#005879" vector-effect="non-scaling-stroke" d="
  M 348.00 195.79
  L 348.00 253.74
  A 0.57 0.56 -3.2 0 0 348.63 254.30
  C 357.05 253.33 362.23 245.17 362.62 237.26
  Q 362.90 231.69 362.55 210.38"
/>
<path stroke="#106b84" vector-effect="non-scaling-stroke" d="
  M 362.55 210.38
  Q 363.59 194.74 349.06 189.60
  A 0.81 0.81 0.0 0 0 347.98 190.36
  L 348.00 195.79"
/>
<path stroke="#10a4cf" vector-effect="non-scaling-stroke" d="
  M 362.55 210.38
  Q 357.38 200.07 348.00 195.79"
/>
<path stroke="#027a62" vector-effect="non-scaling-stroke" d="
  M 250.91 224.76
  Q 244.72 224.76 238.80 218.70
  Q 237.02 216.87 233.82 217.21
  C 229.82 217.63 227.86 221.92 228.66 225.49
  Q 229.20 227.85 231.49 230.16
  C 236.68 235.36 243.48 238.20 250.91 238.20
  C 258.35 238.20 265.15 235.36 270.33 230.15
  Q 272.63 227.85 273.17 225.49
  C 273.97 221.92 272.01 217.63 268.01 217.21
  Q 264.81 216.87 263.02 218.70
  Q 257.11 224.76 250.91 224.76"
/>
<path stroke="#027a62" vector-effect="non-scaling-stroke" d="
  M 204.02 259.76
  Q 210.71 259.72 216.05 263.44
  C 219.54 265.87 223.27 272.62 228.76 269.01
  C 236.09 264.18 228.92 255.72 224.32 252.68
  Q 214.40 246.12 203.94 246.18
  Q 193.49 246.23 183.63 252.91
  C 179.07 256.00 172.00 264.54 179.38 269.28
  C 184.91 272.83 188.56 266.04 192.03 263.57
  Q 197.32 259.79 204.02 259.76"
/>
<path stroke="#005879" vector-effect="non-scaling-stroke" d="
  M 277.3992 374.5773
  A 22.35 22.35 0.0 0 0 255.0883 352.1884
  L 153.9284 352.0118
  A 22.35 22.35 0.0 0 0 131.5394 374.3228
  L 131.4208 442.3027
  A 22.35 22.35 0.0 0 0 153.7317 464.6916
  L 254.8916 464.8682
  A 22.35 22.35 0.0 0 0 277.2806 442.5572
  L 277.3992 374.5773"
/>
<path stroke="#78878c" vector-effect="non-scaling-stroke" d="
  M 263.87 374.95
  A 9.15 9.15 0.0 0 0 254.72 365.80
  L 153.94 365.80
  A 9.15 9.15 0.0 0 0 144.79 374.95
  L 144.79 442.09
  A 9.15 9.15 0.0 0 0 153.94 451.24
  L 254.72 451.24
  A 9.15 9.15 0.0 0 0 263.87 442.09
  L 263.87 374.95"
/>
<path stroke="#78878c" vector-effect="non-scaling-stroke" d="
  M 184.04 410.35
  A 0.76 0.75 -42.7 0 1 184.08 409.36
  C 188.41 404.88 189.21 399.12 189.82 392.98
  A 1.64 1.63 -3.9 0 1 191.08 391.55
  C 198.99 389.65 196.37 377.34 186.84 379.59
  C 181.99 380.74 178.52 386.93 177.73 391.47
  C 177.49 392.84 177.04 399.36 175.05 402.38
  C 174.16 403.73 172.59 403.89 171.23 404.73
  C 167.85 406.80 167.81 411.23 170.01 413.93
  Q 170.81 414.93 173.12 415.94
  Q 176.06 417.23 176.59 421.46
  C 177.45 428.24 178.00 434.95 184.38 439.14
  C 187.34 441.07 191.41 441.57 194.03 438.89
  C 197.02 435.81 195.59 430.84 191.65 429.33
  A 3.20 3.17 -79.8 0 1 189.61 426.35
  Q 189.56 417.20 184.04 410.35"
/>
<path stroke="#78878c" vector-effect="non-scaling-stroke" d="
  M 224.47 410.30
  Q 218.94 417.14 218.87 426.28
  A 3.20 3.17 79.9 0 1 216.82 429.25
  C 212.88 430.76 211.44 435.72 214.43 438.80
  C 217.04 441.49 221.11 441.00 224.07 439.07
  C 230.45 434.90 231.02 428.19 231.89 421.42
  Q 232.43 417.19 235.37 415.91
  Q 237.68 414.90 238.48 413.91
  C 240.68 411.21 240.65 406.78 237.28 404.71
  C 235.92 403.87 234.35 403.70 233.47 402.35
  C 231.48 399.33 231.05 392.81 230.81 391.44
  C 230.03 386.90 226.57 380.71 221.73 379.55
  C 212.21 377.29 209.56 389.58 217.47 391.50
  A 1.63 1.63 0.0 0 1 218.72 392.93
  C 219.32 399.07 220.11 404.82 224.43 409.31
  A 0.76 0.75 42.8 0 1 224.47 410.30"
/>
</g>
<path fill="#001f2e" d="
  M 310.05 324.38
  A 1.02 1.01 30.3 0 0 310.46 325.91
  C 321.95 331.09 332.31 343.18 338.14 354.10
  Q 345.59 368.05 349.72 383.51
  Q 358.78 417.42 357.63 453.18
  Q 357.10 469.66 351.34 484.61
  C 347.40 494.82 336.87 506.10 325.04 505.65
  Q 319.35 505.43 315.07 503.24
  C 307.55 499.38 303.95 491.20 304.86 482.90
  A 1.47 1.47 0.0 0 0 303.58 481.28
  L 303.54 481.27
  A 1.30 1.30 0.0 0 0 302.08 482.57
  Q 302.11 487.61 301.47 489.99
  A 4.88 4.69 54.5 0 0 301.29 491.22
  C 301.18 495.73 300.57 499.46 300.41 503.90
  Q 299.73 521.82 294.62 539.18
  A 2.64 2.63 -58.9 0 0 295.25 541.75
  Q 298.23 544.81 300.45 547.80
  Q 304.32 552.99 303.57 559.51
  C 302.45 569.16 293.88 573.45 285.06 574.53
  Q 268.75 576.54 250.98 575.08
  C 239.03 574.10 225.93 569.84 224.17 556.12
  Q 223.07 547.56 218.11 507.37
  A 1.54 1.54 0.0 0 0 216.58 506.02
  L 191.68 506.02
  A 1.19 1.19 0.0 0 0 190.50 507.06
  C 190.35 508.26 190.53 509.66 190.32 510.99
  Q 188.73 521.04 185.67 544.50
  Q 185.62 544.89 184.63 553.17
  C 183.63 561.51 180.66 567.14 173.00 570.77
  Q 166.07 574.05 157.61 574.88
  Q 142.78 576.34 125.88 574.92
  C 117.11 574.18 107.80 570.98 105.63 561.89
  Q 104.05 555.26 107.01 549.54
  Q 108.11 547.42 112.77 541.38
  A 1.93 1.90 -23.5 0 0 113.15 540.44
  Q 113.32 538.97 112.56 535.76
  C 108.21 517.33 106.86 499.24 106.49 478.25
  Q 106.47 477.04 106.00 474.00
  A 4.23 4.14 28.8 0 0 105.64 472.81
  Q 102.22 465.65 100.32 457.21
  Q 95.72 436.71 95.69 415.84
  C 95.66 401.05 96.57 385.60 99.21 370.70
  A 0.88 0.87 11.5 0 0 98.54 369.70
  C 93.69 368.57 88.36 367.53 83.79 365.51
  C 66.70 357.97 54.18 342.42 48.98 324.58
  Q 43.97 307.42 45.69 290.74
  Q 46.98 278.27 50.22 265.49
  A 1.58 1.58 0.0 0 0 49.29 263.64
  C 41.73 260.59 36.45 253.87 34.13 245.98
  Q 32.78 241.41 32.74 233.41
  Q 32.65 213.55 32.96 207.76
  Q 33.19 203.44 34.84 197.79
  Q 36.32 192.74 39.30 188.74
  Q 46.79 178.63 59.77 176.75
  A 1.76 1.76 0.0 0 0 61.27 174.93
  C 60.93 165.95 63.52 156.32 67.70 148.28
  Q 80.55 123.58 106.82 113.08
  Q 111.21 111.33 119.76 109.51
  Q 122.10 109.02 132.74 108.25
  Q 139.22 107.78 145.78 107.75
  Q 168.19 107.65 195.07 107.70
  A 0.83 0.83 0.0 0 0 195.90 106.88
  Q 196.05 93.81 196.08 91.00
  Q 196.10 89.13 195.12 88.12
  A 0.47 0.33 68.9 0 0 194.97 88.02
  Q 176.70 80.65 173.17 63.39
  C 171.67 56.09 172.55 47.17 176.54 40.11
  Q 183.12 28.46 196.59 24.89
  A 1.16 0.88 26.3 0 1 196.80 24.85
  L 203.62 24.20
  A 4.00 3.39 -40.3 0 1 204.29 24.20
  L 211.04 24.84
  Q 211.10 24.85 211.16 24.86
  Q 223.12 28.27 229.51 36.80
  Q 237.37 47.29 235.83 60.38
  Q 235.42 63.90 233.62 68.39
  Q 227.90 82.63 213.54 87.94
  A 1.37 1.36 -10.2 0 0 212.64 89.22
  L 212.64 106.95
  A 0.84 0.84 0.0 0 0 213.49 107.79
  Q 241.25 107.63 268.00 107.91
  Q 275.81 107.99 285.00 109.24
  Q 299.42 111.18 312.49 118.52
  Q 323.52 124.72 332.72 136.10
  Q 346.37 152.99 347.41 175.09
  A 1.51 1.51 0.0 0 0 348.62 176.49
  Q 367.72 180.30 373.44 196.76
  Q 375.37 202.31 375.47 213.07
  Q 375.65 230.64 375.12 239.21
  Q 374.65 246.62 370.43 253.91
  C 365.65 262.17 358.29 266.08 349.00 267.66
  A 0.72 0.71 88.4 0 0 348.41 268.29
  Q 348.23 269.91 346.55 277.09
  Q 339.59 306.89 313.55 322.40
  C 312.32 323.13 310.71 323.49 310.05 324.38
  Z
  M 184.51 57.81
  A 19.61 19.60 -85.8 0 0 199.71 75.45
  A 19.63 19.63 0.0 0 0 214.46 72.95
  A 19.59 19.59 0.0 0 0 223.61 57.82
  A 19.67 19.61 -57.8 0 0 221.09 46.62
  A 19.59 19.59 0.0 0 0 198.35 37.57
  A 19.61 19.60 -10.6 0 0 184.51 57.81
  Z
  M 77.68 157.30
  Q 73.58 166.84 73.61 177.51
  Q 73.61 180.68 73.69 202.14
  A 0.27 0.27 0.0 0 0 74.20 202.26
  C 81.18 188.38 91.12 174.75 104.27 166.03
  Q 112.41 160.63 124.00 161.80
  A 1.36 1.32 27.4 0 0 125.00 161.50
  C 129.86 157.49 134.97 156.96 141.02 156.96
  Q 161.40 156.97 259.70 156.97
  Q 273.92 156.97 279.17 158.48
  C 297.93 163.88 310.02 180.03 309.86 199.50
  Q 309.81 206.03 309.95 238.98
  Q 310.02 254.51 308.35 260.35
  C 303.97 275.69 292.17 286.50 276.91 290.98
  Q 271.93 292.45 261.50 292.49
  Q 184.83 292.80 132.49 292.35
  A 1.71 1.70 -74.1 0 0 131.04 293.16
  L 117.07 315.79
  A 0.77 0.76 28.0 0 0 117.41 316.89
  Q 125.15 320.33 133.75 320.32
  Q 200.50 320.24 262.13 320.35
  Q 283.72 320.39 289.25 319.15
  C 317.19 312.88 334.96 289.73 334.92 261.16
  Q 334.88 228.49 334.98 178.00
  Q 334.99 170.14 331.54 161.06
  Q 323.77 139.63 304.98 128.91
  C 296.72 124.20 285.37 120.79 276.00 120.77
  Q 147.02 120.58 146.61 120.58
  C 131.61 120.52 122.32 120.47 110.73 124.97
  Q 87.59 133.94 77.68 157.30
  Z
  M 139.90 278.67
  Q 214.50 278.46 255.52 278.73
  Q 268.39 278.81 273.27 277.32
  C 286.89 273.19 296.25 261.18 296.28 246.75
  Q 296.35 223.46 296.29 200.51
  C 296.27 188.17 289.41 176.67 277.82 172.54
  Q 273.57 171.02 262.51 171.02
  Q 224.77 171.04 157.87 171.06
  A 0.93 0.93 0.0 0 0 156.94 171.99
  L 156.94 173.96
  A 1.07 1.06 -83.5 0 0 157.76 175.00
  Q 170.03 177.85 172.85 190.16
  Q 175.00 199.54 172.75 209.25
  Q 171.09 216.43 170.54 217.53
  A 0.47 0.46 18.1 0 0 170.88 218.19
  Q 171.22 218.25 172.14 218.04
  C 175.95 217.18 178.78 219.96 179.19 223.53
  C 180.02 230.78 170.12 235.97 164.25 236.85
  A 2.27 2.25 8.0 0 0 162.53 238.13
  C 156.11 251.95 147.54 265.26 139.56 278.06
  A 0.40 0.40 0.0 0 0 139.90 278.67
  Z
  M 108.79 185.32
  L 116.26 173.71
  A 0.29 0.29 0.0 0 0 115.89 173.29
  C 106.31 177.80 99.44 185.56 93.21 194.80
  Q 92.23 195.77 91.47 196.98
  Q 72.00 227.90 62.27 264.02
  Q 57.51 281.69 56.96 299.73
  C 56.25 322.87 67.06 344.60 88.46 354.77
  Q 92.41 356.65 100.02 358.00
  C 102.66 358.47 106.54 357.63 108.94 358.67
  Q 112.73 360.31 112.00 363.90
  Q 108.13 382.86 107.88 405.46
  C 107.63 427.55 109.10 450.12 117.35 470.72
  A 6.84 6.72 -60.9 0 1 117.76 472.21
  Q 118.29 475.45 118.33 476.75
  C 118.92 495.21 119.40 512.30 123.34 529.44
  C 124.12 532.87 125.60 536.62 126.60 539.40
  A 3.62 3.61 54.7 0 1 126.01 542.90
  C 121.79 548.13 108.63 561.22 125.52 562.96
  Q 140.50 564.50 156.22 563.17
  C 161.01 562.77 168.08 561.65 170.89 557.51
  Q 171.94 555.97 172.47 551.33
  Q 174.86 530.53 178.58 502.64
  C 179.06 499.04 179.30 492.81 184.30 493.01
  Q 201.81 493.70 222.53 493.06
  C 229.43 492.84 229.11 496.39 229.83 502.19
  Q 232.81 526.44 235.32 548.52
  C 236.00 554.52 236.26 558.74 241.77 560.97
  Q 245.63 562.53 248.26 562.81
  Q 263.19 564.42 277.50 563.41
  Q 284.58 562.91 288.18 561.65
  C 296.67 558.68 285.65 546.81 283.19 544.05
  Q 281.06 541.64 281.92 539.08
  Q 286.81 524.54 288.32 509.50
  Q 289.80 494.70 290.16 477.87
  C 290.21 475.33 290.77 472.71 291.61 470.29
  C 301.56 441.95 302.39 410.99 299.36 380.86
  Q 299.02 377.52 298.52 374.21
  C 297.83 369.63 296.34 363.37 302.79 363.32
  C 306.68 363.29 307.95 365.15 308.84 368.95
  Q 312.19 383.17 312.90 401.52
  Q 313.82 425.35 310.86 443.61
  Q 309.73 450.60 307.15 463.83
  Q 306.34 467.94 307.30 469.69
  Q 310.06 474.74 314.58 471.30
  C 317.82 468.83 319.46 466.82 322.74 467.09
  Q 326.84 467.42 326.77 471.79
  Q 326.68 476.97 322.67 480.24
  C 319.14 483.13 317.41 484.85 319.05 489.00
  C 320.68 493.12 324.97 494.22 328.90 492.64
  C 341.31 487.67 345.17 467.79 345.48 456.00
  Q 346.18 429.40 341.42 402.79
  Q 338.09 384.18 331.20 367.33
  C 324.71 351.46 312.91 337.95 296.55 332.27
  A 6.49 6.43 -38.8 0 0 293.57 331.96
  C 286.38 332.91 281.01 333.48 273.78 333.49
  Q 202.41 333.57 133.26 333.48
  Q 123.14 333.47 114.72 329.81
  C 108.01 326.90 100.42 320.18 104.52 312.26
  Q 109.82 302.00 116.81 291.31
  Q 127.69 274.66 140.39 253.39
  Q 150.57 236.32 157.97 215.71
  Q 161.70 205.29 161.58 194.53
  Q 161.51 188.59 156.45 185.48
  A 1.20 1.19 -58.1 0 0 154.82 185.86
  Q 148.01 196.53 140.19 207.19
  Q 137.73 210.54 134.94 216.20
  Q 133.69 218.75 130.98 219.07
  C 125.11 219.75 123.90 213.32 125.80 209.28
  Q 128.21 204.15 132.14 198.63
  Q 139.73 187.99 143.38 181.89
  Q 144.78 179.55 145.21 176.73
  A 3.04 3.04 0.0 0 0 143.73 173.63
  Q 135.74 169.06 129.60 176.42
  C 121.80 185.78 116.18 196.02 110.56 207.08
  A 2.19 1.99 82.0 0 1 110.24 207.55
  Q 107.00 211.20 103.21 208.57
  C 99.59 206.07 100.25 202.47 102.06 198.63
  Q 105.05 192.27 108.79 185.32
  Z
  M 45.84 209.75
  Q 45.69 221.76 45.71 234.50
  Q 45.73 244.46 52.92 251.29
  A 0.75 0.74 -58.3 0 0 54.13 251.00
  L 59.43 236.70
  A 12.40 12.37 55.2 0 0 60.20 232.40
  L 60.22 195.69
  L 60.14 190.58
  A 1.00 0.99 -12.5 0 0 58.73 189.69
  Q 45.00 195.80 45.84 209.75
  Z
  M 348.00 195.79
  L 348.00 253.74
  A 0.57 0.56 -3.2 0 0 348.63 254.30
  C 357.05 253.33 362.23 245.17 362.62 237.26
  Q 362.90 231.69 362.55 210.38
  Q 363.59 194.74 349.06 189.60
  A 0.81 0.81 0.0 0 0 347.98 190.36
  L 348.00 195.79
  Z"
/>
<path fill="#20b7da" d="
  M 223.61 57.82
  Q 218.87 47.98 211.26 45.22
  Q 204.24 42.68 198.00 44.79
  Q 189.35 47.71 184.51 57.81
  A 19.61 19.60 -10.6 0 1 198.35 37.57
  A 19.59 19.59 0.0 0 1 221.09 46.62
  A 19.67 19.61 -57.8 0 1 223.61 57.82
  Z"
/>
<path fill="#0091c4" d="
  M 223.61 57.82
  A 19.59 19.59 0.0 0 1 214.46 72.95
  A 19.63 19.63 0.0 0 1 199.71 75.45
  A 19.61 19.60 -85.8 0 1 184.51 57.81
  Q 189.35 47.71 198.00 44.79
  Q 204.24 42.68 211.26 45.22
  Q 218.87 47.98 223.61 57.82
  Z"
/>
<path fill="#20b7da" d="
  M 331.54 161.06
  Q 324.77 150.59 317.64 144.58
  Q 304.98 133.90 287.69 130.01
  Q 280.23 128.33 264.18 128.35
  Q 180.81 128.47 140.85 128.39
  C 127.96 128.37 117.88 129.18 107.13 133.61
  Q 90.07 140.65 77.68 157.30
  Q 87.59 133.94 110.73 124.97
  C 122.32 120.47 131.61 120.52 146.61 120.58
  Q 147.02 120.58 276.00 120.77
  C 285.37 120.79 296.72 124.20 304.98 128.91
  Q 323.77 139.63 331.54 161.06
  Z"
/>
<path fill="#0091c4" d="
  M 331.54 161.06
  Q 334.99 170.14 334.98 178.00
  Q 334.88 228.49 334.92 261.16
  C 334.96 289.73 317.19 312.88 289.25 319.15
  Q 283.72 320.39 262.13 320.35
  Q 200.50 320.24 133.75 320.32
  Q 125.15 320.33 117.41 316.89
  A 0.77 0.76 28.0 0 1 117.07 315.79
  L 131.04 293.16
  A 1.71 1.70 -74.1 0 1 132.49 292.35
  Q 184.83 292.80 261.50 292.49
  Q 271.93 292.45 276.91 290.98
  C 292.17 286.50 303.97 275.69 308.35 260.35
  Q 310.02 254.51 309.95 238.98
  Q 309.81 206.03 309.86 199.50
  C 310.02 180.03 297.93 163.88 279.17 158.48
  Q 273.92 156.97 259.70 156.97
  Q 161.40 156.97 141.02 156.96
  C 134.97 156.96 129.86 157.49 125.00 161.50
  A 1.36 1.32 27.4 0 1 124.00 161.80
  Q 112.41 160.63 104.27 166.03
  C 91.12 174.75 81.18 188.38 74.20 202.26
  A 0.27 0.27 0.0 0 1 73.69 202.14
  Q 73.61 180.68 73.61 177.51
  Q 73.58 166.84 77.68 157.30
  Q 90.07 140.65 107.13 133.61
  C 117.88 129.18 127.96 128.37 140.85 128.39
  Q 180.81 128.47 264.18 128.35
  Q 280.23 128.33 287.69 130.01
  Q 304.98 133.90 317.64 144.58
  Q 324.77 150.59 331.54 161.06
  Z"
/>
<path fill="#03d496" d="
  M 139.90 278.67
  A 0.40 0.40 0.0 0 1 139.56 278.06
  C 147.54 265.26 156.11 251.95 162.53 238.13
  A 2.27 2.25 8.0 0 1 164.25 236.85
  C 170.12 235.97 180.02 230.78 179.19 223.53
  C 178.78 219.96 175.95 217.18 172.14 218.04
  Q 171.22 218.25 170.88 218.19
  A 0.47 0.46 18.1 0 1 170.54 217.53
  Q 171.09 216.43 172.75 209.25
  Q 175.00 199.54 172.85 190.16
  Q 170.03 177.85 157.76 175.00
  A 1.07 1.06 -83.5 0 1 156.94 173.96
  L 156.94 171.99
  A 0.93 0.93 0.0 0 1 157.87 171.06
  Q 224.77 171.04 262.51 171.02
  Q 273.57 171.02 277.82 172.54
  C 289.41 176.67 296.27 188.17 296.29 200.51
  Q 296.35 223.46 296.28 246.75
  C 296.25 261.18 286.89 273.19 273.27 277.32
  Q 268.39 278.81 255.52 278.73
  Q 214.50 278.46 139.90 278.67
  Z
  M 250.91 224.76
  Q 244.72 224.76 238.80 218.70
  Q 237.02 216.87 233.82 217.21
  C 229.82 217.63 227.86 221.92 228.66 225.49
  Q 229.20 227.85 231.49 230.16
  C 236.68 235.36 243.48 238.20 250.91 238.20
  C 258.35 238.20 265.15 235.36 270.33 230.15
  Q 272.63 227.85 273.17 225.49
  C 273.97 221.92 272.01 217.63 268.01 217.21
  Q 264.81 216.87 263.02 218.70
  Q 257.11 224.76 250.91 224.76
  Z
  M 204.02 259.76
  Q 210.71 259.72 216.05 263.44
  C 219.54 265.87 223.27 272.62 228.76 269.01
  C 236.09 264.18 228.92 255.72 224.32 252.68
  Q 214.40 246.12 203.94 246.18
  Q 193.49 246.23 183.63 252.91
  C 179.07 256.00 172.00 264.54 179.38 269.28
  C 184.91 272.83 188.56 266.04 192.03 263.57
  Q 197.32 259.79 204.02 259.76
  Z"
/>
<path fill="#0091c4" d="
  M 93.21 194.80
  Q 93.20 194.99 93.22 195.09
  A 0.43 0.43 0.0 0 0 93.95 195.31
  Q 100.29 189.03 108.79 185.32
  Q 105.05 192.27 102.06 198.63
  C 100.25 202.47 99.59 206.07 103.21 208.57
  Q 107.00 211.20 110.24 207.55
  A 2.19 1.99 82.0 0 0 110.56 207.08
  C 116.18 196.02 121.80 185.78 129.60 176.42
  Q 135.74 169.06 143.73 173.63
  A 3.04 3.04 0.0 0 1 145.21 176.73
  Q 144.78 179.55 143.38 181.89
  Q 139.73 187.99 132.14 198.63
  Q 128.21 204.15 125.80 209.28
  C 123.90 213.32 125.11 219.75 130.98 219.07
  Q 133.69 218.75 134.94 216.20
  Q 137.73 210.54 140.19 207.19
  Q 148.01 196.53 154.82 185.86
  A 1.20 1.19 -58.1 0 1 156.45 185.48
  Q 161.51 188.59 161.58 194.53
  Q 161.70 205.29 157.97 215.71
  Q 150.57 236.32 140.39 253.39
  Q 127.69 274.66 116.81 291.31
  Q 109.82 302.00 104.52 312.26
  C 100.42 320.18 108.01 326.90 114.72 329.81
  Q 123.14 333.47 133.26 333.48
  Q 202.41 333.57 273.78 333.49
  C 281.01 333.48 286.38 332.91 293.57 331.96
  A 6.49 6.43 -38.8 0 1 296.55 332.27
  C 312.91 337.95 324.71 351.46 331.20 367.33
  Q 338.09 384.18 341.42 402.79
  Q 346.18 429.40 345.48 456.00
  C 345.17 467.79 341.31 487.67 328.90 492.64
  C 324.97 494.22 320.68 493.12 319.05 489.00
  C 317.41 484.85 319.14 483.13 322.67 480.24
  Q 326.68 476.97 326.77 471.79
  Q 326.84 467.42 322.74 467.09
  C 319.46 466.82 317.82 468.83 314.58 471.30
  Q 310.06 474.74 307.30 469.69
  Q 306.34 467.94 307.15 463.83
  Q 309.73 450.60 310.86 443.61
  Q 313.82 425.35 312.90 401.52
  Q 312.19 383.17 308.84 368.95
  C 307.95 365.15 306.68 363.29 302.79 363.32
  C 296.34 363.37 297.83 369.63 298.52 374.21
  Q 299.02 377.52 299.36 380.86
  C 302.39 410.99 301.56 441.95 291.61 470.29
  C 290.77 472.71 290.21 475.33 290.16 477.87
  Q 289.80 494.70 288.32 509.50
  Q 286.81 524.54 281.92 539.08
  Q 281.06 541.64 283.19 544.05
  C 285.65 546.81 296.67 558.68 288.18 561.65
  Q 284.58 562.91 277.50 563.41
  Q 263.19 564.42 248.26 562.81
  Q 245.63 562.53 241.77 560.97
  C 236.26 558.74 236.00 554.52 235.32 548.52
  Q 232.81 526.44 229.83 502.19
  C 229.11 496.39 229.43 492.84 222.53 493.06
  Q 201.81 493.70 184.30 493.01
  C 179.30 492.81 179.06 499.04 178.58 502.64
  Q 174.86 530.53 172.47 551.33
  Q 171.94 555.97 170.89 557.51
  C 168.08 561.65 161.01 562.77 156.22 563.17
  Q 140.50 564.50 125.52 562.96
  C 108.63 561.22 121.79 548.13 126.01 542.90
  A 3.62 3.61 54.7 0 0 126.60 539.40
  C 125.60 536.62 124.12 532.87 123.34 529.44
  C 119.40 512.30 118.92 495.21 118.33 476.75
  Q 118.29 475.45 117.76 472.21
  A 6.84 6.72 -60.9 0 0 117.35 470.72
  C 109.10 450.12 107.63 427.55 107.88 405.46
  Q 108.13 382.86 112.00 363.90
  Q 112.73 360.31 108.94 358.67
  C 106.54 357.63 102.66 358.47 100.02 358.00
  Q 92.41 356.65 88.46 354.77
  C 67.06 344.60 56.25 322.87 56.96 299.73
  Q 57.51 281.69 62.27 264.02
  Q 72.00 227.90 91.47 196.98
  Q 92.23 195.77 93.21 194.80
  Z
  M 277.3992 374.5773
  A 22.35 22.35 0.0 0 0 255.0883 352.1884
  L 153.9284 352.0118
  A 22.35 22.35 0.0 0 0 131.5394 374.3228
  L 131.4208 442.3027
  A 22.35 22.35 0.0 0 0 153.7317 464.6916
  L 254.8916 464.8682
  A 22.35 22.35 0.0 0 0 277.2806 442.5572
  L 277.3992 374.5773
  Z"
/>
<path fill="#20b7da" d="
  M 108.79 185.32
  Q 100.29 189.03 93.95 195.31
  A 0.43 0.43 0.0 0 1 93.22 195.09
  Q 93.20 194.99 93.21 194.80
  C 99.44 185.56 106.31 177.80 115.89 173.29
  A 0.29 0.29 0.0 0 1 116.26 173.71
  L 108.79 185.32
  Z"
/>
<path fill="#20b7da" d="
  M 60.22 195.69
  Q 51.16 200.17 45.84 209.75
  Q 45.00 195.80 58.73 189.69
  A 1.00 0.99 -12.5 0 1 60.14 190.58
  L 60.22 195.69
  Z"
/>
<path fill="#20b7da" d="
  M 362.55 210.38
  Q 357.38 200.07 348.00 195.79
  L 347.98 190.36
  A 0.81 0.81 0.0 0 1 349.06 189.60
  Q 363.59 194.74 362.55 210.38
  Z"
/>
<path fill="#0091c4" d="
  M 60.22 195.69
  L 60.20 232.40
  A 12.40 12.37 55.2 0 1 59.43 236.70
  L 54.13 251.00
  A 0.75 0.74 -58.3 0 1 52.92 251.29
  Q 45.73 244.46 45.71 234.50
  Q 45.69 221.76 45.84 209.75
  Q 51.16 200.17 60.22 195.69
  Z"
/>
<path fill="#0091c4" d="
  M 362.55 210.38
  Q 362.90 231.69 362.62 237.26
  C 362.23 245.17 357.05 253.33 348.63 254.30
  A 0.57 0.56 -3.2 0 1 348.00 253.74
  L 348.00 195.79
  Q 357.38 200.07 362.55 210.38
  Z"
/>
<path fill="#001f2e" d="
  M 250.91 238.20
  C 243.48 238.20 236.68 235.36 231.49 230.16
  Q 229.20 227.85 228.66 225.49
  C 227.86 221.92 229.82 217.63 233.82 217.21
  Q 237.02 216.87 238.80 218.70
  Q 244.72 224.76 250.91 224.76
  Q 257.11 224.76 263.02 218.70
  Q 264.81 216.87 268.01 217.21
  C 272.01 217.63 273.97 221.92 273.17 225.49
  Q 272.63 227.85 270.33 230.15
  C 265.15 235.36 258.35 238.20 250.91 238.20
  Z"
/>
<path fill="#001f2e" d="
  M 203.94 246.18
  Q 214.40 246.12 224.32 252.68
  C 228.92 255.72 236.09 264.18 228.76 269.01
  C 223.27 272.62 219.54 265.87 216.05 263.44
  Q 210.71 259.72 204.02 259.76
  Q 197.32 259.79 192.03 263.57
  C 188.56 266.04 184.91 272.83 179.38 269.28
  C 172.00 264.54 179.07 256.00 183.63 252.91
  Q 193.49 246.23 203.94 246.18
  Z"
/>
<path fill="#001f2e" d="
  M 277.2806 442.5572
  A 22.35 22.35 0.0 0 1 254.8916 464.8682
  L 153.7317 464.6916
  A 22.35 22.35 0.0 0 1 131.4208 442.3027
  L 131.5394 374.3228
  A 22.35 22.35 0.0 0 1 153.9284 352.0118
  L 255.0883 352.1884
  A 22.35 22.35 0.0 0 1 277.3992 374.5773
  L 277.2806 442.5572
  Z
  M 263.87 374.95
  A 9.15 9.15 0.0 0 0 254.72 365.80
  L 153.94 365.80
  A 9.15 9.15 0.0 0 0 144.79 374.95
  L 144.79 442.09
  A 9.15 9.15 0.0 0 0 153.94 451.24
  L 254.72 451.24
  A 9.15 9.15 0.0 0 0 263.87 442.09
  L 263.87 374.95
  Z"
/>
<path fill="#efeeea" d="
  M 263.87 442.09
  A 9.15 9.15 0.0 0 1 254.72 451.24
  L 153.94 451.24
  A 9.15 9.15 0.0 0 1 144.79 442.09
  L 144.79 374.95
  A 9.15 9.15 0.0 0 1 153.94 365.80
  L 254.72 365.80
  A 9.15 9.15 0.0 0 1 263.87 374.95
  L 263.87 442.09
  Z
  M 184.04 410.35
  A 0.76 0.75 -42.7 0 1 184.08 409.36
  C 188.41 404.88 189.21 399.12 189.82 392.98
  A 1.64 1.63 -3.9 0 1 191.08 391.55
  C 198.99 389.65 196.37 377.34 186.84 379.59
  C 181.99 380.74 178.52 386.93 177.73 391.47
  C 177.49 392.84 177.04 399.36 175.05 402.38
  C 174.16 403.73 172.59 403.89 171.23 404.73
  C 167.85 406.80 167.81 411.23 170.01 413.93
  Q 170.81 414.93 173.12 415.94
  Q 176.06 417.23 176.59 421.46
  C 177.45 428.24 178.00 434.95 184.38 439.14
  C 187.34 441.07 191.41 441.57 194.03 438.89
  C 197.02 435.81 195.59 430.84 191.65 429.33
  A 3.20 3.17 -79.8 0 1 189.61 426.35
  Q 189.56 417.20 184.04 410.35
  Z
  M 224.47 410.30
  Q 218.94 417.14 218.87 426.28
  A 3.20 3.17 79.9 0 1 216.82 429.25
  C 212.88 430.76 211.44 435.72 214.43 438.80
  C 217.04 441.49 221.11 441.00 224.07 439.07
  C 230.45 434.90 231.02 428.19 231.89 421.42
  Q 232.43 417.19 235.37 415.91
  Q 237.68 414.90 238.48 413.91
  C 240.68 411.21 240.65 406.78 237.28 404.71
  C 235.92 403.87 234.35 403.70 233.47 402.35
  C 231.48 399.33 231.05 392.81 230.81 391.44
  C 230.03 386.90 226.57 380.71 221.73 379.55
  C 212.21 377.29 209.56 389.58 217.47 391.50
  A 1.63 1.63 0.0 0 1 218.72 392.93
  C 219.32 399.07 220.11 404.82 224.43 409.31
  A 0.76 0.75 42.8 0 1 224.47 410.30
  Z"
/>
<path fill="#001f2e" d="
  M 184.04 410.35
  Q 189.56 417.20 189.61 426.35
  A 3.20 3.17 -79.8 0 0 191.65 429.33
  C 195.59 430.84 197.02 435.81 194.03 438.89
  C 191.41 441.57 187.34 441.07 184.38 439.14
  C 178.00 434.95 177.45 428.24 176.59 421.46
  Q 176.06 417.23 173.12 415.94
  Q 170.81 414.93 170.01 413.93
  C 167.81 411.23 167.85 406.80 171.23 404.73
  C 172.59 403.89 174.16 403.73 175.05 402.38
  C 177.04 399.36 177.49 392.84 177.73 391.47
  C 178.52 386.93 181.99 380.74 186.84 379.59
  C 196.37 377.34 198.99 389.65 191.08 391.55
  A 1.64 1.63 -3.9 0 0 189.82 392.98
  C 189.21 399.12 188.41 404.88 184.08 409.36
  A 0.76 0.75 -42.7 0 0 184.04 410.35
  Z"
/>
<path fill="#001f2e" d="
  M 224.43 409.31
  C 220.11 404.82 219.32 399.07 218.72 392.93
  A 1.63 1.63 0.0 0 0 217.47 391.50
  C 209.56 389.58 212.21 377.29 221.73 379.55
  C 226.57 380.71 230.03 386.90 230.81 391.44
  C 231.05 392.81 231.48 399.33 233.47 402.35
  C 234.35 403.70 235.92 403.87 237.28 404.71
  C 240.65 406.78 240.68 411.21 238.48 413.91
  Q 237.68 414.90 235.37 415.91
  Q 232.43 417.19 231.89 421.42
  C 231.02 428.19 230.45 434.90 224.07 439.07
  C 221.11 441.00 217.04 441.49 214.43 438.80
  C 211.44 435.72 212.88 430.76 216.82 429.25
  A 3.20 3.17 79.9 0 0 218.87 426.28
  Q 218.94 417.14 224.47 410.30
  A 0.76 0.75 42.8 0 0 224.43 409.31
  Z"
/>
</svg>
